<svg viewBox="0 0 235 278" fill="none" xmlns="http://www.w3.org/2000/svg">
<rect width="235" height="278" fill="#1E1E1E"/>
<g id="The dorm opt in panel">
<path d="M-2369.25 -1418C-2369.25 -1419.1 -2368.35 -1420 -2367.25 -1420H3710.75C3711.85 -1420 3712.75 -1419.1 3712.75 -1418V2695C3712.75 2696.1 3711.85 2697 3710.75 2697H-2367.25C-2368.35 2697 -2369.25 2696.1 -2369.25 2695V-1418Z" fill="#444444"/>
<path d="M-2367.25 -1420V-1419H3710.75V-1420V-1421H-2367.25V-1420ZM3712.75 -1418H3711.75V2695H3712.75H3713.75V-1418H3712.75ZM3710.75 2697V2696H-2367.25V2697V2698H3710.75V2697ZM-2369.25 2695H-2368.25V-1418H-2369.25H-2370.25V2695H-2369.25ZM-2367.25 2697V2696C-2367.8 2696 -2368.25 2695.55 -2368.25 2695H-2369.25H-2370.25C-2370.25 2696.66 -2368.91 2698 -2367.25 2698V2697ZM3712.75 2695H3711.75C3711.75 2695.55 3711.3 2696 3710.75 2696V2697V2698C3712.41 2698 3713.75 2696.66 3713.75 2695H3712.75ZM3710.75 -1420V-1419C3711.3 -1419 3711.75 -1418.55 3711.75 -1418H3712.75H3713.75C3713.75 -1419.66 3712.41 -1421 3710.75 -1421V-1420ZM-2367.25 -1420V-1421C-2368.91 -1421 -2370.25 -1419.66 -2370.25 -1418H-2369.25H-2368.25C-2368.25 -1418.55 -2367.8 -1419 -2367.25 -1419V-1420Z" fill="white" fill-opacity="0.1"/>
<g id="Onboarding">
<rect width="375" height="812" transform="translate(-70.25 -71)" fill="white"/>
<g id="Frame 41070">
<g id="Group 151">
<g id="Group 150">
<ellipse id="Ellipse 68" cx="117.25" cy="247.994" rx="117.25" ry="29.9942" fill="#9731A9"/>
<ellipse id="Ellipse 69" cx="118.159" cy="243.45" rx="94.9816" ry="25.4496" fill="#C06ACB"/>
</g>
<g id="Group">
<path id="Vector" d="M23.4052 75.1855C-3.30834 60.5526 6.11718 43.7006 14.1691 37.1038C18.3305 35.9044 26.7142 33.5255 26.9578 33.6055C27.2623 33.7054 37.6148 33.5055 32.743 46.5993C27.8712 59.693 30.3071 64.5906 28.9877 70.9876C27.9321 76.1051 24.8262 75.9186 23.4052 75.1855Z" fill="black"/>
<path id="Vector_2" d="M17.4176 66.9897C13.439 52.6765 17.0454 45.5667 19.346 43.8008L20.0565 45.8998C15.1847 56.8545 19.3122 67.3895 21.9849 71.2876L17.4176 66.9897Z" fill="black"/>
<g id="Mask group">
<mask id="mask0_2_35" style="mask-type:alpha" maskUnits="userSpaceOnUse" x="5" y="33" width="30" height="43">
<g id="Group_2">
<path id="Vector_3" d="M23.4052 75.1855C-3.30834 60.5526 6.11718 43.7006 14.1691 37.1038C18.3305 35.9044 26.7142 33.5255 26.9578 33.6055C27.2623 33.7054 37.6148 33.5055 32.743 46.5993C27.8712 59.693 30.3071 64.5906 28.9877 70.9876C27.9321 76.1051 24.8262 75.9186 23.4052 75.1855Z" fill="white"/>
</g>
</mask>
<g mask="url(#mask0_2_35)">
<g id="Group_3">
<path id="Vector_4" d="M31.5294 50.7764C31.5294 50.7826 31.5259 50.7962 31.5192 50.8169C29.0105 60.8447 30.8433 81.7789 23.4169 76.2488C12.037 72.2619 6.66623 62.0727 5.95264 57.1999C10.73 60.7438 14.8538 60.7438 17.6706 59.5256C26.8722 60.9253 31.2813 51.5428 31.5192 50.8169C31.5227 50.8034 31.5259 50.7898 31.5294 50.7764Z" fill="black"/>
</g>
</g>
</g>
<path id="Vector_5" d="M159.409 161.644L141.952 138.255L148.65 135.557C154.165 142.32 165.539 156.387 166.919 158.546C168.645 161.244 170.485 165.127 167.63 168.341C164.077 172.339 133.73 177.537 128.148 178.436C123.682 179.156 121.957 179.735 121.957 183.034C120.265 187.765 114.446 192.929 111.199 190.43C104.153 185.009 114.649 174.538 118.912 172.339C123.175 170.14 156.364 164.243 158.597 163.943C160.383 163.703 159.882 162.311 159.409 161.644Z" fill="black"/>
<path id="Vector_6" d="M125.306 138.556H130.178H134.136L133.122 234.909C126.49 237.242 112.944 240.507 111.807 234.909C110.67 229.312 121.28 226.18 126.727 225.314L125.306 138.556Z" fill="black"/>
<g id="Group_4">
<path id="Vector_7" d="M10.0078 40.9018C-2.60903 14.4161 27.9726 1.32074 28.683 1.22079C49.5914 -3.4772 76.5166 4.81872 81.6638 36.0039C84.4848 53.096 71.8188 78.6837 70.4994 89.3785C69.8135 94.9381 72.4611 103.772 75.1675 103.372C78.2124 67.0892 105.312 57.8457 113.837 55.095C165.572 38.403 213.47 115.419 216.143 121.663C218.985 128.3 211.645 129.692 207.619 129.559C198.931 136.276 191.413 130.759 188.74 127.16C190.527 137.396 182.312 136.489 177.982 134.757C175.708 143.633 163.434 144.519 157.581 143.852C131.193 158.146 105.65 147.651 95.2635 142.153C46.2415 154.247 31.8292 102.772 45.0235 77.5842C58.2179 52.3963 55.782 37.1036 53.4476 35.1046C51.5801 33.5053 49.3168 33.1055 47.663 37.0037C44.3131 44.8999 40.4605 47.3861 33.5552 49.6976C25.3802 52.4339 14.1891 49.6794 10.0078 40.9018Z" fill="#FFA9D0"/>
</g>
<g id="Mask group_2">
<mask id="mask1_2_35" style="mask-type:alpha" maskUnits="userSpaceOnUse" x="6" y="0" width="211" height="152">
<g id="Group_5">
<path id="Vector_8" d="M10.0078 40.9018C-2.60903 14.4161 27.9726 1.32074 28.683 1.22079C49.5914 -3.4772 76.5166 4.81872 81.6638 36.0039C84.4848 53.096 71.8188 78.6837 70.4994 89.3785C69.8135 94.9381 72.4611 103.772 75.1675 103.372C78.2124 67.0892 105.312 57.8457 113.837 55.095C165.572 38.403 213.47 115.419 216.143 121.663C218.985 128.3 211.645 129.692 207.619 129.559C198.931 136.276 191.413 130.759 188.74 127.16C190.527 137.396 182.312 136.489 177.982 134.757C175.708 143.633 163.434 144.519 157.581 143.852C131.193 158.146 105.65 147.651 95.2635 142.153C46.2415 154.247 31.8292 102.772 45.0235 77.5842C58.2179 52.3963 55.782 37.1036 53.4476 35.1046C51.5801 33.5053 49.3168 33.1055 47.663 37.0037C44.3131 44.8999 40.4605 47.3861 33.5552 49.6976C25.3802 52.4339 14.1891 49.6794 10.0078 40.9018Z" fill="#A56363"/>
</g>
</mask>
<g mask="url(#mask1_2_35)">
<g id="Group_6">
<g id="Group_7">
<path id="Vector_9" d="M166.124 125.245C110.504 143.316 104.313 75.8019 108.17 39.7858C135.614 2.28373 213.996 71.404 249.755 110.652C238.828 119.414 211.887 136.395 200.925 134.236C189.964 132.077 185.498 123.241 183.468 117.844C177.866 122.561 169.744 123.512 167.545 122.446C168.194 123.486 166.868 124.745 166.124 125.245Z" fill="#F97ABF"/>
</g>
</g>
</g>
</g>
<g id="Group_8">
<path id="Vector_10" d="M30.4088 37.3042C32.7631 37.3042 34.6716 35.4247 34.6716 33.1062C34.6716 30.7877 32.7631 28.9082 30.4088 28.9082C28.0545 28.9082 26.146 30.7877 26.146 33.1062C26.146 35.4247 28.0545 37.3042 30.4088 37.3042Z" fill="#030100"/>
</g>
</g>
</g>
</g>
</g>
</g>

</svg>
