<svg width="62" height="58" viewBox="0 0 62 58" fill="none" xmlns="http://www.w3.org/2000/svg">
<rect width="54.5513" height="51.2689" rx="12" transform="matrix(0.991277 -0.131794 0.150878 0.988552 0 7.18958)" fill="#62DB8D"/>
<path d="M29.2235 15.6262L27.6194 21.2405C26.9778 19.9572 23.6092 20.4385 22.0051 20.8395C21.6843 21.1603 21.3367 24.7161 21.2031 26.4538C21.2031 27.4163 23.3418 28.1916 24.4112 28.4589L21.6041 37.2814L22.4061 38.8855L20 45.3018C21.9249 48.1892 25.6143 47.5743 27.2184 46.9059L29.6245 39.6875L30.8276 38.8855L36.0409 26.8548C37.9658 27.4965 39.7837 27.1222 40.4521 26.8548C43.3394 24.9299 44.0613 22.0426 44.0613 20.8395C43.0988 18.9146 39.9174 19.5028 38.447 20.0375L40.0511 17.2303L39.249 15.6262C40.2115 14.9846 40.4521 13.4875 40.4521 12.8191C40.4521 10.8942 37.7786 11.215 36.4419 11.616C35.4794 10.3327 33.1 11.3486 32.0306 12.017L32.4317 14.4231C32.1108 14.4231 30.1592 15.2252 29.2235 15.6262Z" fill="white"/>
<path d="M36.7133 12.9867C36.9603 13.2326 35.9928 14.7078 35.4782 15.4146C34.9223 15.5375 33.7366 15.7096 33.4402 15.4146C33.1437 15.1196 33.2343 13.6116 33.3167 12.8945C33.9342 12.495 33.9342 12.5257 34.9223 12.4335C35.9104 12.3413 36.4045 12.6794 36.7133 12.9867Z" fill="#E6C43C"/>
<path d="M38.9972 13.0788C40.1088 14.0315 37.268 15.4452 37.2063 15.5067C36.774 15.8038 35.86 16.1336 35.6624 15.0764C35.4648 14.0192 35.9712 13.13 36.4035 12.8022C37.7868 12.4826 38.8119 12.8432 38.9972 13.0788Z" fill="#E6C43C"/>
<path d="M35.1535 25.6609C33.386 24.8946 34.8534 24.0584 35.808 23.7361C36.7994 23.9128 37.3371 23.9564 37.5737 23.7051C37.8104 23.4538 38.3512 21.7522 38.7143 21.1103C40.9364 20.1028 42.3294 21.1132 42.7481 21.7444C42.5081 22.8599 41.2211 24.442 40.6077 25.0936C39.1709 26.0664 36.3729 25.8771 35.1535 25.6609Z" fill="#3EC87D"/>
<path d="M22.9402 38.0645L29.8615 38.5245L29.9816 38.4026C30.7721 36.8291 36.1572 23.446 38.751 16.9511C36.4289 13.4845 32.1842 15.1584 30.3521 16.4287L26.9555 25.5563L22.9402 38.0645Z" fill="#3EC87D"/>
<path d="M23.963 38.1035H28.6807L27.5588 41.8863L26.4369 45.6691C23.7789 46.6599 22.1075 45.7281 21.6041 45.1384L23.963 38.1035Z" fill="#3EC87D"/>
<path d="M26.8758 27.6208C29.0068 27.3121 28.4485 26.2458 27.903 25.7513C26.9159 25.697 26.4235 25.6207 26.4292 25.3441C26.435 25.0676 27.3751 23.423 27.5946 22.7685C26.5364 21.3861 24.5227 21.9945 23.6481 22.4715C22.9345 23.5251 22.7262 25.2226 22.7112 25.9396C23.1313 27.122 25.6627 27.5531 26.8758 27.6208Z" fill="#3EC87D"/>
<path d="M28.9953 38.97C29.6431 38.7029 29.4809 38.3886 29.3188 38.2648L23.649 37.6823C23.0027 37.8757 23.2061 38.1923 23.3886 38.3264L28.9953 38.97Z" fill="#3EC87D"/>
<path d="M25.6791 26.346C26.4287 26.4636 27.9675 26.6988 28.1262 26.6988L28.1262 26.7629L28.1924 26.9233L25.6129 26.5064C24.7664 26.2242 24.5106 25.8115 24.4886 25.6405L25.6129 22.594L26.0098 22.3374L26.0098 22.5619C25.635 23.4705 24.8722 25.3583 24.8193 25.6405C24.7664 25.9227 25.3704 26.2284 25.6791 26.346Z" fill="#2A8B48"/>
<path d="M24.3563 22.4977L24.4886 22.3374L24.4886 22.5619L23.4303 25.4481C23.1129 26.423 24.3122 26.8377 24.9515 26.9233L27.7955 27.3402L27.5971 27.5005L24.8193 27.0515C23.179 26.7693 23.0335 25.8222 23.1658 25.384L24.3563 22.4977Z" fill="#2A8B48"/>
<path d="M28.1262 26.2498L27.9278 26.1215L26.0098 25.8329C25.7452 25.7303 25.8114 25.5764 25.8775 25.5122L26.8696 23.0429L26.7373 22.7864L25.6791 25.5764C25.6791 25.8329 25.8995 25.9398 26.0098 25.9612L28.1262 26.2498Z" fill="#2A8B48"/>
<path d="M27.9407 27.2311C28.8221 26.354 27.776 25.8994 26.9526 25.6945C26.8703 25.6842 26.7304 25.6699 26.8292 25.6945C26.9527 25.7252 27.6808 26.2401 27.619 26.8548C27.5696 27.3465 26.7263 27.5282 26.2734 27.5692L26.3969 27.5999C27.3356 27.5999 27.8172 27.3541 27.9407 27.2311Z" fill="#2A8B48"/>
<path d="M33.6878 16.997V16.4282L32.9386 16.997L26.1955 35.676L33.6878 16.997Z" fill="#2A8B48"/>
<path d="M36.3725 17.2664V16.4282L35.4984 17.2664L28.3808 36.1549L36.3725 17.2664Z" fill="#2A8B48"/>
<path d="M31.4401 17.1167L31.7523 16.4282L30.9406 16.997L27.549 26.2385L27.8189 26.4562L27.4695 27.3019L26.747 27.8425L24.0103 35.676L27.4695 27.3019L27.8189 27.0405V26.4562L31.4401 17.1167Z" fill="#2A8B48"/>
<path d="M37.7461 17.5957V16.8174L37.4339 17.4759L30.2538 35.8855L37.7461 17.5957Z" fill="#2A8B48"/>
<path d="M37.3875 24.344C36.6853 24.2815 35.2491 24.1486 35.1215 24.116L35.0673 24.1658L34.8786 24.2766L37.3052 24.4819C38.2245 24.4365 38.7787 24.169 38.941 24.0408L40.6106 21.4481L40.5082 21.1678L40.3185 21.3419C39.8523 22.1233 38.8709 23.7434 38.675 23.9731C38.4791 24.2028 37.7351 24.316 37.3875 24.344Z" fill="#2A8B48"/>
<path d="M41.7024 21.631L41.7315 21.4795L41.5419 21.6536L39.9545 24.1085C39.3862 24.9295 38.0713 25.0054 37.4849 24.9407L34.8456 24.6812L34.8697 24.8461L37.4829 25.0672C39.0404 25.1845 39.9576 24.4799 40.2215 24.113L41.7024 21.631Z" fill="#2A8B48"/>
<path d="M35.5008 23.7679L35.7687 23.7091L37.555 23.8783C37.8545 23.853 37.9314 23.7201 37.9324 23.6568L39.2207 21.5387L39.5438 21.3669L38.0377 23.7472C37.821 23.9461 37.5534 23.9838 37.4467 23.9778L35.5008 23.7679Z" fill="#2A8B48"/>
<path d="M35.5841 23.6466C34.9172 23.8683 34.2725 24.6919 35.2423 25.5546C35.2818 25.5925 35.3211 25.6251 35.3582 25.6517C35.3173 25.6193 35.2787 25.5869 35.2423 25.5546C34.8698 25.1968 34.4863 24.3698 35.8047 23.7041L35.5841 23.6466Z" fill="#2A8B48"/>
</svg>
