<svg width="62" height="58" viewBox="0 0 62 58" fill="none" xmlns="http://www.w3.org/2000/svg">
<rect width="54.5513" height="51.2689" rx="12" transform="matrix(0.991277 -0.131794 0.150878 0.988552 0 7.18958)" fill="#E71763"/>
<path d="M33.0887 18.6108C35.4936 21.9017 35.6562 26.4414 35.4369 28.2998C34.1397 22.3704 26.8165 22.9545 23.3171 23.9877L19.9428 23.7727C18.8583 28.9486 23.4135 32.6298 25.8266 33.8234L23.4888 40.6672L22.732 40.3322L20.7901 47.4451C21.8255 49.4679 24.5009 49.7396 25.7091 49.6226L28.8213 43.0001L27.8213 42.5001L30.8087 36.0288C31.9737 36.1233 33.655 35.96 34.35 35.8665C37.339 35.3845 38.8115 32.376 39.1742 30.932C40.6737 28.2262 39.4975 23.1025 38.722 20.8789C37.8347 19.8844 36.2687 16.7091 36.1908 16.3738C36.113 16.0385 37.864 16.5128 38.1867 16.8061C38.5094 17.0993 38.003 17.2211 38.218 18.0985C38.433 18.9759 38.7186 19.5235 39.2231 19.7469C39.7276 19.9702 41.1099 18.5513 41.9468 17.3423C42.6163 16.3751 42.267 14.8015 42.0087 14.1356C42.5303 12.787 41.1894 11.2156 39.0861 9.83329C37.4035 8.72741 34.9568 9.96091 33.9438 10.7159C32.6567 11.9763 30.6838 15.32 33.0887 18.6108Z" fill="white"/>
<path d="M29.1194 34.4723C22.023 32.4199 20.7542 27.1395 21.0068 24.7559L23.3067 25.169C25.3876 24.2753 28.0144 24.2786 29.0676 24.3919C32.9321 24.7717 34.3352 27.732 34.5536 29.1646L35.3714 29.5267C37.9008 25.9882 35.2673 20.6437 33.7192 18.1329C31.9237 15.2207 33.3626 12.48 34.6027 11.7182C38.3005 9.48333 40.1418 11.952 40.6003 13.4657C41.0302 15.3499 39.5344 15.817 38.7327 15.815C37.144 16.6846 35.6383 15.1006 35.0841 14.1999C34.172 15.3085 35.7885 18.2171 36.7108 19.5328C39.4772 24.5686 38.3682 29.6685 37.4679 31.589C35.9506 35.6965 31.27 35.2227 29.1194 34.4723Z" fill="#F587AE"/>
<path d="M38.291 14.7829C38.265 13.7255 39.7308 13.0807 40.0752 13.2332C40.4196 13.3856 41.2435 13.943 40.4073 14.3435C39.5712 14.744 39.3071 15.2785 39.2796 15.4957C38.9609 15.6987 38.3171 15.8403 38.291 14.7829Z" fill="#FFDCEA"/>
<path d="M39.5196 15.1251C39.8783 14.3149 40.6158 13.9953 41.2514 14.5795C41.8869 15.1636 40.838 17.4584 40.1806 18.345C39.5231 19.2316 39.3459 18.884 39.3459 18.884C39.1866 18.6453 39.0343 18.2414 39.0176 17.8302C39.0009 17.419 39.3912 16.9862 39.4493 16.4062C39.5073 15.8263 39.161 15.9354 39.5196 15.1251Z" fill="#331F21"/>
<path d="M26.4947 43.905L25.1811 47.5181C24.8771 47.6238 24.1552 47.3347 23.8322 47.1769C22.7811 46.7116 22.5217 46.4261 22.5234 46.3416L23.6281 42.6361L24.076 42.8343L27.9594 32.7708C28.3743 32.8284 29.3633 33.1008 29.9992 33.7294L26.1663 43.7596L26.4947 43.905Z" fill="#D27480"/>
<ellipse cx="38.563" cy="12.314" rx="0.963927" ry="0.688519" transform="rotate(38.6006 38.563 12.314)" fill="#C0728A"/>
<ellipse cx="38.8003" cy="12.118" rx="0.963927" ry="0.688519" transform="rotate(38.6006 38.8003 12.118)" fill="#FFDCEA"/>
<ellipse cx="38.9183" cy="12.1153" rx="0.550815" ry="0.412303" transform="rotate(45.3237 38.9183 12.1153)" fill="#331F21"/>
<path d="M30.8167 26.3861C34.1012 27.9466 33.8885 29.8783 33.3716 30.6491C32.2516 32.4989 29.0083 31.6052 27.5266 30.9271L28.7124 30.1193C27.661 30.4535 25.6792 29.9983 24.8197 29.7288L25.8821 29.1996C25.041 29.467 23.8218 28.8651 23.3173 28.5307L24.3798 28.0014C23.3766 28.0905 22.4855 27.5183 22.1654 27.2211C25.2984 24.7696 29.2384 25.6429 30.8167 26.3861Z" fill="#FFDCEA"/>
</svg>
