<svg width="62" height="58" viewBox="0 0 62 58" fill="none" xmlns="http://www.w3.org/2000/svg">
<rect width="54.5513" height="51.2689" rx="12" transform="matrix(0.991277 -0.131794 0.150878 0.988552 0 7.18958)" fill="#9A1023"/>
<path d="M35.542 16.0001C36.342 12.8001 33.0418 11.0001 31.0418 11.0001C27.4417 11.4001 26.2086 14.1668 26.542 15.5001C25.042 15.5001 22.542 20.0001 21.042 21.0001C19.842 21.8001 19.542 26.0001 19.542 28.0001L20.5418 29.5001C19.2085 31.3335 16.6418 35.6001 17.0418 38.0001C17.4418 40.4001 19.5418 40.0001 20.5418 39.5001C20.9418 41.9001 22.7085 43.1668 23.5418 43.5001C23.5418 44.3335 23.7418 46.1001 24.5418 46.5001C25.3418 46.9001 29.5418 46.6668 31.5418 46.5001C33.5418 46.6668 37.7418 46.8001 38.5418 46.0001C39.3418 45.2001 39.2085 44.0001 39.0418 43.5001C40.6418 42.7001 41.3752 40.5001 41.5418 39.5001C42.3418 40.3001 43.8752 39.8335 44.5418 39.5001C47.7418 36.3001 43.8752 31.5001 41.5418 29.5001L43.0418 28.0001C44.2418 22.0001 38.3753 17.8335 35.542 16.0001Z" fill="white"/>
<g clip-path="url(#clip0_1559_17129)">
<path d="M31.1219 42.8151C31.1088 42.6358 31.0753 42.3928 30.9762 42.1779C30.8291 41.859 30.6328 41.5226 30.2908 41.4367C29.7354 41.297 29.1648 41.297 28.6357 41.5992C28.5438 41.6515 28.4315 41.7496 28.335 41.6569C27.7789 41.1225 27.1867 41.297 26.5998 41.5649C26.4461 41.6347 26.3424 41.6455 26.1816 41.583C25.5421 41.3346 24.9138 41.6838 24.7287 42.3612C24.5461 43.0279 24.6545 43.6879 24.7359 44.3546C24.8206 45.0435 25.2723 45.3295 25.8185 45.3926C27.1834 45.5511 28.547 45.5041 29.9093 45.3792C30.7838 45.2987 31.6531 45.3141 32.5276 45.3947C33.8347 45.5155 35.1465 45.5471 36.4556 45.4041C36.9001 45.3557 37.3262 45.2214 37.4568 44.736C37.6518 44.0129 37.7601 43.271 37.6275 42.5156C37.4877 41.7187 36.8068 41.2762 36.1109 41.5616C35.9094 41.6441 35.7787 41.6045 35.6021 41.5226C35.132 41.3044 34.6285 41.1554 34.1728 41.5085C33.9312 41.6958 33.7789 41.671 33.5413 41.5367C32.8132 41.1245 31.8093 41.3588 31.3642 42.0094C31.1837 42.2733 31.2624 42.6076 31.1213 42.8137L31.1219 42.8151ZM31.5329 34.5842C31.6872 34.5715 31.7601 34.5842 31.8166 34.558C32.4724 34.2619 33.0659 33.8712 33.4815 33.2609C33.6279 33.046 33.6706 32.7284 33.4671 32.5425C32.9418 32.0624 32.4606 31.5239 31.8461 31.1533C31.6675 31.0459 31.464 31.0083 31.2946 31.1614C30.8712 31.5441 30.3755 31.8355 29.9861 32.2625C29.6461 32.6358 29.6178 32.9688 29.9297 33.3569C30.2501 33.7557 30.6381 34.0813 31.0471 34.3781C31.2139 34.4996 31.3983 34.6077 31.5329 34.5836V34.5842Z" fill="#FDFDFD"/>
<path d="M23.0802 28.3126C20.5775 33.226 20.5624 38.7417 23.2128 41.9201C24.5883 43.5691 26.3721 44.0432 27.0404 44.2909C30.2042 45.4639 36.0697 44.7092 38.728 42.0188C41.0219 39.6978 39.8578 36.056 38.9938 31.4615C38.4804 28.7329 37.017 27.9239 35.9751 26.9053C33.5794 24.5607 28.4073 25.2711 23.0802 28.3133V28.3126Z" fill="white"/>
<path d="M27.3887 17.3692C27.7852 17.2114 28.1779 17.0436 28.5403 16.8119C28.7983 16.6467 28.8121 16.5245 28.5527 16.354C28.2396 16.1479 28.298 15.7967 28.2297 15.5121C28.0846 14.9091 28.5265 13.9913 29.0563 13.6778C29.2119 13.5858 29.3425 13.4783 29.3819 13.2856C29.3905 13.246 29.4134 13.1869 29.443 13.1775C30.1205 12.9533 30.6635 12.2127 31.5071 12.6203C31.7165 12.7217 31.9726 12.5941 32.1801 12.7223C32.5812 12.9701 33.0532 13.0614 33.3526 13.5374C33.5017 13.7744 33.8174 13.9691 34 14.2391C34.3538 14.7628 34.3381 15.6296 33.975 16.1526C33.6894 16.5648 33.7886 16.7804 34.2829 16.8992C34.5042 16.9522 34.7622 16.9825 34.8672 17.2597C34.883 17.3007 34.9513 17.3282 35.0005 17.347C35.3465 17.4773 35.5802 17.7465 35.8527 17.9855C36.2604 18.3434 36.6064 18.7785 37.0725 19.0672C37.194 19.1424 37.2537 19.2968 37.341 19.3734C37.7356 19.7191 37.9982 20.1663 38.3219 20.5658C38.4099 20.6746 38.5628 20.7464 38.5648 20.9015C38.5681 21.2291 38.7611 21.4547 38.9371 21.6891C39.0657 21.8603 39.0743 22.0617 39.111 22.2578C39.157 22.5048 39.266 22.6532 39.5371 22.5337C39.7059 22.4592 39.8122 22.5303 39.9593 22.6331C40.1694 22.7794 40.3486 22.9614 40.5062 23.1433C40.8646 23.5563 40.8699 24.0618 40.7097 24.5728C40.6933 24.6258 40.6447 24.6903 40.6598 24.7292C40.822 25.1448 40.6893 25.643 40.9913 26.0143C41.4089 26.5286 41.5336 27.7016 41.2185 28.2944C41.143 28.4361 41.0078 28.5388 40.8633 28.5382C40.5324 28.5355 40.2186 28.6348 39.8943 28.6617C39.7794 28.612 39.6586 28.6308 39.5398 28.6308C38.8025 28.6308 38.0658 28.6342 37.3404 28.7906C36.9845 28.7362 36.6464 28.5845 36.2656 28.7799C36.0273 28.9027 35.7483 28.7497 35.5238 28.6107C35.3655 28.5133 35.1902 28.4945 35.0543 28.5509C34.6552 28.7181 34.2724 28.6066 33.8739 28.5784C33.4925 28.5509 33.1077 28.606 32.7158 28.5717C31.6036 28.4744 30.4915 28.6113 29.3786 28.6362C28.8121 28.6483 28.2474 28.7215 27.6789 28.6758C27.459 28.6583 27.2633 28.569 27.0526 28.5267C26.3547 28.3878 25.6732 28.6261 24.9812 28.6187C24.9136 28.6181 24.846 28.6798 24.7777 28.7127C24.7357 28.7033 24.6877 28.6751 24.6523 28.6865C23.9505 28.9202 23.2309 28.9041 22.5087 28.8504C22.4096 28.843 22.3118 28.8369 22.2389 28.9256C22.0682 28.8121 21.8765 28.7812 21.6782 28.7691C21.2731 28.7443 21.0939 28.4912 20.9396 28.1192C20.7006 27.5431 20.7525 26.9906 20.8733 26.4178C20.8989 26.2963 20.9193 26.1338 21.0138 26.0902C21.5633 25.8371 21.4025 25.2925 21.4904 24.8675C21.5515 24.5735 21.5325 24.2545 21.4268 23.9443C21.3263 23.6483 21.7032 22.8674 21.9625 22.7163C22.08 22.6485 22.1975 22.6935 22.315 22.6895C22.9256 22.6687 23.0937 22.6035 23.2513 22.0718C23.353 21.7287 23.5605 21.4339 23.7056 21.115C24.0148 20.4355 24.521 19.9138 25.0042 19.3955C25.4539 18.9121 26.0343 18.1474 26.595 17.7801" fill="#E33331"/>
<path d="M31.1215 42.8151C31.2626 42.609 31.1839 42.2746 31.3644 42.0108C31.8095 41.3602 32.8134 41.1258 33.5414 41.5381C33.7785 41.6724 33.9314 41.6972 34.173 41.5099C34.628 41.1567 35.1322 41.3058 35.6023 41.524C35.7789 41.6059 35.9096 41.6455 36.1111 41.5629C36.807 41.2769 37.4878 41.7201 37.6277 42.517C37.7603 43.2724 37.652 44.0143 37.457 44.7374C37.3263 45.2228 36.9003 45.3571 36.4558 45.4054C35.146 45.5478 33.8349 45.5169 32.5278 45.396C31.6533 45.3155 30.784 45.3 29.9095 45.3806C28.5472 45.5055 27.1836 45.5525 25.8187 45.394C25.2725 45.3309 24.8208 45.0449 24.7361 44.356C24.654 43.6886 24.5463 43.0286 24.7288 42.3626C24.9146 41.6851 25.5429 41.336 26.1818 41.5844C26.3419 41.6469 26.4463 41.6361 26.6 41.5663C27.1869 41.2984 27.7791 41.1238 28.3352 41.6583C28.4317 41.7509 28.5433 41.6529 28.6359 41.6005C29.165 41.2991 29.7355 41.2984 30.291 41.4381C30.633 41.524 30.8293 41.8604 30.9764 42.1793C31.0755 42.3942 31.109 42.6372 31.1221 42.8165L31.1215 42.8151Z" fill="#E33331"/>
<path d="M37.3395 28.7906C38.0656 28.6342 38.8023 28.6308 39.5389 28.6308C39.6584 28.6308 39.7785 28.612 39.8934 28.6617C39.7227 28.9511 39.8245 29.2123 39.9761 29.466C40.2821 29.977 40.7364 30.3543 41.1231 30.7934C42.0409 31.8355 42.7309 32.9963 43.1196 34.3553C43.3789 35.2624 43.612 36.156 43.5227 37.1141C43.4223 38.1924 42.5314 38.8578 41.5124 38.5899C40.72 38.3811 40.7239 38.3831 40.4436 39.1311C40.1738 39.8508 39.8639 40.5511 39.4266 41.1849C39.384 41.2474 39.3603 41.3266 39.2566 41.344C39.3334 40.821 39.4056 40.304 39.4864 39.7877C39.7359 38.2032 39.5533 36.6589 39.1417 35.12C38.6578 33.3099 38.1792 31.4998 37.57 29.7279C37.4662 29.4251 37.4144 29.1042 37.3389 28.7913L37.3395 28.7906Z" fill="black"/>
<path d="M22.2379 28.927C22.3108 28.8377 22.4086 28.8444 22.5078 28.8518C23.2299 28.9055 23.9495 28.9209 24.6513 28.688C24.6868 28.6759 24.7347 28.7048 24.7767 28.7142C24.6073 29.4903 24.2751 30.2195 24.092 30.9842C23.8819 31.8611 23.5589 32.6983 23.3376 33.5698C23.0395 34.7421 22.7251 35.911 22.5366 37.1062C22.3732 38.1388 22.4999 39.1721 22.6653 40.1994C22.7343 40.6284 22.7848 41.0594 22.8636 41.5039C22.666 41.1951 22.4329 40.9043 22.2793 40.5747C21.9845 39.9429 21.6556 39.3218 21.4974 38.6296C21.4547 38.4443 21.3102 38.3973 21.1356 38.4436C20.9452 38.494 20.7561 38.547 20.5651 38.5933C19.5947 38.831 18.8016 38.2925 18.6073 37.2888C18.4517 36.4831 18.5968 35.7036 18.8043 34.9388C19.0695 33.9613 19.3781 32.9971 19.9453 32.1411C20.4371 31.3991 21.0069 30.7291 21.6195 30.0919C21.9313 29.7676 22.2872 29.4574 22.2386 28.9283L22.2379 28.927Z" fill="black"/>
<path d="M31.5324 34.5843C31.3978 34.6091 31.2134 34.5004 31.0466 34.3788C30.6376 34.0821 30.2496 33.7564 29.9292 33.3576C29.6173 32.9695 29.6456 32.6365 29.9857 32.2632C30.3743 31.8362 30.8707 31.5448 31.2941 31.1621C31.4635 31.009 31.667 31.0466 31.8456 31.154C32.4601 31.5247 32.9413 32.0631 33.4666 32.5432C33.6701 32.7292 33.6268 33.0474 33.481 33.2616C33.0654 33.8712 32.4719 34.2627 31.8161 34.5588C31.7596 34.5843 31.6867 34.5722 31.5324 34.585V34.5843Z" fill="#E33331"/>
<path d="M28.4987 30.7592C28.4882 31.3655 28.0602 31.818 27.5001 31.8133C26.9303 31.8086 26.5134 31.3621 26.5206 30.7646C26.5272 30.1865 26.9913 29.7192 27.5408 29.738C28.0838 29.7561 28.5079 30.2086 28.4987 30.7592Z" fill="black"/>
<path d="M36.1061 30.7888C36.1002 31.395 35.6905 31.8234 35.1279 31.812C34.5731 31.8006 34.1234 31.3407 34.126 30.7867C34.128 30.2342 34.602 29.7252 35.1075 29.7326C35.6682 29.7407 36.112 30.21 36.1061 30.7888Z" fill="black"/>
</g>
<defs>
<clipPath id="clip0_1559_17129">
<rect width="25" height="33" fill="white" transform="translate(18.542 12.5001)"/>
</clipPath>
</defs>
</svg>
