<svg width="62" height="58" viewBox="0 0 62 58" fill="none" xmlns="http://www.w3.org/2000/svg">
<rect width="54.5513" height="51.2689" rx="12" transform="matrix(0.991277 -0.131794 0.150878 0.988552 0 7.18958)" fill="#F9B115"/>
<path d="M23.3077 16.4329C22.9729 17.7721 24.4702 19.595 25.2608 20.339C24.8655 21.0133 24.1815 21.2465 23.4473 23.3463C22.6884 25.5165 22.1542 25.4439 21.6421 26.3456C21.1622 27.1906 21.363 28.2289 21.1537 30.5308C20.9445 32.8326 20.8747 33.1814 21.4327 34.9252C21.8792 36.3202 21.9211 35.8319 22.122 37.4283C21.7034 39.1721 22.8892 40.4277 23.4473 41.3345C23.8937 42.0599 24.2843 43.2178 25.1297 43.9232C25.9751 44.6287 29.167 44.8918 30.3611 44.9695C31.5553 45.0472 34.2672 44.9695 35.0959 44.8221C35.8129 44.6945 37.2453 43.658 38.1036 42.6677C39.0104 41.6214 38.9638 40.6528 40.6845 37.785C41.3541 36.669 41.1411 34.801 40.9551 34.2197C41.6805 32.4899 41.4899 30.4299 41.3039 29.6161L41.5131 28.0815C41.7363 26.7981 40.2111 24.6172 39.4206 23.6871C39.1974 21.6783 37.793 20.804 37.1187 20.618C38.2348 19.1532 38.5835 16.7119 38.6533 15.6656C38.7091 14.8286 37.6535 14.8983 37.1187 15.0378C37.328 14.4566 37.5651 13.2243 36.8397 12.9453C36.1143 12.6663 34.4914 12.829 33.7706 12.9453C33.8264 12.4989 33.2823 11.8292 33.0033 11.5502C31.5525 10.4342 30.2597 11.2712 29.7947 11.8292H28.7484C27.3534 11.8292 27.3766 12.8058 27.5626 13.294L27.0046 12.9453C25.4422 12.5547 25.4236 14.1776 25.6096 15.0378C24.9818 14.9448 23.6425 15.0936 23.3077 16.4329Z" fill="white"/>
<g clip-path="url(#clip0_1561_17460)">
<path d="M23.8735 23.688C24.052 23.483 24.1288 23.183 24.4273 23.0882C24.7356 23.0435 24.8849 22.8175 24.9742 22.5608C25.076 22.2651 25.2322 22.0447 25.5503 21.9707C25.7791 21.9707 26.0218 21.9191 26.2311 21.9805C26.6482 22.1033 27.11 22.0084 27.4978 22.2511C27.4964 22.4353 27.4936 22.6208 27.4922 22.805C27.0737 22.9347 26.6594 23.2486 27.1281 23.5723C27.5634 23.8736 27.608 24.1861 27.6275 24.5878C27.6415 24.8892 27.675 25.1473 28.0502 25.1779C28.0502 25.224 28.0502 25.27 28.0502 25.3161C27.9889 25.7485 28.1758 25.9327 28.6069 25.8755C28.6989 26.015 28.7924 26.1545 28.8845 26.294C28.8719 26.5116 28.9375 26.6874 29.0965 26.8506C29.5164 27.2831 30.3632 27.2426 30.4455 28.0643C30.4483 28.0908 30.7008 28.0922 30.8375 28.1062C30.811 28.5051 30.9952 28.6907 31.3942 28.6642C31.3439 28.9781 31.5127 29.2166 31.6397 29.4817C31.9145 30.0522 31.768 30.2671 31.1165 30.3368C30.9143 30.3564 30.7343 30.2908 30.5613 30.1945C30.5139 30.1485 30.4665 30.1025 30.419 30.0564C30.373 29.9644 30.3256 29.8709 30.2795 29.7788C29.9391 29.2529 29.4313 28.8107 28.8426 29.0185C27.9637 29.3296 28.0293 30.2545 27.9596 31.0065C27.9219 31.411 28.2246 31.7054 28.6083 31.8686C28.6083 31.9607 28.6083 32.0541 28.6096 32.1462C28.6264 33.1492 28.9514 33.4004 29.8875 33.1158C30.0605 33.0641 30.2084 32.9246 30.3814 32.887C30.7817 32.7991 31.0789 32.9302 30.8961 33.385C30.705 33.8649 30.7231 34.3197 30.8347 34.7954C30.4637 34.8191 30.2544 34.6615 30.2795 34.2723C30.3074 33.8091 30.0661 33.6166 29.6448 33.6877C28.9528 33.8063 28.5357 33.4589 28.286 32.8912C28.0209 32.2899 27.5717 31.9118 27.0472 31.5505C26.6691 31.291 26.5268 30.7749 26.7724 30.3926C27.0639 29.9406 26.7556 29.9434 26.5087 29.8458C26.1962 29.7216 25.8112 29.8262 25.5545 29.5096C25.3634 29.2752 25.196 28.8316 24.8347 29.0255C24.5347 29.1859 24.744 29.6212 24.7119 29.9323C24.7007 30.0397 24.7203 30.1876 24.7872 30.2587C25.1988 30.6912 24.8249 31.0664 24.5933 31.2757C24.3296 31.5142 23.8874 31.6272 23.5135 31.6538C23.1829 31.6775 23.3475 31.2408 23.1885 31.0511C22.9681 30.7888 22.9946 30.2922 22.4728 30.3299C22.6375 29.8235 22.1492 29.437 22.2175 28.9474C22.5886 29.1664 22.9472 29.4301 23.0713 28.6963C23.1285 28.3628 23.6628 28.1592 23.501 27.7741C23.3517 27.4184 22.869 27.4547 22.5565 27.2719C22.477 27.2259 22.4031 27.1701 22.3264 27.1185C22.4477 26.8715 22.5189 26.5925 22.763 26.4237C23.1564 26.1545 23.2248 25.5365 23.6893 25.4067C24.1399 25.2812 24.1567 24.885 24.3757 24.6241C24.4733 24.5069 24.4259 24.1972 24.2571 24.2475C23.4801 24.4735 24.0492 23.8345 23.8721 23.6894L23.8735 23.688ZM25.4052 28.1006C25.7121 28.0727 25.8516 28.2122 25.8237 28.5191C25.9409 28.9767 26.3148 28.9711 26.6524 28.9236C26.9872 28.8762 27.3123 28.7437 27.6373 28.6363C28.1032 28.4814 28.2051 28.102 27.8745 27.7295C27.6471 27.4728 27.3764 27.2524 27.1658 26.9831C26.6287 26.301 25.7958 26.1977 25.1471 26.7571C24.4887 27.3249 24.5668 27.7281 25.4038 28.1006H25.4052ZM24.3868 30.394C24.0911 29.9783 24.1427 29.437 23.9153 28.9697C23.713 28.554 23.54 28.7074 23.3671 28.9111C23.0141 29.324 23.0518 30.4805 23.4229 30.8432C23.5721 30.9883 23.7814 31.1013 23.9879 30.9479C24.1678 30.8139 24.3771 30.6856 24.3868 30.3954V30.394ZM24.9825 23.6629C24.7244 23.6713 24.7091 23.8568 24.7105 24.0466C24.7105 24.2279 24.6896 24.4372 24.9518 24.4567C25.256 24.479 25.2601 24.2572 25.2601 24.0424C25.2601 23.8499 25.2406 23.6685 24.9825 23.6615V23.6629Z" fill="#F9B115"/>
<path d="M25.8173 19.9186C25.2565 19.2811 24.7068 18.6282 24.3288 17.8651C24.0456 17.2945 23.7596 16.6849 24.273 16.0725C24.3246 16.0976 24.3762 16.1227 24.4278 16.1492C24.4892 16.8272 24.9551 17.3252 25.6889 17.4801C25.6262 17.3392 25.5648 17.2052 25.5048 17.0727C26.1242 17.2011 26.1646 16.6235 26.4255 16.3138C26.3641 16.2957 26.3028 16.2775 26.2414 16.2594C26.1884 15.5814 26.0558 14.9062 26.2079 14.224C26.293 13.8446 26.4395 13.5712 26.9012 13.7232C26.9138 13.7776 26.9263 13.8334 26.9389 13.8878C26.6055 14.2854 26.6083 14.411 26.8664 14.3803C27.4188 14.3147 27.7676 14.7276 27.8806 15.0387C28.0786 15.5786 28.4079 15.8046 28.8836 15.9957C29.2421 16.1394 29.436 16.0599 29.6146 15.5633C29.602 15.5172 29.5895 15.4698 29.5769 15.4238C30.0498 15.1406 30.1336 15.4517 30.1475 15.8158C30.1642 16.2538 30.1447 16.6933 30.1531 17.1313C30.1559 17.3057 30.2382 17.4829 30.4335 17.4452C30.6344 17.4075 30.5186 17.2387 30.4963 17.1118C30.2926 15.9804 30.3024 15.9651 31.3751 15.3889C32.3642 15.1643 33.2585 15.0987 33.7872 16.2678C33.8848 16.484 34.0899 16.5733 33.9741 16.8872C33.8946 17.102 34.0257 17.3657 34.189 17.5554C34.4721 17.4717 34.1234 17.0741 34.4401 17.0839C34.8488 17.095 35.1892 17.3169 35.0832 17.7647C34.9548 18.3115 34.9841 18.8695 34.8167 19.4303C34.6605 19.9507 34.2182 20.3036 34.1792 20.8407C33.444 20.8338 32.7102 20.8268 31.975 20.8184C31.9708 20.4557 31.9666 20.093 31.9625 19.7289C31.869 18.3813 31.7239 18.2236 30.5646 18.2041C30.5158 18.2041 30.467 18.2041 30.4181 18.2041C29.9243 17.7828 29.5337 17.1997 28.7887 17.176C28.3897 16.7881 27.9308 16.3654 27.3658 16.6514C26.2958 17.1913 26.2037 17.6545 26.6264 19.3411C27.1509 19.0718 26.7575 18.6938 26.7171 18.3882C26.6683 18.0269 26.625 17.6112 26.9012 17.4299C27.2374 17.208 27.5248 17.5526 27.7648 17.8023C28.3591 18.4287 28.924 19.0648 28.4846 20.0274C27.7662 19.8349 27.1719 20.2018 26.5539 20.4585C26.4855 20.4404 26.4171 20.4222 26.3502 20.4041C26.3083 20.2799 26.247 20.1795 26.1005 20.1655L26.0935 20.16C26.0879 20.0735 26.0377 20.0428 25.9568 20.0511L25.9289 20.0274C25.9317 19.9493 25.8968 19.9116 25.8173 19.9186ZM32.6446 19.7108C33.1357 19.4248 33.5277 19.0774 33.603 18.4747C33.6198 18.345 33.67 18.1818 33.4733 18.1413C32.8023 18.0018 32.4158 18.3855 32.5721 19.0983C32.6167 19.2992 32.473 19.5029 32.6432 19.7121L32.6446 19.7108Z" fill="#155D23"/>
<path d="M34.1787 20.8393C34.2178 20.3008 34.66 19.9493 34.8163 19.4289C34.9837 18.8681 34.9558 18.3101 35.0827 17.7633C35.1873 17.3154 34.847 17.0936 34.4396 17.0825C34.1229 17.0741 34.4731 17.4717 34.1885 17.554C34.0253 17.3643 33.8941 17.1006 33.9737 16.8858C34.0894 16.5719 33.8844 16.4826 33.7867 16.2664C33.258 15.0959 32.3638 15.1615 31.3747 15.3875C31.6481 14.9425 31.5881 14.6732 31.0022 14.7569C30.7971 14.7862 30.6451 14.8127 30.5572 14.5895L30.7023 14.5812C30.878 14.3035 31.2631 14.0259 30.7023 13.7483C30.4009 13.719 30.5056 13.5837 30.6353 13.4623C30.8976 13.2168 30.8097 13.041 30.5391 12.889C30.5446 12.3561 30.9283 12.5109 31.2268 12.5109C31.2324 12.6016 31.2366 12.6909 31.2422 12.7815C31.3565 12.9755 31.4054 13.267 31.6607 13.2977C32.0373 13.3424 32.0736 13.553 32.0917 13.8627C32.1071 14.1236 32.2159 14.3789 32.294 14.6746C32.4837 14.5323 32.6274 14.4235 32.7725 14.3147C32.9664 14.9899 33.5356 14.8462 34.0211 14.8867C34.0629 15.4014 34.2499 15.8423 34.6726 16.1631C34.7367 16.2148 34.8023 16.2678 34.8665 16.3194C35.066 16.5203 35.2557 16.7449 35.5891 16.657C36.0802 16.9625 35.6979 17.5554 36.0062 17.9209C35.6937 19.1541 35.7761 19.5238 36.454 19.9298C36.4582 19.9716 36.4401 20.0009 36.4038 20.019C36.1806 20.033 35.9979 20.1334 35.8416 20.2883C35.6463 20.3162 35.4343 20.259 35.2822 20.4669C35.006 20.8463 34.6014 20.884 34.1745 20.8393H34.1787Z" fill="#1C8339"/>
<path d="M36.0352 20.7891C36.1552 21.5731 36.8876 21.8745 37.4051 22.1702C38.1487 22.5971 38.5226 23.0282 38.6816 23.8959C38.8323 24.7162 39.3192 25.5002 39.8841 26.1517C40.2845 26.6134 40.477 27.1701 40.7881 27.6695C40.8411 27.7546 40.8523 27.9136 40.8091 28.0015C40.4422 28.7506 40.5859 29.5416 40.6026 30.3215L40.5607 30.3619C40.477 30.3536 40.3933 30.3466 40.3096 30.3382L40.3068 30.334C40.311 29.6867 40.3166 29.0394 40.3208 28.3921C40.3361 27.8662 40.2273 27.3207 39.8646 26.9831C39.1894 26.3553 39.0959 25.4039 38.4849 24.7622C38.4431 24.5864 38.3901 24.412 38.3622 24.2335C38.1822 23.0463 37.5447 22.4715 36.4189 22.2316C36.4077 22.0516 36.3114 21.9623 36.1315 21.9651C36.031 21.8284 35.9306 21.6931 35.8315 21.5564C35.7688 21.5034 35.7074 21.449 35.6446 21.396C35.6167 21.1769 35.7102 20.9998 35.8371 20.8338C35.9027 20.8184 35.9683 20.8031 36.0324 20.7877L36.0352 20.7891Z" fill="#EFDA82"/>
<path d="M31.2299 12.5096C30.9313 12.5096 30.5477 12.3548 30.5421 12.8877C30.4542 12.9044 30.3677 12.9198 30.2798 12.9365C30.2812 12.7942 30.2519 12.6673 30.1208 12.585C30.1236 12.5389 30.118 12.4929 30.1055 12.4482C30.1878 12.3604 30.2701 12.2711 30.3524 12.1832C30.7597 12.0897 31.1671 11.9976 31.5745 11.9042C31.6568 11.9181 31.7377 11.9321 31.82 11.946C31.9944 12.1553 32.2427 12.0534 32.4575 12.0967L32.4896 12.126C32.6807 12.5766 32.9486 13.0049 32.8063 13.5378C32.77 13.6759 32.7351 13.8768 32.9137 13.9702C33.1522 14.0958 33.1983 13.8014 33.3545 13.7401C33.3992 13.8098 33.4424 13.8782 33.4871 13.9479C33.5317 14.0107 33.5777 14.0107 33.6238 13.9479C34.4845 13.6675 35.3564 13.482 36.2688 13.6312C36.0288 13.9312 35.694 14.1237 35.4792 14.4752C35.3494 14.6873 34.9295 14.8115 34.6031 14.5785C34.4259 14.0637 34.1344 14.0846 33.5749 14.6692C33.3545 14.4543 33.2722 13.8893 32.7756 14.312C32.6319 14.4208 32.4868 14.5297 32.2971 14.6719C32.219 14.3762 32.1101 14.1209 32.0948 13.86C32.0767 13.5503 32.0404 13.3397 31.6637 13.295C31.4084 13.2643 31.361 12.9742 31.2452 12.7789C31.3596 12.79 31.4754 12.797 31.5884 12.8137C32.0613 12.8821 32.4226 12.5822 32.1255 12.4217C31.8493 12.2711 31.5047 12.2529 31.2285 12.5096H31.2299Z" fill="#40AC5F"/>
<path d="M25.1503 43.1476C25.1308 43.0416 25.142 42.9216 25.0164 42.8658C24.9983 42.6663 24.8922 42.5254 24.7234 42.425C24.7262 42.3873 24.7193 42.3524 24.6997 42.3204C24.6858 41.701 24.291 41.2141 23.938 40.8221C23.0871 39.8762 22.5374 38.8871 22.7648 37.5814C22.7648 37.3958 22.7648 37.2089 22.7662 37.0234C22.7188 36.4165 22.3812 35.9059 22.211 35.3395C22.211 35.3395 22.2193 35.3382 22.2179 35.3382C22.3281 34.9475 22.0422 34.6044 22.0868 34.2207C22.3937 34.2068 22.4886 34.3895 22.49 34.6574C22.4942 34.8164 22.4384 35.0131 22.5109 35.1303C23.1484 36.1556 23.0424 37.2968 23.0522 38.4212C22.9127 39.4856 23.7929 39.8414 24.4123 40.3785C24.33 40.8821 24.8616 41.076 24.9704 41.4833C24.9787 41.7107 25.1015 41.9116 25.1503 42.1125C25.2829 42.658 26.0334 42.9202 25.806 43.6038C25.6442 43.5327 25.4837 43.4601 25.3219 43.389C25.3219 43.389 25.3122 43.3722 25.3122 43.3736C25.3066 43.2634 25.248 43.1895 25.1489 43.1476H25.1503Z" fill="#E2B155"/>
<path d="M36.0089 17.9209C35.7006 17.5554 36.0829 16.9625 35.5918 16.657C35.6741 16.4547 35.8429 16.4101 36.0396 16.3919C36.3312 16.3654 36.4623 16.159 36.4079 15.9065C36.3019 15.4224 36.5153 15.0164 36.6534 14.5881C36.6534 14.7262 36.6716 14.8671 36.6478 15.0011C36.5683 15.4405 36.4763 15.8116 37.1849 15.7474C37.6369 15.707 37.9104 16.0474 37.8016 16.53C37.6746 17.0881 37.7848 17.7605 37.1291 18.0953C37.1208 17.7967 37.1333 17.4954 37.0984 17.1997C37.0664 16.9234 36.8208 16.7811 36.6018 16.8495C36.2977 16.9458 36.5725 17.1174 36.6227 17.261C36.7399 17.6014 36.7357 17.9335 36.5125 18.2473C36.3312 18.1525 36.2544 17.9028 36.0089 17.9209Z" fill="#5AC277"/>
<path d="M40.6042 30.3229C41.0994 30.8335 40.8372 31.4166 40.7702 31.9844C40.6293 33.1744 39.9611 34.3197 40.5303 35.5738C40.7688 36.0984 40.4856 36.7331 40.2289 37.0623C39.7602 37.6636 39.8104 38.3946 39.4617 38.9945C39.3877 39.1214 39.311 39.2177 39.1938 39.2916C39.191 39.2609 39.1938 39.2316 39.2008 39.2023C39.0473 38.6262 39.6305 38.177 39.4784 37.6008C39.5733 37.4097 39.6695 37.2186 39.7644 37.0275C40.148 36.9535 40.0308 36.6438 40.0308 36.4164C40.0252 35.366 39.8411 34.3169 40.0462 33.2678C40.4675 32.926 40.2596 32.4392 40.3336 32.0179C40.6181 31.9607 40.5916 31.7347 40.5902 31.5324C40.5875 31.1432 40.5721 30.7539 40.5623 30.3661L40.6042 30.3257V30.3229Z" fill="#EFDA82"/>
<path d="M36.0092 17.9209C36.2534 17.9028 36.3301 18.1525 36.5128 18.2473C36.736 17.9321 36.7416 17.6014 36.623 17.261C36.5728 17.1173 36.298 16.9458 36.6021 16.8495C36.8211 16.7811 37.0667 16.9234 37.0988 17.1997C37.1336 17.4954 37.1211 17.7967 37.1295 18.0953C36.9593 18.7272 36.9899 19.4317 36.457 19.9298C35.779 19.5238 35.6953 19.1541 36.0092 17.9209Z" fill="#40AC5F"/>
<path d="M36.6534 14.5882C36.5153 15.0165 36.3019 15.4225 36.4079 15.9066C36.4623 16.1577 36.3311 16.3655 36.0396 16.392C35.8429 16.4102 35.6741 16.4548 35.5918 16.6571C35.257 16.745 35.0686 16.5204 34.8691 16.3181C35.144 15.4504 36.0507 15.0179 36.3563 14.1655C36.3814 14.0944 36.5502 14.0749 36.652 14.0316C36.652 14.2172 36.652 14.4027 36.6534 14.5882Z" fill="#40AC5F"/>
<path d="M30.1205 12.585C30.2516 12.6673 30.2809 12.7942 30.2795 12.9365C29.9684 13.4331 30.147 13.927 30.2921 14.4194C29.8498 14.0986 29.6894 14.5324 29.4439 14.7361C28.8761 14.5297 28.5273 14.0777 28.1953 13.6103C28.1981 13.422 28.2009 13.2351 28.2037 13.0467C28.2386 12.9993 28.272 12.9519 28.3069 12.903L28.332 12.8933C28.3641 12.9267 28.4032 12.9435 28.4492 12.9435C28.5218 13.3634 28.6361 13.7889 29.1174 13.874C29.4885 13.9396 29.5248 13.5936 29.5848 13.3257C29.7647 13.0788 29.9433 12.8319 30.1233 12.585H30.1205Z" fill="#1C8339"/>
<path d="M36.6507 14.0316C36.5489 14.0748 36.3801 14.0943 36.355 14.1655C36.0495 15.0178 35.1427 15.4503 34.8679 16.318C34.8037 16.2664 34.7381 16.2134 34.674 16.1618C34.8177 15.6275 34.6949 15.1057 34.5986 14.5826L34.6014 14.5798C34.9279 14.8128 35.3478 14.6872 35.4775 14.4766C35.6923 14.125 36.0272 13.9325 36.2671 13.6326C36.5224 13.6423 36.6717 13.7553 36.6507 14.0302V14.0316Z" fill="#5AC277"/>
<path d="M24.4273 16.1479C24.3757 16.1228 24.3241 16.0977 24.2725 16.0712C24.9839 15.555 25.595 16.0893 26.2409 16.2581C26.3023 16.2762 26.3636 16.2944 26.425 16.3125C26.1641 16.6208 26.1251 17.1984 25.5057 17.0714L25.4555 17.0896C25.4387 16.9961 25.422 16.9012 25.4052 16.8078C25.1541 16.4785 24.8151 16.279 24.4287 16.1493L24.4273 16.1479Z" fill="#40AC5F"/>
<path d="M28.195 13.6102C28.5284 14.0776 28.8758 14.5296 29.4436 14.736C29.4743 14.9662 29.3613 15.1601 29.2845 15.3624C29.0781 15.2689 28.813 15.2103 28.7279 14.9969C28.3987 14.1752 27.5979 14.1501 26.9381 13.8851C26.9255 13.8306 26.9129 13.7748 26.9004 13.7204C27.1864 13.5684 27.4347 13.7455 27.6677 13.846C27.9662 13.9743 28.068 13.7958 28.195 13.6102Z" fill="#5AC277"/>
<path d="M23.874 23.6881C24.0498 23.8332 23.4806 24.4721 24.259 24.2461C24.4278 24.1973 24.4753 24.507 24.3776 24.6228C24.1586 24.8836 24.1404 25.2798 23.6912 25.4054C23.2267 25.5351 23.1583 26.1531 22.7649 26.4224C22.7468 26.2578 22.73 26.0918 22.7119 25.9257C22.9365 25.4835 23.5824 25.3468 23.5796 24.7455C23.5796 24.3689 23.6815 24.0145 23.768 23.656C23.8042 23.663 23.8391 23.6741 23.874 23.6867V23.6881Z" fill="#FBCA28"/>
<path d="M28.4482 12.9435C28.4022 12.9435 28.3631 12.9267 28.3311 12.8933C28.3534 12.5557 28.5836 12.4929 28.8626 12.4859C29.2769 12.4761 29.6926 12.4608 30.1069 12.4482C30.1195 12.4929 30.1251 12.5389 30.1223 12.585C29.9423 12.8319 29.7638 13.0788 29.5838 13.3257C29.2113 13.1806 29.0286 12.472 28.4482 12.9435Z" fill="#5AC277"/>
<path d="M33.3542 13.7427C33.1979 13.8041 33.1519 14.0971 32.9134 13.9729C32.7348 13.8794 32.7697 13.6786 32.8059 13.5404C32.9482 13.0075 32.6804 12.5793 32.4893 12.1287C33.2621 12.4077 33.17 13.1498 33.3542 13.7441V13.7427Z" fill="#5AC277"/>
<path d="M25.5507 21.9722C25.2327 22.0447 25.0764 22.2651 24.9746 22.5623C24.8853 22.819 24.7374 23.0464 24.4277 23.0896C24.7319 22.4688 24.75 21.6611 25.5494 21.3625C25.5619 21.3904 25.5619 21.4197 25.548 21.4476C25.548 21.6234 25.5494 21.7978 25.5507 21.9736V21.9722Z" fill="#E2B155"/>
<path d="M36.0352 20.7891C35.9696 20.8045 35.904 20.8198 35.8398 20.8351C35.8412 20.6524 35.8426 20.471 35.844 20.2883C36.0003 20.132 36.183 20.033 36.4062 20.019C36.4188 20.3413 36.1412 20.5227 36.0365 20.7891H36.0352Z" fill="#40AC5F"/>
<path d="M31.5746 11.9055C31.1672 11.9989 30.7599 12.091 30.3525 12.1845C30.7153 11.8985 31.1073 11.7381 31.5746 11.9055Z" fill="#5AC277"/>
<path d="M32.4569 12.0981C32.2434 12.0548 31.9951 12.1567 31.8193 11.9474C32.0635 11.8623 32.2811 11.893 32.4569 12.0981Z" fill="#5AC277"/>
<path d="M28.3057 12.903C28.2708 12.9504 28.2373 12.9978 28.2024 13.0466C28.1941 12.9671 28.2052 12.9043 28.3057 12.903Z" fill="#5AC277"/>
<path d="M25.9561 20.0498C26.037 20.0414 26.0872 20.0721 26.0928 20.1586C26.0467 20.1223 26.0007 20.0861 25.9561 20.0498Z" fill="#FBFAEE"/>
<path d="M25.8164 19.9187C25.8959 19.9117 25.9308 19.9494 25.928 20.0275C25.8903 19.9912 25.8541 19.9549 25.8164 19.9187Z" fill="#FBFAEE"/>
<path d="M33.623 13.9507C33.577 14.0121 33.5324 14.0121 33.4863 13.9507C33.531 13.9632 33.577 13.9632 33.623 13.9507Z" fill="#5AC277"/>
<path d="M25.821 43.7167C25.814 43.679 25.8098 43.6414 25.8085 43.6037C26.0358 42.9201 25.2853 42.6579 25.1528 42.1138C25.104 41.9143 24.9812 41.7134 24.9728 41.4846C25.3592 41.5586 25.5211 41.8864 25.7136 42.1626C26.0749 42.6816 26.4237 42.7067 27.0124 42.4026C27.4755 42.164 27.7252 41.6744 28.201 41.5C28.4046 41.4247 28.5999 41.4358 28.6111 41.147C28.6223 40.8471 28.579 40.55 28.2847 40.4425C27.7908 40.2626 27.5174 39.8985 27.2453 39.4814C26.7097 38.6597 26.1586 38.6318 25.3034 39.0949C24.8515 39.3405 24.6157 39.5455 24.6994 40.0575C24.7301 40.25 24.5976 40.3505 24.4134 40.3784C23.794 39.8413 22.9137 39.4855 23.0532 38.4197C23.4271 38.9805 23.5861 38.9917 24.0074 38.4909C24.1232 38.3542 24.2097 38.2091 24.4036 38.1254C24.7426 37.9803 24.8794 37.2758 24.6464 36.994C24.126 36.3648 23.6266 35.7022 23.3769 34.9321C23.169 34.2946 22.8928 34.4034 22.491 34.6545C22.491 34.3852 22.3948 34.2039 22.0879 34.2178C22.0725 34.1439 22.0558 34.07 22.0404 33.996C21.7447 32.7196 21.8856 31.4961 22.4743 30.3257C22.9974 30.2866 22.9709 30.7846 23.1899 31.0469C23.349 31.2366 23.1844 31.6733 23.515 31.6496C23.8889 31.6231 24.3311 31.5101 24.5948 31.2715C24.8263 31.0622 25.2002 30.687 24.7887 30.2545C24.7217 30.1834 24.7022 30.0355 24.7133 29.9281C24.7454 29.617 24.5376 29.1817 24.8361 29.0213C25.1974 28.8274 25.3648 29.271 25.5559 29.5054C25.8126 29.8221 26.1977 29.716 26.5102 29.8416C26.7571 29.9406 27.0668 29.9378 26.7738 30.3884C26.5269 30.7693 26.6706 31.2855 27.0486 31.5463C27.5732 31.9076 28.0224 32.2857 28.2874 32.887C28.5372 33.4548 28.9529 33.8007 29.6462 33.6835C30.0675 33.6124 30.3103 33.8049 30.281 34.2681C30.2573 34.6573 30.4651 34.8149 30.8362 34.7912C31.2784 35.8849 31.2715 35.8989 30.2796 35.9058C30.2335 35.5334 29.942 35.652 29.723 35.6268C29.7048 35.2795 29.4412 35.0088 29.2012 34.9419C28.6934 34.7996 28.42 34.4215 28.0419 34.1341C27.456 33.6891 27.018 33.1451 26.5967 32.5787C26.0484 31.8407 25.7792 31.7919 25.0551 32.414C24.8807 32.5647 24.698 32.707 24.5236 32.8563C23.84 33.4436 23.8275 34.1034 24.5264 34.6573C24.7691 34.8498 24.9435 35.0423 25.0635 35.3381C25.5253 36.4681 25.7694 36.5364 26.8812 35.9351C26.9426 35.9017 27.004 35.871 27.0682 35.8431C27.2663 35.7566 27.4923 35.6924 27.6611 35.8375C27.8773 36.023 27.6876 36.2337 27.583 36.3913C27.2063 36.9689 26.905 37.393 27.4992 38.1644C28.0126 38.8327 28.5902 39.3921 29.19 39.9487C29.3979 40.1412 29.6002 40.4007 29.9559 40.3714C30.1847 40.3533 30.4219 40.4593 30.38 40.709C30.3368 40.9601 30.3884 41.3033 30.0982 41.4456C29.0171 41.9785 28.4116 42.8853 28.0503 43.9929C27.3221 44.078 26.6734 43.5409 25.9326 43.7209C25.8935 43.7209 25.8559 43.7167 25.8168 43.7111L25.821 43.7167Z" fill="#F5A50B"/>
<path d="M30.8388 34.794C30.7272 34.3183 30.7077 33.8635 30.9002 33.3836C31.0815 32.9274 30.7844 32.7963 30.3854 32.8856C30.2124 32.9233 30.0632 33.0628 29.8916 33.1144C28.9555 33.399 28.629 33.1465 28.6123 32.1448C28.6918 32.1853 28.8216 32.2062 28.8425 32.2676C29.0308 32.7921 29.261 32.8912 29.8316 32.6415C30.2961 32.4378 30.4733 31.9481 30.9644 31.8156C31.5628 31.6538 31.4973 31.206 31.2643 30.7805C31.1834 30.6326 31.1164 30.5015 31.1178 30.3355C31.7707 30.2671 31.9158 30.0523 31.641 29.4803C31.514 29.2152 31.3452 28.9767 31.3954 28.6642C31.8056 28.7381 31.7247 29.4022 32.2325 29.3603C32.2896 29.8165 32.6551 30.0732 32.9997 30.1666C33.6554 30.3438 34.1771 30.5614 34.3055 31.3176C34.332 31.4724 34.5789 31.4459 34.7393 31.4515C34.7463 31.6314 34.8384 31.7235 35.0184 31.7291C35.0658 32.0988 35.356 31.983 35.575 32.0081H35.5764C35.582 32.1881 35.674 32.2815 35.854 32.2857H35.8554C35.8735 32.6219 35.7926 32.9679 36.0409 33.2692C36.1776 33.4352 36.2 33.6808 36.0605 33.844C35.8944 34.0393 35.6126 34.0142 35.4299 33.8984C35.2081 33.7575 35.0044 33.6487 34.7407 33.6794C34.3306 33.2399 34.113 32.5619 33.3499 32.5619C33.2857 32.1909 33.0751 31.9593 32.6914 32.029C32.2617 32.1058 31.973 32.442 31.9772 32.8423C31.9841 33.6571 31.6856 34.5485 32.4292 35.2376C32.5087 35.3116 32.4877 35.4957 32.5129 35.6296C32.5129 35.8152 32.5129 36.0007 32.5129 36.1877H32.5101C32.2073 36.1626 32.146 35.8822 32.0009 35.6952C31.6898 35.2948 31.3871 34.8875 30.8388 34.794Z" fill="#FCBE1F"/>
<path d="M32.2314 29.359C31.725 29.4008 31.8045 28.7368 31.3944 28.6629C31.3567 28.3294 31.1712 28.1439 30.8378 28.1048C30.9019 27.8356 30.9577 27.5636 31.0345 27.2985C31.1 27.0753 30.9954 26.9637 30.8015 26.9986C30.0189 27.1395 29.4413 26.7544 28.8861 26.2941C28.794 26.1546 28.7006 26.0151 28.6085 25.8756C28.5624 25.5505 28.4606 25.2813 28.0519 25.3161C28.0519 25.2701 28.0519 25.2241 28.0519 25.178C28.0002 24.6688 28.1202 24.2922 28.6894 24.1373C29.14 24.0146 29.5683 23.8095 30.0049 23.6421C30.2253 23.6658 30.4193 23.7425 30.5629 23.9211C30.6201 24.168 30.9912 24.1806 30.9801 24.4777C30.4499 24.4875 30.0412 23.8262 29.4455 24.2015C29.0116 24.182 28.681 24.4303 28.6475 24.8042C28.6015 25.3259 28.9977 25.6496 29.4441 25.8742C29.5069 26.2955 29.7761 26.4406 30.1723 26.4322C30.6048 26.4224 31.0387 26.4615 31.4627 26.3108C31.6022 26.262 31.7962 26.2494 31.8966 26.4154C31.9873 26.5647 31.9454 26.721 31.852 26.8674C31.7418 27.0404 31.6218 27.212 31.5437 27.4003C31.4418 27.6515 31.1684 27.957 31.6734 28.1034C31.6608 28.342 31.6999 28.5554 31.9524 28.6601C32.0445 28.893 32.1379 29.1246 32.23 29.3576L32.2314 29.359Z" fill="#FBCA28"/>
<path d="M25.5479 21.4462C25.725 21.3416 25.9022 21.237 26.0808 21.1309C26.4184 20.9496 26.7295 20.8882 26.9694 21.29C27.0475 21.4211 27.2052 21.403 27.3391 21.4197C28.3631 21.5718 29.387 21.4281 30.4124 21.4155C30.418 21.5076 30.4235 21.5983 30.4277 21.6904C30.3105 21.7462 30.2826 21.8508 30.2771 21.968C29.7679 22.0712 29.2963 22.3725 28.7453 22.2554C28.3296 22.2554 27.9152 22.254 27.4995 22.2526C27.1117 22.0112 26.6499 22.1061 26.2328 21.9819C26.0236 21.9205 25.7794 21.9722 25.552 21.9722C25.552 21.7964 25.5506 21.622 25.5492 21.4462H25.5479Z" fill="#F5A50B"/>
<path d="M31.1165 30.334C31.1165 30.5 31.1821 30.6312 31.263 30.779C31.4959 31.2031 31.5615 31.6509 30.963 31.8142C30.472 31.9467 30.2948 32.4377 29.8303 32.64C29.2597 32.8897 29.0295 32.7907 28.8412 32.2662C28.8188 32.2048 28.6905 32.1839 28.611 32.1434C28.611 32.0513 28.611 31.9579 28.6096 31.8658C28.6096 31.344 28.6054 30.8223 28.6096 30.3005C28.611 30.0815 28.5524 29.822 28.8858 29.776C28.9179 30.7679 29.1746 31.1125 30.126 31.4807C30.3185 31.5547 30.4776 31.8686 30.7091 31.6035C30.9268 31.3538 30.8947 31.0371 30.7454 30.7651C30.6436 30.5795 30.5389 30.4107 30.5627 30.1917C30.7342 30.288 30.9156 30.3536 31.1179 30.334H31.1165Z" fill="#FBCA28"/>
<path d="M30.0046 23.6421C29.5666 23.8109 29.1383 24.0146 28.6891 24.1373C28.1199 24.2922 27.9999 24.6702 28.0516 25.178C27.6777 25.1487 27.6442 24.8907 27.6289 24.5879C27.6107 24.1862 27.5661 23.8737 27.1294 23.5723C26.6607 23.2487 27.075 22.9348 27.4935 22.8051C27.5577 23.2319 27.8311 23.3687 28.2315 23.3645C28.6012 23.3603 28.6849 23.1176 28.7477 22.8288C28.7714 22.7228 28.837 22.6265 28.883 22.5247C29.342 22.8092 29.833 23.0618 30.0032 23.6393L30.0046 23.6421Z" fill="#FCBE1F"/>
<path d="M25.4056 28.102C24.5672 27.7295 24.4905 27.3264 25.1489 26.7586C25.7976 26.1992 26.6305 26.3024 27.1676 26.9846C27.3782 27.2524 27.6489 27.4742 27.8763 27.7309C28.2069 28.1034 28.105 28.4829 27.6391 28.6377C27.3141 28.7451 26.989 28.8777 26.6542 28.9251C26.3166 28.9739 25.9427 28.9781 25.8255 28.5205C25.965 28.5205 26.1045 28.5261 26.2441 28.5205C26.6723 28.5024 27.2011 28.6503 27.3964 28.1174C27.5749 27.6319 27.035 27.4784 26.7951 27.2106C26.0473 26.3777 26.0487 26.6791 25.4279 27.3152C25.1643 27.5845 25.481 27.8425 25.4084 28.102H25.4056Z" fill="#FCBE1F"/>
<path d="M22.4738 30.3285C21.8851 31.499 21.7442 32.7238 22.04 33.9989C21.8196 34.0031 21.7666 33.7938 21.6382 33.6808C21.4387 33.0768 21.3201 32.4532 21.5894 31.8561C22.0763 30.775 22.0079 29.6617 21.9061 28.5303C21.8377 27.7728 21.7735 27.0055 22.2297 26.3192C22.3901 26.188 22.5506 26.0569 22.7096 25.9258C22.7277 26.0904 22.7445 26.2564 22.7626 26.421C22.5185 26.5898 22.4473 26.8688 22.326 27.1158C22.0246 27.7087 22.2548 28.3336 22.2172 28.9433C22.1488 29.4329 22.6371 29.8194 22.4724 30.3258L22.4738 30.3285Z" fill="#E2B155"/>
<path d="M25.405 28.102C25.4776 27.8426 25.1623 27.5845 25.4245 27.3152C26.0453 26.6791 26.0439 26.3778 26.7917 27.2106C27.033 27.4785 27.5715 27.6319 27.393 28.1174C27.1977 28.6503 26.6675 28.5024 26.2406 28.5206C26.1011 28.5261 25.9616 28.5206 25.8221 28.5206C25.8514 28.2136 25.7119 28.0727 25.4036 28.102H25.405Z" fill="#FBCA28"/>
<path d="M30.5626 30.1918C30.5389 30.4108 30.6449 30.5796 30.7453 30.7651C30.8932 31.0372 30.9267 31.3539 30.7091 31.6036C30.4775 31.8686 30.3199 31.5561 30.1259 31.4808C29.1745 31.1125 28.9192 30.7679 28.8857 29.7761C29.1648 29.7761 29.4438 29.7747 29.7228 29.7747C29.9739 30.3899 30.1092 30.4443 30.4175 30.0537C30.4649 30.0997 30.5124 30.1457 30.5598 30.1918H30.5626Z" fill="#FCD73D"/>
<path d="M28.8871 29.776C28.5523 29.822 28.6122 30.0815 28.6109 30.3005C28.6067 30.8223 28.6109 31.344 28.6109 31.8658C28.2272 31.7026 27.9245 31.4096 27.9622 31.0036C28.0319 30.2517 27.9663 29.3268 28.8452 29.0157C29.4339 28.8065 29.9417 29.2501 30.2821 29.776C30.0966 29.776 29.911 29.776 29.7255 29.776C29.4465 29.3477 29.1675 29.3449 28.8885 29.776H28.8871Z" fill="#FCBE1F"/>
<path d="M24.3885 30.3954C24.3802 30.6856 24.1695 30.8153 23.9896 30.9479C23.7817 31.1013 23.5738 30.9897 23.4246 30.8432C23.0535 30.4805 23.0158 29.324 23.3688 28.9111C23.5417 28.7074 23.7147 28.554 23.917 28.9697C24.1444 29.437 24.0914 29.9783 24.3885 30.394V30.3954Z" fill="#FCBE1F"/>
<path d="M22.2188 28.946C22.2551 28.3364 22.0249 27.7114 22.3276 27.1185C22.4044 27.1701 22.4783 27.2246 22.5578 27.2706C22.8703 27.4533 23.353 27.4171 23.5023 27.7728C23.6641 28.1578 23.1298 28.3615 23.0726 28.6949C22.947 29.4287 22.5899 29.1637 22.2188 28.946Z" fill="#F5A50B"/>
<path d="M28.8857 26.294C29.4409 26.753 30.0185 27.138 30.8011 26.9985C30.995 26.9636 31.0982 27.0752 31.0341 27.2984C30.9573 27.5635 30.9015 27.8355 30.8374 28.1048C30.7006 28.0922 30.4481 28.0894 30.4454 28.0629C30.3644 27.2412 29.5176 27.2817 29.0963 26.8492C28.9387 26.686 28.8717 26.5102 28.8843 26.2926L28.8857 26.294Z" fill="#FCBE1F"/>
<path d="M28.8836 22.5273C28.8376 22.6278 28.772 22.7254 28.7483 22.8315C28.6841 23.1202 28.6004 23.363 28.2321 23.3672C27.8317 23.3713 27.5583 23.2346 27.4941 22.8077C27.4955 22.6222 27.4969 22.4381 27.4997 22.2539C27.9154 22.2539 28.3298 22.2553 28.7455 22.2567C28.7915 22.3474 28.839 22.4381 28.885 22.5287L28.8836 22.5273Z" fill="#FBCA28"/>
<path d="M24.9844 23.6643C25.2425 23.6713 25.2606 23.8526 25.2606 24.0452C25.2606 24.26 25.2564 24.4818 24.9523 24.4595C24.6914 24.44 24.7123 24.2307 24.7109 24.0493C24.7109 23.8596 24.7249 23.6741 24.983 23.6657L24.9844 23.6643Z" fill="#FBCA28"/>
<path d="M29.7256 29.7747C29.9111 29.7747 30.0967 29.7747 30.2822 29.7747C30.3282 29.8668 30.3757 29.9603 30.4217 30.0523C30.1134 30.4429 29.9781 30.3885 29.727 29.7733L29.7256 29.7747Z" fill="#FBCA28"/>
<path d="M28.0514 25.3161C28.4588 25.2812 28.562 25.549 28.6081 25.8755C28.177 25.9341 27.99 25.7485 28.0514 25.3161Z" fill="#FCBE1F"/>
<path d="M30.8375 28.1047C31.1709 28.1438 31.3564 28.3293 31.3941 28.6628C30.9951 28.6893 30.811 28.5037 30.8375 28.1047Z" fill="#FCBE1F"/>
<path d="M27.7628 17.801C27.5215 17.5527 27.2355 17.2067 26.8993 17.4285C26.6231 17.6113 26.6677 18.027 26.7151 18.3869C26.7556 18.6938 27.1504 19.0705 26.6245 19.3398C26.2004 17.6531 26.2924 17.19 27.3638 16.6501C27.9288 16.3655 28.3878 16.7868 28.7868 17.1746C28.5817 17.3867 28.5175 17.6252 28.8956 17.6252C29.342 17.6252 29.6182 17.8498 29.8749 18.147C30.0451 18.3451 30.2223 18.32 30.4176 18.2028C30.4664 18.2028 30.5152 18.2028 30.5641 18.2028C30.5543 18.6143 30.9561 18.6659 31.1751 18.864C31.4053 19.0747 31.6006 19.2588 31.542 19.5964C30.9114 19.1947 30.3813 18.5822 29.5345 18.6366C28.9598 18.3269 28.4534 17.8708 27.7642 17.801H27.7628Z" fill="#40AC5F"/>
<path d="M30.4106 21.4156C29.3866 21.4282 28.3627 21.5704 27.3387 21.4198C27.1462 21.0431 26.69 20.8813 26.5547 20.4586C27.1727 20.2019 27.767 19.835 28.4854 20.0275C29.2025 20.8618 30.2585 20.5939 31.1542 20.8464C31.1458 20.8911 31.1402 20.9357 31.1346 20.9803C30.8933 21.1254 30.6533 21.2719 30.412 21.417L30.4106 21.4156Z" fill="#548510"/>
<path d="M31.1532 20.845C30.2576 20.5925 29.2015 20.8604 28.4845 20.0261C28.9225 19.0649 28.3589 18.4288 27.7646 17.801C28.4524 17.8708 28.9588 18.327 29.535 18.6367C29.5782 18.8222 29.6675 18.9729 29.8475 19.0566C29.8405 19.5658 29.9967 19.9117 30.5673 20.0554C31.0458 20.1754 31.2174 20.499 31.1546 20.845H31.1532Z" fill="#1C8339"/>
<path d="M35.8445 20.2898C35.8445 20.4725 35.8417 20.6539 35.8403 20.8367C35.7133 21.0027 35.6199 21.1798 35.6478 21.3989C34.8665 21.8034 34.0755 22.0029 33.2274 21.5691C33.0739 21.4909 32.8674 21.516 32.6861 21.4937C32.5312 21.2928 32.3094 21.198 32.0848 21.1059C32.0485 21.0096 32.0123 20.9148 31.9746 20.8185C32.7098 20.8255 33.4436 20.8339 34.1788 20.8408C34.6057 20.8855 35.0102 20.8478 35.2865 20.4684C35.4371 20.2605 35.6492 20.3191 35.8459 20.2898H35.8445Z" fill="#548510"/>
<path d="M29.2852 15.3639C29.3619 15.1602 29.4749 14.9663 29.4442 14.7375C29.6897 14.5338 29.8502 14.1 30.2924 14.4208C30.3817 14.4766 30.4696 14.5338 30.5588 14.5896C30.6453 14.8128 30.7974 14.7863 31.0039 14.757C31.5898 14.6733 31.6484 14.9426 31.3763 15.3876C30.3035 15.9638 30.2938 15.9791 30.4975 17.1105C30.5198 17.2374 30.6356 17.4062 30.4347 17.4439C30.2394 17.4802 30.1571 17.303 30.1543 17.13C30.1459 16.692 30.1654 16.2525 30.1487 15.8145C30.1347 15.4504 30.051 15.1393 29.5781 15.4225C29.4888 15.4211 29.3982 15.4183 29.3089 15.4169L29.2866 15.3639H29.2852Z" fill="#40AC5F"/>
<path d="M29.285 15.3638L29.3073 15.4168C29.3785 15.5312 29.4873 15.5647 29.6142 15.5619C29.4357 16.0586 29.2418 16.1381 28.8832 15.9944C28.4075 15.8033 28.0769 15.5773 27.8802 15.0374C27.7672 14.7263 27.4184 14.3148 26.866 14.3789C26.6079 14.4096 26.6051 14.2841 26.9385 13.8865C27.5998 14.1515 28.3992 14.1766 28.7284 14.9983C28.8149 15.2132 29.0785 15.2704 29.285 15.3638Z" fill="#1C8339"/>
<path d="M31.9743 20.8171C32.0106 20.9134 32.0469 21.0082 32.0846 21.1045C31.7679 21.0626 31.4512 21.0194 31.1331 20.9775C31.1373 20.9329 31.1443 20.8883 31.1527 20.8436C31.2154 20.4977 31.0439 20.174 30.5653 20.054C29.9962 19.9117 29.8399 19.5658 29.8469 19.0552C30.0938 19.1166 30.2752 19.2909 30.4844 19.4179C30.8137 19.6188 31.1303 19.9145 31.574 19.7164C31.7037 19.7206 31.8321 19.7234 31.9618 19.7276C31.966 20.0903 31.9702 20.453 31.9743 20.8171Z" fill="#40AC5F"/>
<path d="M32.6438 19.7108C32.4722 19.503 32.6159 19.2979 32.5726 19.097C32.4164 18.3841 32.8028 18.0019 33.4738 18.14C33.6705 18.1805 33.6203 18.3437 33.6036 18.4734C33.5282 19.0761 33.1362 19.4235 32.6452 19.7094L32.6438 19.7108Z" fill="#1C8339"/>
<path d="M31.9605 19.7289C31.8308 19.7248 31.7024 19.722 31.5727 19.7178C31.5587 19.6787 31.549 19.6383 31.5406 19.5964C31.5992 19.2602 31.4039 19.0747 31.1737 18.864C30.9547 18.6659 30.5529 18.6143 30.5627 18.2028C31.722 18.2223 31.867 18.3799 31.9605 19.7275V19.7289Z" fill="#1C8339"/>
<path d="M25.4539 17.0881C25.4539 17.0881 25.5055 17.07 25.5042 17.07C25.5641 17.2039 25.6241 17.3365 25.6869 17.4774C24.9531 17.3225 24.4872 16.8245 24.4258 16.1465C24.8122 16.2762 25.1498 16.4757 25.4023 16.8049C25.2405 16.9319 25.2684 17.024 25.4525 17.0867L25.4539 17.0881Z" fill="#1C8339"/>
<path d="M30.4165 18.2042C30.2212 18.3214 30.0454 18.3465 29.8738 18.1484C29.6171 17.8512 29.3409 17.628 28.8945 17.6266C28.5164 17.6266 28.5806 17.3881 28.7857 17.176C29.5306 17.1983 29.9226 17.7815 30.4151 18.2042H30.4165Z" fill="#5AC277"/>
<path d="M26.463 20.4572C26.615 20.8799 27.1228 21.0431 27.3377 21.4184C27.1884 21.4016 27.0126 21.4184 26.9261 21.2886C26.6583 20.8868 26.3123 20.9496 25.9357 21.1296C25.9301 20.852 26.1407 20.6455 26.2356 20.4014C26.3109 20.4195 26.3877 20.4376 26.463 20.4558V20.4572Z" fill="#E2B155"/>
<path d="M29.6145 15.562C29.4876 15.5647 29.3788 15.5313 29.3076 15.4169C29.3969 15.4183 29.4876 15.4211 29.5769 15.4225C29.5894 15.4685 29.602 15.5159 29.6145 15.562Z" fill="#5AC277"/>
<path d="M30.5582 14.5881C30.4689 14.5323 30.381 14.4751 30.2918 14.4193C30.1467 13.9255 29.9681 13.433 30.2792 12.9364C30.3671 12.9211 30.4536 12.9043 30.5415 12.8876C30.8107 13.0382 30.8986 13.2154 30.6377 13.4609C30.508 13.5823 30.4034 13.7176 30.7047 13.7469C30.7047 14.0245 30.7047 14.3022 30.7047 14.5798L30.5596 14.5881H30.5582Z" fill="#155D23"/>
<path d="M32.7734 14.3148C33.2701 13.8921 33.3524 14.4571 33.5728 14.6719C34.1322 14.0874 34.4238 14.0665 34.6009 14.5812L34.5982 14.584C34.3178 14.5171 34.1866 14.7333 34.022 14.8867C33.5365 14.8477 32.9673 14.9914 32.7734 14.3148Z" fill="#5AC277"/>
<path d="M34.0234 14.8853C34.1881 14.7319 34.3192 14.5156 34.5996 14.5826C34.6958 15.1057 34.8186 15.6261 34.6749 16.1618C34.2522 15.8409 34.0653 15.4001 34.0234 14.8853Z" fill="#40AC5F"/>
<path d="M31.2295 12.5096C31.5057 12.2529 31.8503 12.271 32.1265 12.4217C32.4237 12.5835 32.0623 12.8835 31.5894 12.8137C31.475 12.797 31.3606 12.79 31.2462 12.7788C31.2407 12.6882 31.2365 12.5989 31.2309 12.5082L31.2295 12.5096Z" fill="#5AC277"/>
<path d="M30.7041 14.5798C30.7041 14.3022 30.7041 14.0246 30.7041 13.7469C31.2635 14.026 30.8785 14.3036 30.7041 14.5798Z" fill="#40AC5F"/>
<path d="M34.7547 44.0014C34.7282 44.0642 34.7156 44.1716 34.6751 44.1841C33.1908 44.6431 31.6688 44.6082 30.144 44.5064C30.091 44.5022 30.0464 44.3711 29.9975 44.2985C30.0045 44.1967 29.8483 44.0921 30.0059 43.9958H32.4947C32.3329 43.6735 32.178 43.7224 32.0511 43.7224C31.5684 43.7224 31.1052 43.7768 30.7983 43.2257C30.6323 42.9286 30.3128 42.9105 30.2849 43.389C30.2682 43.6805 30.0938 43.7238 29.8636 43.7168C29.4256 43.3429 29.321 42.8533 29.6404 42.411C30.0003 41.9144 30.437 42.2924 30.7913 42.5059C31.0829 42.6817 31.2559 43.0193 31.5767 43.1797C31.8516 43.3178 32.0971 43.2536 32.0566 42.9509C31.9897 42.4529 31.8641 41.86 31.4735 41.588C31.0383 41.2838 31.108 41.0341 31.2294 40.6672C31.3089 40.4273 31.3438 40.1706 31.4261 39.932C31.5126 39.6767 31.6158 39.3726 31.2684 39.3084C30.9476 39.2485 30.5012 39.0308 30.2975 39.5065C30.0994 39.9711 29.8204 39.84 29.526 39.6767C28.7532 39.2471 28.5146 38.378 28.1101 37.7027C27.6748 36.9787 28.8187 35.652 29.7255 35.6311C29.7702 36.005 30.0631 35.885 30.2821 35.9101C30.5988 36.3844 31.0829 36.6913 31.5237 37.0108C31.8153 37.2215 32.0706 37.8102 32.4138 37.5814C32.7025 37.3889 32.4752 36.8057 32.51 36.3984C32.5156 36.33 32.51 36.2603 32.51 36.1905C32.51 36.1905 32.5128 36.1891 32.5114 36.1891C33.3875 36.2603 33.9818 36.7192 34.1869 37.506C34.2371 37.7014 34.3808 37.8116 34.484 37.9594C34.8384 38.4644 35.4034 38.8509 35.547 39.4633C35.7089 40.1552 36.0562 40.5291 36.7496 40.6714C37.1611 40.7551 37.3299 40.9978 37.136 41.4903C36.9295 42.0106 36.6031 42.1069 36.133 42.0455C35.9544 42.0385 35.8609 41.9465 35.8553 41.7665C35.7772 41.069 35.3099 40.6798 34.7435 40.3687C34.7686 39.7688 34.3445 39.5065 33.9065 39.2554C33.4266 38.4784 32.9788 38.4338 32.6942 39.261C32.2938 40.4245 32.4863 41.6661 32.6091 42.877C32.6133 42.916 32.6635 42.9495 32.6928 42.9858C33.2145 43.6624 33.9204 43.9665 34.7574 44.0014H34.7547ZM29.4632 36.2338C29.3126 36.2449 29.2624 36.3537 29.1814 36.4333C28.7127 36.888 29.1215 37.2842 29.2944 37.6567C29.4814 38.0613 29.692 38.5384 30.2556 38.5314C31.0327 38.523 31.4442 37.8297 30.949 37.2731C30.6811 36.9731 30.3128 36.6844 29.9376 36.4626C29.7827 36.3705 29.6111 36.3049 29.4632 36.2338Z" fill="#FCBE1F"/>
<path d="M30.0043 43.9944C29.8466 44.0906 30.0043 44.1966 29.9959 44.2971C29.3165 44.4101 28.7083 44.0474 28.054 43.9985C28.4153 42.8909 29.0194 41.9855 30.1019 41.4512C30.3921 41.3089 30.3405 40.9657 30.3837 40.7146C30.427 40.4649 30.1898 40.3589 29.9596 40.377C29.6025 40.4063 29.4002 40.1468 29.1938 39.9543C28.5939 39.3977 28.0177 38.8383 27.503 38.17C26.9087 37.3972 27.21 36.9745 27.5867 36.3969C27.6899 36.2379 27.881 36.0287 27.6648 35.8431C27.496 35.698 27.27 35.7622 27.0719 35.8487C27.0077 35.8766 26.9463 35.9073 26.885 35.9408C25.7731 36.542 25.529 36.4737 25.0672 35.3437C24.9458 35.0479 24.7729 34.8554 24.5301 34.6629C23.8312 34.1077 23.8424 33.4492 24.5273 32.8619C24.7017 32.7112 24.8845 32.5689 25.0588 32.4197C25.7829 31.7975 26.0521 31.8463 26.6004 32.5843C27.0217 33.1507 27.4611 33.6947 28.0456 34.1398C28.4237 34.4271 28.6971 34.8038 29.2049 34.9475C29.4435 35.0145 29.7085 35.2837 29.7267 35.6325C28.8199 35.6534 27.6773 36.9801 28.1112 37.7041C28.5158 38.3793 28.7543 39.2484 29.5272 39.6781C29.8215 39.8413 30.1005 39.9724 30.2986 39.5079C30.5023 39.0322 30.9487 39.2498 31.2696 39.3098C31.617 39.3754 31.5137 39.6781 31.4272 39.9334C31.3463 40.1733 31.3114 40.4286 31.2305 40.6686C31.1092 41.0341 31.0394 41.2838 31.4747 41.5893C31.8653 41.8613 31.9894 42.4542 32.0578 42.9523C32.0982 43.255 31.8527 43.3192 31.5779 43.1811C31.257 43.0192 31.0841 42.683 30.7925 42.5072C30.4381 42.2938 30.0015 41.9157 29.6416 42.4124C29.3207 42.8546 29.4267 43.3443 29.8648 43.7181C29.9122 43.8116 29.9596 43.9037 30.0057 43.9972L30.0043 43.9944ZM25.1258 33.6808C25.1272 34.6852 25.7843 35.1665 26.712 34.8443C27.4709 34.5806 27.5058 34.4634 27.0161 33.8301C26.8473 33.6124 26.6743 33.3962 26.5097 33.1758C26.2935 32.887 26.1275 32.4894 25.6573 32.6582C25.1858 32.8284 25.1133 33.2413 25.1258 33.6808Z" fill="#F9B115"/>
<path d="M36.1315 42.044C36.6016 42.1054 36.928 42.0092 37.1345 41.4888C37.3298 40.9964 37.161 40.7536 36.7481 40.6699C36.0547 40.529 35.7074 40.1538 35.5455 39.4618C35.4019 38.8494 34.8369 38.4616 34.4825 37.958C34.3779 37.8101 34.2356 37.6999 34.1854 37.5046C33.9817 36.7164 33.386 36.2574 32.5099 36.1876C32.5099 36.0021 32.5099 35.8166 32.5099 35.6296C33.0972 35.8514 33.6692 36.0886 34.2844 35.6589C34.5941 35.4427 35.0447 35.3199 35.3014 35.6408C35.5107 35.9031 35.2875 36.2937 35.1521 36.6062C35.0768 36.7805 34.9485 36.92 34.7713 36.994C34.2049 37.2325 34.4435 37.5506 34.7434 37.7626C35.3921 38.2202 35.7534 38.8843 36.1077 39.5469C36.5388 40.3532 36.762 40.4593 37.6032 40.144C37.7483 40.0896 37.9213 40.1063 38.0803 40.091C38.0859 40.2835 38.0901 40.476 38.0957 40.6685C38.0929 40.755 38.0915 40.8415 38.0887 40.928C37.3493 41.0884 37.5725 41.592 37.6869 42.0566C37.6869 42.1905 37.6897 42.3258 37.6897 42.4598C37.101 42.8867 36.6323 43.4614 36.0547 43.8771C35.7492 44.0976 35.194 43.9706 34.7518 43.9999C33.9147 43.965 33.2088 43.6609 32.6871 42.9843C32.6592 42.948 32.6076 42.9146 32.6034 42.8755C32.482 41.6646 32.2881 40.423 32.6885 39.2595C32.9731 38.4323 33.4223 38.4769 33.9008 39.254L33.898 39.2567C33.2284 39.1368 32.9563 39.413 33.061 40.084C33.0861 40.243 33.0512 40.4104 33.0693 40.5695C33.1335 41.147 33.379 41.5349 34.0417 41.486C34.2719 41.4693 34.5048 41.4832 34.7364 41.4832C34.7001 41.818 35.1814 42.0719 34.8941 42.443C34.6848 42.7123 34.6095 43.0429 34.8843 43.2312C35.1996 43.4475 35.4995 43.2089 35.7102 42.9383C35.9152 42.6732 36.218 42.4472 36.1287 42.0427L36.1315 42.044Z" fill="#FBCA28"/>
<path d="M38.4884 24.7637C39.098 25.4068 39.1929 26.3582 39.8681 26.9846C40.2308 27.3222 40.3396 27.8677 40.3243 28.3936C40.1234 28.4285 40.0355 28.1174 39.8402 28.2178C39.7398 28.2695 39.737 28.4494 39.8151 28.5317C40.1527 28.8847 39.9964 29.3185 40.0369 29.7203C40.0606 29.9519 39.9253 30.2602 40.3089 30.3355L40.3117 30.3397C40.3117 30.5252 40.3103 30.7094 40.3089 30.8949C39.6588 31.2437 39.2348 31.0805 39.278 30.3481C39.324 29.5543 38.8874 29.5417 38.3642 29.4971C38.3503 29.2153 38.148 29.2167 37.9457 29.2195C37.8997 29.2195 37.8537 29.2195 37.8076 29.2181C37.6821 28.8024 37.3989 28.6224 36.972 28.6615C36.9022 28.289 37.1868 27.7951 36.6218 27.5929C36.2786 27.4715 35.9271 27.3738 35.5797 27.2664C35.5532 26.3582 34.6478 25.8295 34.5795 24.9241C34.5627 24.6953 34.2265 24.7874 34.0284 24.7567C33.7829 24.7177 33.4383 24.9074 33.3477 24.4819C34.5376 24.4721 34.6785 24.3884 34.7441 23.6435C35.1026 23.603 35.4249 23.6798 35.7151 23.9113C35.8155 23.9922 35.9522 24.0732 36.0973 23.9853C36.2786 23.8765 36.1963 23.723 36.1852 23.5612C36.1489 23.0325 36.1503 22.5009 36.1364 21.9694C36.3163 21.9666 36.4126 22.0545 36.4237 22.2359C36.5995 22.7451 36.7139 23.271 36.9036 23.7816C37.2008 24.581 37.5356 25.118 38.4912 24.7665L38.4884 24.7637ZM35.2951 25.2771C35.3161 26.0081 35.8225 26.7335 36.1991 26.6972C36.7878 26.6414 36.5228 26.0332 36.7613 25.7235C36.912 25.5282 36.1182 24.7316 35.828 24.7679C35.4333 24.8181 35.2924 25.086 35.2951 25.2757V25.2771ZM38.0908 27.2901C37.8481 27.4394 37.5174 27.5259 37.5244 27.9472C37.5328 28.4076 38.2624 29.0674 38.766 29.0311C39.0673 29.0088 39.2096 28.8358 39.1999 28.5234C39.1887 28.1579 38.4396 27.2859 38.0894 27.2901H38.0908Z" fill="#FCD73D"/>
<path d="M38.4884 24.7636C37.5328 25.1166 37.1993 24.5795 36.9008 23.7787C36.7111 23.2682 36.5981 22.7422 36.4209 22.233C37.5467 22.4716 38.1842 23.0463 38.3642 24.2349C38.3907 24.4135 38.4451 24.5879 38.487 24.7636H38.4884Z" fill="#FCE04B"/>
<path d="M36.1346 21.968C36.1471 22.4981 36.1457 23.031 36.1834 23.5597C36.1945 23.7229 36.2755 23.875 36.0955 23.9838C35.9504 24.0717 35.8137 23.9894 35.7133 23.9099C35.4245 23.6783 35.1022 23.6016 34.7423 23.642C34.7549 23.3602 34.7479 23.1272 34.3712 23.0477C34.1466 23.0003 33.9499 22.8008 33.9053 22.5274C34.7353 22.5762 35.458 22.413 35.836 21.5592C35.9365 21.6959 36.0369 21.8312 36.136 21.968H36.1346Z" fill="#FCD12F"/>
<path d="M35.8344 21.5592C35.4563 22.413 34.7337 22.5762 33.9036 22.5274C33.8436 22.4158 33.739 22.3921 33.6246 22.3893C33.5646 22.2763 33.46 22.2512 33.3442 22.2512C33.2521 22.2512 33.1615 22.2512 33.0694 22.2512C32.8769 22.2289 32.6565 22.3126 32.51 22.1089C32.4849 21.8801 32.5783 21.6848 32.6844 21.4923C32.8657 21.5146 33.0722 21.4895 33.2256 21.569C34.0738 22.0029 34.8648 21.8034 35.646 21.3988C35.7074 21.4518 35.7702 21.5062 35.833 21.5592H35.8344Z" fill="#FBCA28"/>
<path d="M40.3085 30.3354C39.9249 30.2601 40.0602 29.9518 40.0365 29.7202C39.9946 29.3184 40.1522 28.8846 39.8146 28.5316C39.7351 28.4493 39.7379 28.2694 39.8398 28.2177C40.0365 28.1173 40.1243 28.4298 40.3238 28.3935C40.3197 29.0408 40.3141 29.6881 40.3099 30.3354H40.3085Z" fill="#FCE04B"/>
<path d="M40.3086 30.8948C40.3086 30.7093 40.31 30.5251 40.3114 30.3396C40.3951 30.348 40.4788 30.3549 40.5625 30.3633C40.5723 30.7525 40.5862 31.1418 40.5904 31.531C40.5918 31.7332 40.6183 31.9606 40.3337 32.0164C40.3253 31.6426 40.317 31.2687 40.31 30.8962L40.3086 30.8948Z" fill="#FCE04B"/>
<path d="M24.4135 40.3812C24.5976 40.3519 24.7302 40.2529 24.6995 40.0604C24.6158 39.5484 24.8515 39.3433 25.3035 39.0978C26.1587 38.6346 26.7097 38.6625 27.2454 39.4842C27.5175 39.9013 27.7909 40.2655 28.2847 40.4454C28.5791 40.5528 28.6223 40.85 28.6112 41.1499C28.6 41.4387 28.4047 41.4289 28.201 41.5029C27.7253 41.6772 27.4756 42.1669 27.0124 42.4055C26.4237 42.7096 26.075 42.6845 25.7137 42.1655C25.5211 41.8893 25.3579 41.5601 24.9729 41.4875C24.8641 41.0802 24.3326 40.8862 24.4149 40.3826L24.4135 40.3812Z" fill="#F9B115"/>
<path d="M22.4912 34.6588C22.893 34.4063 23.1692 34.2988 23.377 34.9364C23.6281 35.7051 24.1276 36.3691 24.6465 36.9983C24.8795 37.2801 24.7428 37.9846 24.4038 38.1296C24.2113 38.212 24.1234 38.357 24.0076 38.4951C23.5863 38.996 23.4273 38.9848 23.0534 38.424C23.0436 37.2996 23.1496 36.1598 22.5121 35.1331C22.4396 35.0159 22.4954 34.8192 22.4912 34.6602V34.6588Z" fill="#F9B115"/>
<path d="M40.0466 33.2665C39.8415 34.3155 40.0257 35.366 40.0313 36.4151C40.0313 36.6439 40.1499 36.9536 39.7648 37.0261C39.6965 36.7122 39.2096 36.8182 39.1929 36.4081C39.1594 35.5641 38.8525 34.9307 37.9052 34.7285C37.5788 34.6587 37.0598 34.3211 37.0598 34.1063C37.0598 33.4632 36.6106 33.0781 36.4125 32.5633C36.3665 32.3778 36.3205 32.1909 36.2744 32.0053C36.4321 32.0346 36.5897 32.0848 36.7487 32.0876C37.1421 32.0932 37.463 31.93 37.6974 31.6119C37.9666 31.2436 37.5551 31.0972 37.4532 30.846C37.3333 30.5517 36.8882 30.4638 36.9719 30.0551C37.4965 30.129 37.6541 30.694 38.0866 30.8907C38.0866 31.1683 38.0517 31.4487 38.48 31.4529C39.2012 31.4599 39.43 31.9384 39.4802 32.5647C38.7381 32.3904 38.5121 32.8842 38.3879 33.4478C38.2721 33.9709 38.586 34.2527 39.038 34.4313C39.3338 34.5485 39.4774 34.4704 39.4802 34.1495C39.483 33.7589 39.483 33.3683 39.4844 32.9791C39.6727 33.0753 39.8611 33.1702 40.0494 33.2665H40.0466Z" fill="#FCD73D"/>
<path d="M36.4125 32.5647C36.6106 33.0795 37.0612 33.4645 37.0598 34.1076C37.0598 34.3225 37.5787 34.6587 37.9052 34.7298C38.8524 34.9321 39.1593 35.5669 39.1928 36.4095C39.2095 36.8196 39.695 36.7136 39.7648 37.0275C39.6699 37.2186 39.5737 37.4097 39.4788 37.6008C39.0924 37.5855 39.2779 38.3012 38.7827 38.1463C38.7269 37.4292 38.1423 37.0205 37.8061 36.4667C37.8019 36.2867 37.7085 36.1932 37.5285 36.1863C37.4532 35.2809 36.7571 34.5834 36.1656 34.8875C35.7484 35.1023 35.6452 34.9837 35.5406 34.6196C35.4876 34.4383 35.3313 34.3197 35.1569 34.2374C35.1109 34.2374 35.0649 34.2374 35.0188 34.2374C35.0146 34.056 34.9212 33.964 34.7412 33.9584C34.7412 33.8649 34.7412 33.7728 34.7412 33.6794C35.0049 33.6487 35.2086 33.7589 35.4304 33.8984C35.6131 34.0142 35.8963 34.0393 36.0609 33.844C36.199 33.6808 36.1781 33.4352 36.0414 33.2692C35.7917 32.9679 35.874 32.6219 35.8559 32.2871C36.0414 32.3792 36.2269 32.4713 36.4139 32.5647H36.4125Z" fill="#FBCA28"/>
<path d="M40.0465 33.2664C39.8582 33.1702 39.6699 33.0753 39.4815 32.9804C39.4815 32.8423 39.4787 32.7042 39.4773 32.5661C39.4271 31.9397 39.1983 31.4612 38.4771 31.4543C38.0488 31.4501 38.0837 31.1711 38.0837 30.8921C38.6026 30.9186 38.7282 30.5698 38.7714 30.1569C38.8049 29.8374 38.3557 29.8081 38.3627 29.4984C38.8858 29.5431 39.3225 29.5542 39.2765 30.3494C39.2332 31.0818 39.6573 31.245 40.3074 30.8962C40.3158 31.2701 40.3241 31.644 40.3311 32.0165C40.2572 32.4378 40.465 32.9246 40.0437 33.2664H40.0465Z" fill="#FCD12F"/>
<path d="M38.7826 38.1463C39.2792 38.3011 39.0923 37.5855 39.4787 37.6008C39.6308 38.177 39.0463 38.6262 39.2011 39.2023C39.1704 39.24 39.1313 39.2623 39.0839 39.2693C38.9416 39.2651 38.7979 39.2623 38.6556 39.2581C38.3208 38.8438 38.8105 38.5244 38.7826 38.1449V38.1463Z" fill="#FCE04B"/>
<path d="M28.4482 12.9434C29.0286 12.4719 29.2113 13.1805 29.5838 13.3256C29.5238 13.5935 29.4862 13.9394 29.1165 13.8739C28.6352 13.7888 28.5208 13.3633 28.4482 12.9434Z" fill="#40AC5F"/>
<path d="M25.4544 17.0881C25.2689 17.0239 25.241 16.9318 25.4042 16.8063C25.4209 16.8997 25.4377 16.9946 25.4544 17.0881Z" fill="#155D23"/>
<path d="M38.6557 39.2595C38.798 39.2623 38.9417 39.2665 39.084 39.2693C38.9654 39.5204 38.9877 39.8482 38.6836 39.9975C38.6682 39.9794 38.6515 39.9612 38.6348 39.9445C38.6417 39.7157 38.6487 39.4883 38.6557 39.2595Z" fill="#EFDA82"/>
<path d="M32.5101 36.1891C32.5101 36.2589 32.5157 36.3272 32.5101 36.397C32.4752 36.8057 32.7026 37.3875 32.4139 37.58C32.0707 37.8088 31.8154 37.2201 31.5238 37.0094C31.083 36.6899 30.5989 36.383 30.2822 35.9087C31.2741 35.9017 31.2825 35.8864 30.8388 34.7941C31.3871 34.8875 31.6884 35.2935 32.0009 35.6953C32.146 35.8822 32.2074 36.1626 32.5101 36.1891Z" fill="#F9B115"/>
<path d="M30.2812 35.9086C30.0622 35.8835 29.7693 36.0035 29.7246 35.6296C29.9436 35.6547 30.2352 35.5362 30.2812 35.9086Z" fill="#F9B115"/>
<path d="M35.1567 34.2388C35.3311 34.3211 35.4873 34.4397 35.5404 34.6211C35.645 34.9852 35.7482 35.1038 36.1653 34.8889C36.7582 34.5848 37.4544 35.2823 37.5283 36.1877C37.4348 36.1877 37.3428 36.1877 37.2493 36.1877C37.2451 36.0064 37.153 35.9143 36.9717 35.9087C36.9396 35.7064 37.0638 35.4204 36.7261 35.373C36.4583 35.3353 36.323 35.5599 36.2058 35.7343C36.1291 35.8487 36.1556 36.0343 36.136 36.1877C36.136 36.2337 36.136 36.2798 36.136 36.3272C36.0593 36.3705 35.9379 36.3956 35.9128 36.4583C35.6324 37.1656 35.8905 37.9971 36.5392 38.4561C36.8099 38.6472 37.1419 38.8118 36.8726 39.2052C36.4736 39.7855 36.8378 39.7869 37.2758 39.8232C37.5548 39.8469 37.951 39.607 38.0863 40.091C37.9259 40.1064 37.7543 40.091 37.6092 40.1441C36.7666 40.4593 36.5434 40.3533 36.1137 39.547C35.7594 38.8829 35.3981 38.2203 34.7494 37.7627C34.4494 37.5507 34.2109 37.2326 34.7773 36.994C34.9544 36.9201 35.0828 36.7806 35.1581 36.6062C35.2934 36.2937 35.5166 35.9031 35.3074 35.6409C35.0507 35.32 34.5987 35.4428 34.2904 35.659C33.6752 36.0887 33.1032 35.8529 32.5159 35.6297C32.4908 35.4972 32.5117 35.313 32.4322 35.2377C31.6886 34.5485 31.9872 33.6571 31.9802 32.8424C31.9774 32.442 32.2662 32.1058 32.6945 32.0291C33.0781 31.9607 33.2888 32.1909 33.3529 32.562C33.0223 32.6317 32.4894 32.3388 32.5145 33.0391C32.5243 33.3167 32.4448 33.6222 32.534 33.8664C32.6791 34.2612 32.7098 34.8164 33.3529 34.7913C33.6305 34.7913 33.9082 34.7913 34.1858 34.7913C34.5624 34.6978 35.2223 35.1038 35.1623 34.2374L35.1567 34.2388Z" fill="#FCD12F"/>
<path d="M36.4127 32.5648C36.2271 32.4727 36.0416 32.3806 35.8547 32.2871L35.8533 32.2858C35.8505 32.1044 35.757 32.0109 35.5756 32.0081C35.531 31.6329 35.238 31.7556 35.019 31.7291C34.8391 31.7235 34.7456 31.6301 34.74 31.4515C34.6354 31.0721 34.2155 30.7986 34.394 30.3215C34.5935 29.7886 34.2378 29.6575 33.8263 29.6463C33.278 29.631 32.7242 29.6826 32.2317 29.3603C32.1396 29.1274 32.0462 28.8958 31.9541 28.6628C32.4159 28.6796 32.5609 29.2655 33.0911 29.2432C33.4468 29.2278 33.6616 28.9 33.9853 28.9516C34.7023 29.0646 34.8098 28.6726 34.74 28.1048C35.3943 28.2025 35.6747 27.9262 35.5756 27.2692C35.923 27.3752 36.2746 27.4714 36.6177 27.5942C37.1827 27.7951 36.8981 28.2903 36.9679 28.6614C36.1532 28.6893 36.1364 28.7228 36.5494 29.4984C36.4406 29.4789 36.3178 29.4873 36.2243 29.4371C35.5533 29.0827 35.4278 29.1441 35.298 29.917C35.298 30.1695 35.2883 30.4234 35.298 30.6759C35.3092 30.9409 35.2032 31.2743 35.538 31.4027C35.8616 31.5255 36.0235 31.81 36.2718 32.0053C36.3178 32.1909 36.3638 32.3778 36.4099 32.5634L36.4127 32.5648Z" fill="#FCD12F"/>
<path d="M35.1571 34.2388C35.2171 35.1051 34.5572 34.6991 34.1806 34.7926C34.1582 34.3225 34.2643 33.8495 33.9239 33.4115C33.6504 33.0599 33.3198 33.039 33.0185 33.1911C32.6572 33.3738 32.7506 33.7142 32.9236 34.0225C33.0673 34.2778 33.3156 34.4773 33.3477 34.794C32.7046 34.8191 32.6739 34.2625 32.5288 33.8691C32.4381 33.6235 32.5191 33.3194 32.5093 33.0418C32.4842 32.3415 33.0185 32.6345 33.3477 32.5647C34.1108 32.5647 34.3298 33.2413 34.7386 33.6821C34.7386 33.7756 34.7386 33.8677 34.7386 33.9611C34.7428 34.1425 34.8348 34.2346 35.0162 34.2401C35.0622 34.2401 35.1083 34.2401 35.1543 34.2401L35.1571 34.2388Z" fill="#FCD73D"/>
<path d="M32.2314 29.3589C32.7225 29.6811 33.2763 29.6295 33.826 29.6449C34.2375 29.656 34.5933 29.7872 34.3938 30.3201C34.2152 30.7986 34.6351 31.072 34.7397 31.4501C34.5793 31.4445 34.3324 31.471 34.3059 31.3161C34.1775 30.56 33.6544 30.341 33.0001 30.1652C32.6541 30.0718 32.29 29.8165 32.2328 29.3589H32.2314Z" fill="#FBCA28"/>
<path d="M35.0186 31.7291C35.2376 31.7542 35.5305 31.6329 35.5752 32.0081C35.3562 31.983 35.066 32.0988 35.0186 31.7291Z" fill="#FBCA28"/>
<path d="M35.5752 32.0082C35.7566 32.011 35.85 32.103 35.8528 32.2858C35.6728 32.2802 35.5808 32.1881 35.5752 32.0082Z" fill="#FBCA28"/>
<path d="M29.4452 24.2C30.0409 23.8248 30.4496 24.4874 30.9797 24.4763C31.0258 24.4763 31.0704 24.479 31.1165 24.479C31.122 24.659 31.2155 24.7525 31.3969 24.7567C31.408 24.9603 31.3648 25.171 31.5559 25.3314C31.6773 25.4333 31.8084 25.5811 31.7359 25.7444C31.641 25.9592 31.4122 25.8629 31.242 25.8657C30.6435 25.8769 30.0451 25.8713 29.4466 25.8713C29.208 25.3133 28.9597 24.7553 29.4466 24.1986L29.4452 24.2Z" fill="#FCD73D"/>
<path d="M29.4453 25.8741C30.0438 25.8741 30.6423 25.8797 31.2407 25.8685C31.4109 25.8657 31.6397 25.9606 31.7346 25.7472C31.8071 25.5839 31.6746 25.4361 31.5546 25.3342C31.3635 25.1738 31.4067 24.9631 31.3956 24.7609C31.8141 25.1319 32.2326 25.5044 32.6497 25.8755C32.6539 26.1657 32.9162 26.1461 33.085 26.2312C33.431 26.407 33.7881 26.5674 33.9039 26.9901C33.7183 26.9901 33.5328 26.9901 33.3487 26.9901C33.2929 26.6609 33.0222 26.5089 32.7641 26.4991C32.5033 26.4893 32.5186 26.7809 32.5116 26.9901C31.9132 27.1213 31.8364 27.6444 31.6774 28.1048C31.1738 27.9583 31.4458 27.6528 31.5476 27.4017C31.6244 27.2134 31.7443 27.0418 31.856 26.8688C31.9494 26.7223 31.9913 26.5674 31.9006 26.4168C31.8002 26.2508 31.6062 26.2633 31.4667 26.3122C31.0426 26.4628 30.6088 26.4238 30.1763 26.4335C29.7815 26.4419 29.5109 26.2968 29.4481 25.8755L29.4453 25.8741Z" fill="#FCD12F"/>
<path d="M32.6496 25.8742C32.2311 25.5031 31.8125 25.1306 31.3954 24.7595V24.7581C31.3912 24.5754 31.2978 24.4833 31.115 24.4805C31.069 24.4805 31.0243 24.4791 30.9783 24.4777C30.9881 24.1806 30.6184 24.168 30.5612 23.9211C30.9755 23.9574 31.1666 23.8946 30.9434 23.3979C30.7272 22.9181 30.098 22.6265 30.2752 21.968C30.2808 21.8508 30.3087 21.7462 30.4259 21.6904L30.4942 21.6876L30.5626 21.689C30.8053 22.526 31.2629 23.2473 31.7693 23.942C31.913 24.1401 32.1222 24.2266 32.3706 24.1987C32.4166 24.2461 32.464 24.2922 32.5101 24.3396C32.478 24.6479 32.6175 24.786 32.9244 24.7609C32.9244 24.853 32.9244 24.9451 32.9244 25.0357C32.7319 25.1906 32.7737 25.3831 32.8477 25.5714C32.9286 25.7779 32.8337 25.8532 32.6468 25.8742H32.6496Z" fill="#FCBE1F"/>
<path d="M30.2749 21.9666C30.0964 22.625 30.7269 22.9166 30.9432 23.3965C31.1664 23.8931 30.9766 23.9559 30.5609 23.9196C30.4172 23.7411 30.2233 23.6643 30.0029 23.6406C29.8327 23.0645 29.3416 22.812 28.8827 22.526C28.8366 22.4353 28.7892 22.3446 28.7432 22.2539C29.2928 22.3697 29.7657 22.0698 30.2735 21.9666H30.2749Z" fill="#F9B115"/>
<path d="M29.4457 24.2C28.9589 24.7581 29.2072 25.3161 29.4457 25.8727C28.9979 25.6481 28.6031 25.3245 28.6492 24.8027C28.6827 24.4288 29.0119 24.1805 29.4471 24.2H29.4457Z" fill="#FCD12F"/>
<path d="M31.9539 28.6614C31.7014 28.5553 31.6624 28.3433 31.6749 28.1047C32.0446 28.1508 31.9274 28.4423 31.9539 28.6614Z" fill="#FCD12F"/>
<path d="M30.5632 21.689H30.4948H30.4265C30.4209 21.5969 30.4153 21.5063 30.4111 21.4142C30.6511 21.2691 30.8924 21.1226 31.1338 20.9775C31.4504 21.0194 31.7685 21.0626 32.0852 21.1045C32.3098 21.1966 32.5316 21.2914 32.6865 21.4923C32.5804 21.6834 32.487 21.8787 32.5121 22.1089C32.1494 22.2219 31.7783 22.2805 31.3974 22.2512C30.9719 22.2847 30.9413 21.7309 30.5646 21.689H30.5632Z" fill="#FCD73D"/>
<path d="M28.8887 29.7747C29.1677 29.3423 29.4467 29.345 29.7257 29.7747C29.4467 29.7747 29.1677 29.7747 28.8887 29.7747Z" fill="#FBCA28"/>
<path d="M31.5407 19.5964C31.5476 19.6368 31.5588 19.6773 31.5728 19.7177C31.1291 19.9158 30.8125 19.6201 30.4832 19.4192C30.274 19.2922 30.0926 19.1165 29.8457 19.0565C29.6657 18.9728 29.5764 18.8221 29.5332 18.6366C30.3814 18.5822 30.9101 19.1946 31.5407 19.5964Z" fill="#5AC277"/>
<path d="M29.4622 36.2338C29.6101 36.3049 29.7817 36.3705 29.9366 36.4626C30.3118 36.6858 30.6815 36.9731 30.948 37.2731C31.4432 37.8297 31.0303 38.523 30.2546 38.5314C29.691 38.537 29.4804 38.0613 29.2934 37.6567C29.1205 37.2842 28.7117 36.888 29.1804 36.4333C29.2614 36.3537 29.313 36.2449 29.4622 36.2338Z" fill="#FBCA28"/>
<path d="M36.1314 42.0441C36.2207 42.45 35.918 42.6746 35.7129 42.9397C35.5022 43.2103 35.2023 43.4489 34.887 43.2327C34.6122 43.0443 34.6875 42.7137 34.8968 42.4445C35.1842 42.0748 34.7029 41.8195 34.7391 41.4847C35.1521 41.4135 35.512 41.5502 35.8538 41.7651C35.8594 41.945 35.9528 42.0371 36.1314 42.0441Z" fill="#FCD73D"/>
<path d="M30.0052 43.9944C29.9577 43.9009 29.9103 43.8089 29.8643 43.7154C30.0944 43.7224 30.2688 43.6791 30.2856 43.3876C30.3121 42.9077 30.6329 42.9258 30.7989 43.2243C31.1058 43.7754 31.569 43.721 32.0517 43.721C32.1786 43.721 32.3335 43.6721 32.4953 43.9944H30.0066H30.0052Z" fill="#FBCA28"/>
<path d="M35.8539 41.765C35.5121 41.5516 35.1522 41.4135 34.7393 41.4846C34.7393 41.1135 34.7393 40.7411 34.7393 40.37L34.742 40.3672C35.307 40.6783 35.7744 41.0661 35.8539 41.765Z" fill="#FBCA28"/>
<path d="M33.9056 39.254C34.345 39.5051 34.7691 39.7674 34.7426 40.3673L34.7398 40.3701C34.2822 40.1329 33.9376 39.8107 33.9014 39.2568L33.9042 39.254H33.9056Z" fill="#FBCA28"/>
<path d="M25.126 33.6808C25.1149 33.2414 25.1874 32.8284 25.6589 32.6582C26.1291 32.4894 26.2951 32.887 26.5113 33.1758C26.6759 33.3976 26.8489 33.6125 27.0177 33.8301C27.5074 34.4634 27.4725 34.5806 26.7136 34.8443C25.7859 35.1665 25.1288 34.6853 25.126 33.6808Z" fill="#FCBE1F"/>
<path d="M38.0836 40.091C37.9483 39.6069 37.5521 39.8455 37.2731 39.8231C36.8336 39.7869 36.4709 39.7855 36.8699 39.2051C37.1406 38.8117 36.8071 38.6471 36.5365 38.456C35.8878 37.997 35.6297 37.1656 35.9101 36.4583C35.9352 36.3955 36.0566 36.3704 36.1333 36.3271C36.1124 36.7038 36.1417 37.0665 36.4123 37.3651C36.5853 37.5548 36.7946 37.6762 37.0038 37.4557C37.2647 37.1809 37.6051 36.9312 37.5256 36.4694C37.6191 36.4694 37.7125 36.4694 37.8046 36.4694C38.1408 37.0233 38.7253 37.432 38.7811 38.1491C38.809 38.5285 38.3194 38.848 38.6542 39.2623C38.6472 39.4911 38.6402 39.7185 38.6333 39.9473C38.1771 39.9822 38.5523 40.6351 38.0976 40.6713C38.092 40.4788 38.0878 40.2863 38.0822 40.0938L38.0836 40.091Z" fill="#FCD73D"/>
<path d="M33.9008 39.2582C33.937 39.812 34.2816 40.1342 34.7392 40.3714C34.7392 40.7425 34.7392 41.115 34.7392 41.486C34.5076 41.486 34.2746 41.4721 34.0445 41.4888C33.3804 41.5377 33.1363 41.1484 33.0721 40.5723C33.054 40.4119 33.0888 40.2445 33.0637 40.0868C32.9591 39.4158 33.2311 39.1396 33.9008 39.2596V39.2582Z" fill="#FCD73D"/>
<path d="M38.0919 40.9281C37.9385 41.2978 38.4644 41.9088 37.6888 42.0567C37.5744 41.5921 37.3526 41.0885 38.0919 40.9281Z" fill="#FCD12F"/>
<path d="M31.3955 22.2512C31.7764 22.2805 32.1474 22.2219 32.5101 22.1089C32.6566 22.3126 32.877 22.2289 33.0696 22.2512C33.0933 22.6474 32.4809 22.4046 32.5115 22.8078C32.3944 23.5625 32.9287 23.9922 33.3444 24.4805C33.4351 24.906 33.7796 24.7162 34.0252 24.7553C34.2233 24.786 34.5581 24.6939 34.5762 24.9227C34.6446 25.8281 35.55 26.3582 35.5765 27.265C35.1021 27.1101 35.0184 26.6191 34.7492 26.2884C34.5832 26.0848 34.4395 25.8309 34.1549 25.8811C33.4462 26.0053 33.1798 25.5421 32.9273 25.0329C32.9273 24.9408 32.9273 24.8488 32.9273 24.7581C32.8422 24.5656 32.6999 24.4288 32.5129 24.3368C32.4669 24.2893 32.4195 24.2433 32.3734 24.1959C32.2367 23.9894 31.9703 23.7704 31.9898 23.5793C32.047 22.9961 31.8573 22.5762 31.3983 22.2484L31.3955 22.2512Z" fill="#FCD12F"/>
<path d="M36.552 29.4984C36.139 28.7228 36.1558 28.6879 36.9705 28.6614C37.1156 29.0478 37.403 29.2194 37.8061 29.218C37.8522 29.218 37.8982 29.218 37.9442 29.2194C37.9596 29.4998 38.1605 29.4998 38.3627 29.497C38.3544 29.8067 38.805 29.8374 38.7715 30.1555C38.7282 30.5684 38.6013 30.9172 38.0837 30.8907C37.6513 30.6926 37.495 30.129 36.9691 30.055C36.9663 29.8723 36.8728 29.7802 36.6901 29.7774C36.6901 29.6616 36.6636 29.5584 36.552 29.4984Z" fill="#FBCA28"/>
<path d="M33.3464 24.4804C32.9292 23.9922 32.3963 23.5625 32.5135 22.8078C33.1804 22.7283 33.776 22.8315 34.1918 23.4356C34.3187 23.6197 34.5252 23.6588 34.7414 23.642C34.6758 24.387 34.5363 24.4707 33.345 24.4804H33.3464Z" fill="#FCE04B"/>
<path d="M35.295 25.2784C35.2922 25.0887 35.4345 24.8208 35.8279 24.7706C36.118 24.7343 36.9118 25.5309 36.7612 25.7262C36.5226 26.0359 36.7877 26.6428 36.199 26.7C35.8223 26.7362 35.3145 26.0094 35.295 25.2798V25.2784Z" fill="#FCE04B"/>
<path d="M38.0905 27.2901C38.4407 27.2859 39.1898 28.1578 39.201 28.5233C39.2108 28.8358 39.0685 29.0088 38.7671 29.0311C38.2635 29.0673 37.5339 28.4075 37.5255 27.9471C37.5172 27.5244 37.8478 27.4393 38.0919 27.2901H38.0905Z" fill="#FCE04B"/>
<path d="M37.8063 29.2181C37.4032 29.2181 37.1158 29.0479 36.9707 28.6615C37.399 28.6224 37.6822 28.8024 37.8063 29.2181Z" fill="#FCD12F"/>
<path d="M38.3638 29.497C38.1615 29.4998 37.9607 29.4998 37.9453 29.2194C38.149 29.2152 38.3499 29.2138 38.3638 29.497Z" fill="#FCD12F"/>
<path d="M34.7407 23.6421C34.5259 23.6588 34.3194 23.6212 34.1911 23.4356C33.774 22.833 33.1797 22.7297 32.5128 22.8078C32.4821 22.4061 33.0946 22.6474 33.0709 22.2512C33.1629 22.2512 33.2536 22.2512 33.3457 22.2512C33.3764 22.4256 33.4071 22.6 33.6261 22.3893C33.7405 22.3921 33.8437 22.4158 33.9051 22.5274C33.9497 22.8009 34.1464 22.999 34.371 23.0478C34.7463 23.1273 34.7547 23.3603 34.7421 23.6421H34.7407Z" fill="#FCD73D"/>
<path d="M33.6261 22.3907C33.4057 22.5999 33.3764 22.4255 33.3457 22.2526C33.4615 22.2526 33.5661 22.2777 33.6261 22.3907Z" fill="#FCD12F"/>
<path d="M36.2742 32.0067C36.0273 31.8114 35.864 31.5268 35.5404 31.404C35.2056 31.2757 35.3116 30.9423 35.3004 30.6772C35.2907 30.4247 35.3004 30.1708 35.3004 29.9183C35.7385 29.617 36.224 29.7928 36.6913 29.7774C36.6955 29.9588 36.789 30.0508 36.9703 30.055C36.8866 30.4638 37.333 30.5517 37.4516 30.846C37.5534 31.0971 37.9664 31.2436 37.6957 31.6119C37.4628 31.9314 37.1405 32.0946 36.7471 32.0876C36.5881 32.0848 36.4304 32.0346 36.2728 32.0053L36.2742 32.0067Z" fill="#FCE04B"/>
<path d="M39.4768 32.5647C39.4768 32.7028 39.4796 32.8409 39.481 32.979C39.481 33.3697 39.4796 33.7603 39.4768 34.1495C39.4754 34.4703 39.3304 34.5485 39.0346 34.4313C38.5826 34.2513 38.2687 33.9695 38.3845 33.4478C38.5087 32.8842 38.7347 32.3889 39.4768 32.5647Z" fill="#FCE04B"/>
<path d="M37.8054 36.4668C37.7119 36.4668 37.6184 36.4668 37.5264 36.4668C37.5264 36.3733 37.5264 36.2798 37.5264 36.1877C37.7063 36.1947 37.7984 36.2868 37.804 36.4681L37.8054 36.4668Z" fill="#FCD12F"/>
<path d="M35.0188 34.2374C34.8375 34.2318 34.7454 34.1397 34.7412 33.9584C34.9212 33.964 35.0146 34.056 35.0188 34.2374Z" fill="#FCD12F"/>
<path d="M33.349 34.7927C33.3169 34.476 33.0686 34.2765 32.9249 34.0212C32.752 33.7129 32.6571 33.3725 33.0198 33.1898C33.3211 33.0377 33.6518 33.0586 33.9252 33.4102C34.2656 33.8468 34.1596 34.3211 34.1819 34.7913C33.9043 34.7913 33.6266 34.7913 33.349 34.7913V34.7927Z" fill="#FCE04B"/>
<path d="M37.5266 36.4681C37.6061 36.9299 37.2657 37.1796 37.0048 37.4544C36.7956 37.6748 36.5863 37.5534 36.4133 37.3637C36.1427 37.0666 36.1134 36.7025 36.1343 36.3258C36.1343 36.2798 36.1343 36.2337 36.1343 36.1863C36.4189 36.111 36.6254 35.8013 36.9713 35.9059C36.9741 36.0872 37.0676 36.1807 37.249 36.1849C37.2531 36.3663 37.3466 36.4583 37.5266 36.4639V36.4681Z" fill="#FCE04B"/>
<path d="M36.9698 35.9087C36.6253 35.8041 36.4188 36.1138 36.1328 36.1891C36.1523 36.0357 36.1258 35.8515 36.2026 35.7357C36.3197 35.5614 36.4551 35.3368 36.7229 35.3744C37.0605 35.4219 36.9378 35.7064 36.9684 35.9087H36.9698Z" fill="#FCD73D"/>
<path d="M37.5266 36.4681C37.3467 36.4625 37.2532 36.369 37.249 36.1891C37.3425 36.1891 37.4346 36.1891 37.528 36.1891C37.528 36.2826 37.528 36.376 37.528 36.4681H37.5266Z" fill="#FCD73D"/>
<path d="M37.2483 36.189C37.067 36.1849 36.9749 36.0914 36.9707 35.91C37.1507 35.9156 37.2441 36.0091 37.2483 36.189Z" fill="#FCD73D"/>
<path d="M32.9256 25.0371C33.1781 25.5449 33.446 26.0095 34.1533 25.8853C34.4379 25.8351 34.5816 26.089 34.7476 26.2927C35.0168 26.6219 35.1005 27.1143 35.5748 27.2692C35.6739 27.9249 35.3949 28.2025 34.7392 28.1048C34.795 27.6779 34.6108 27.445 34.1812 27.4087C34.1812 27.3627 34.1812 27.3166 34.1798 27.272C34.1784 27.0892 34.0849 26.9958 33.9022 26.993C33.7864 26.5689 33.4306 26.4084 33.0847 26.2327C32.9145 26.1462 32.6536 26.1671 32.6494 25.8769C32.8364 25.856 32.9312 25.7807 32.8503 25.5742C32.7764 25.3859 32.7345 25.1934 32.927 25.0385L32.9256 25.0371Z" fill="#FBCA28"/>
<path d="M31.9548 28.66C31.9283 28.441 32.0455 28.1494 31.6758 28.1034C31.8362 27.643 31.9115 27.1199 32.51 26.9888L32.5114 26.9902C32.5114 27.152 32.5198 27.3138 32.5072 27.4742C32.4124 28.6824 32.411 28.6545 33.5661 28.6726C34.2427 28.6824 34.3682 28.3922 34.1827 27.8258C34.3682 27.9193 34.5538 28.0127 34.7393 28.1048C34.8091 28.6726 34.7002 29.0646 33.9846 28.9516C33.6609 28.9 33.4461 29.2278 33.0904 29.2432C32.5602 29.2655 32.4152 28.6782 31.9534 28.6614L31.9548 28.66Z" fill="#FCD73D"/>
<path d="M36.6897 29.776C36.2223 29.79 35.7369 29.6156 35.2988 29.9169C35.4286 29.1441 35.5541 29.0827 36.2251 29.437C36.3186 29.4859 36.4414 29.4789 36.5502 29.4984C36.6618 29.5584 36.6869 29.6616 36.6883 29.7774L36.6897 29.776Z" fill="#FCD73D"/>
<path d="M31.1152 24.4805C31.298 24.4833 31.3901 24.5767 31.3956 24.7581C31.2157 24.7539 31.1222 24.6604 31.1152 24.4805Z" fill="#FBCA28"/>
<path d="M32.5107 26.9873C32.5177 26.7781 32.501 26.4879 32.7632 26.4963C33.0227 26.506 33.292 26.6581 33.3478 26.9873L33.3464 26.9887C33.0688 26.9887 32.7911 26.9887 32.5135 26.9887H32.5121L32.5107 26.9873Z" fill="#FCD73D"/>
<path d="M34.1799 27.2691C34.1799 27.3151 34.1813 27.3612 34.1813 27.4058C34.1813 27.4993 34.1813 27.5914 34.1813 27.6848C33.8033 27.5718 33.5047 27.364 33.3457 26.9887L33.3471 26.9873C33.5326 26.9873 33.7182 26.9873 33.9023 26.9873V26.9887C33.9079 27.1673 34.0014 27.2607 34.1799 27.2677V27.2691Z" fill="#FCD73D"/>
<path d="M31.3953 22.2512C31.8543 22.579 32.044 22.9989 31.9868 23.582C31.9687 23.7732 32.2352 23.9922 32.3705 24.1987C32.1208 24.2266 31.9129 24.1401 31.7692 23.942C31.2642 23.2472 30.8052 22.526 30.5625 21.689C30.9392 21.7294 30.9685 22.2833 31.3953 22.2512Z" fill="#FBCA28"/>
<path d="M32.5113 24.3409C32.6983 24.433 32.8406 24.5697 32.9257 24.7622C32.6188 24.7874 32.4793 24.6492 32.5113 24.3409Z" fill="#FBCA28"/>
<path d="M36.9685 30.0551C36.7885 30.0509 36.695 29.9574 36.6895 29.7775C36.8722 29.7803 36.9643 29.8737 36.9685 30.0551Z" fill="#FCD73D"/>
<path d="M34.1816 27.6862C34.1816 27.5928 34.1816 27.5007 34.1816 27.4072C34.6113 27.4435 34.7955 27.6765 34.7397 28.1034C34.5541 28.0099 34.3686 27.9164 34.183 27.8243C34.183 27.7783 34.183 27.7323 34.1816 27.6862Z" fill="#FCD12F"/>
<path d="M34.18 27.2691C34.0014 27.2608 33.9079 27.1687 33.9023 26.9901C34.0851 26.9929 34.1772 27.0864 34.18 27.2691Z" fill="#FCD12F"/>
<path d="M34.1811 27.6863C34.1811 27.7323 34.1811 27.7784 34.1825 27.8244C34.368 28.3922 34.2425 28.6824 33.5659 28.6712C32.4108 28.6531 32.4108 28.681 32.507 27.4729C32.5196 27.3124 32.5098 27.1506 32.5112 26.9888C32.7888 26.9888 33.0665 26.9888 33.3441 26.9888C33.5031 27.364 33.8016 27.5733 34.1797 27.6849L34.1811 27.6863Z" fill="#FCE04B"/>
</g>
<defs>
<clipPath id="clip0_1561_17460">
<rect width="19.4665" height="32.7334" fill="white" transform="translate(21.4336 11.8372)"/>
</clipPath>
</defs>
</svg>
