<svg width="62" height="58" viewBox="0 0 62 58" fill="none" xmlns="http://www.w3.org/2000/svg">
<rect x="2.28431" y="1.71352" width="50.5513" height="47.2689" rx="10" transform="matrix(0.991277 -0.131794 0.150878 0.988552 -0.238607 7.51025)" fill="white" stroke="#FCB315" stroke-width="4"/>
<path d="M33.1592 24.0172C33.3587 23.8997 33.518 23.7227 33.7288 23.623L33.7255 23.6181C33.7738 23.6761 33.7111 23.705 33.6885 23.7404C33.3861 24.2328 33.1801 24.7653 33.0047 25.3156C33.2429 25.1257 33.4536 24.9021 33.7802 24.8088C33.1109 25.7596 33.1849 26.7909 33.3474 27.8335C33.333 27.9043 33.3571 27.9719 33.3651 28.0427C33.3828 28.1859 33.4536 28.3226 33.4005 28.4771C32.9114 29.909 32.1424 31.1672 31.0644 32.2339C30.5302 32.7633 29.8979 33.1768 29.3364 33.6755C28.6558 34.2805 27.89 34.7841 27.1418 35.3038C26.8651 35.4968 26.5851 35.6851 26.2875 35.891C26.2826 35.8106 26.2794 35.7607 26.2746 35.7108C26.2279 35.1686 26.1797 34.6264 26.133 34.0842C26.0751 33.4004 26.0075 32.7166 25.8112 32.0537C25.6455 31.4954 25.3945 30.979 25.047 30.5092C24.9649 30.3998 24.9328 30.4094 24.8491 30.5092C24.08 31.4198 23.1034 32.0055 21.9659 32.3369C21.9562 32.3401 21.9418 32.3353 21.9192 32.3321C22.0817 31.9797 22.1992 31.6209 22.122 31.1962C21.5379 31.9218 21.1116 32.6893 20.9587 33.6401C20.7222 33.3216 20.5356 33.0288 20.3666 32.7231C19.9628 31.9942 19.6297 31.2412 19.5509 30.3982C19.5155 30.0313 19.5734 29.6677 19.5943 29.3041C19.612 29.0016 19.5879 28.7024 19.5155 28.3822C19.4238 28.8986 19.3385 29.3878 19.25 29.8897C19.2211 29.872 19.1969 29.8672 19.1921 29.856C18.777 28.7571 18.4713 27.6324 18.4922 26.4466C18.5035 25.7628 18.629 25.1 19.0714 24.5481C19.2162 24.3679 19.2999 24.2006 19.3128 23.9608C19.3433 23.4138 19.3787 23.3929 19.9113 23.3028C20.3377 23.2304 20.7689 23.24 21.2 23.2417C21.2435 23.2417 21.2853 23.2384 21.34 23.2352C21.2644 23.0631 21.2306 22.8973 21.2612 22.7123C22.056 23.1998 22.9554 23.2642 23.8371 23.3881C24.3841 23.4637 24.936 23.4975 25.4846 23.5602C25.6198 23.5763 25.6407 23.5264 25.6165 23.4138C25.5602 23.1467 25.3865 22.9746 25.158 22.8523C24.7574 22.6367 24.3181 22.5884 23.8757 22.553C23.8371 22.5498 23.7985 22.5482 23.7615 22.545C23.7582 22.545 23.7566 22.5369 23.7454 22.5192C23.9931 22.3793 24.2683 22.3648 24.5386 22.3519C25.0261 22.3278 25.5136 22.3423 26.0011 22.3825C26.0542 22.3873 26.125 22.4211 26.1571 22.3648C26.1877 22.3133 26.1507 22.2489 26.1185 22.2023C26.0654 22.1251 25.9995 22.0543 25.9255 21.9642C26.627 22.0687 27.2303 22.3648 27.8192 22.7542C27.8192 22.3728 27.6358 22.0993 27.4121 21.7856C27.8304 21.9433 28.186 22.109 28.4724 22.3938C28.4949 22.4163 28.5142 22.4436 28.5368 22.4645C28.6381 22.5611 28.7717 22.6544 28.8923 22.6158C28.9792 22.5884 28.9325 22.4211 28.9342 22.3181C28.9535 21.5088 29.0597 20.7189 29.4394 19.9884C29.6405 19.6007 29.9172 19.2773 30.3178 19.0424C30.4401 19.8742 30.7362 20.6288 31.1513 21.3528C31.2928 21.1195 31.4167 20.891 31.5631 20.677C31.9477 20.1139 32.4127 19.6457 33.0916 19.4478C33.2992 19.3867 33.2992 19.3883 33.2622 19.5926C33.127 20.3343 33.1656 21.0744 33.2879 21.8145C33.4102 22.5546 33.4166 23.2851 33.1238 23.993C33.1125 24.0123 33.0964 24.0332 33.1238 24.0509C33.1286 24.0542 33.1463 24.0316 33.1576 24.022L33.1592 24.0172Z" fill="#010101"/>
<path d="M40.4864 31.3491C40.4655 31.1737 40.3867 31.0176 40.3078 30.8648C38.2532 26.9101 36.197 22.9569 34.1424 19.0022C33.2977 17.3788 32.453 15.7554 31.61 14.132C31.581 14.0757 31.5488 14.0209 31.5199 13.9679C31.4442 13.9759 31.4362 14.0338 31.4137 14.0773C30.252 16.3105 29.0904 18.5436 27.9287 20.7768C27.7485 21.1228 27.3946 21.2563 27.0776 21.0938C26.7735 20.9377 26.6673 20.5725 26.8459 20.2282C27.3865 19.1776 27.9352 18.1301 28.479 17.0827C29.2963 15.5108 30.1169 13.9389 30.931 12.3654C31.0533 12.1289 31.2254 12.0017 31.4925 12.0001C31.7596 11.9985 31.9382 12.1208 32.0605 12.3557C32.9164 14.0097 33.7756 15.6621 34.6347 17.3128C36.522 20.9409 38.4109 24.5707 40.2982 28.1988C41.8974 31.2735 43.4967 34.3497 45.0976 37.4244C46.0259 39.2071 46.9527 40.9898 47.8826 42.7725C47.9808 42.9623 48.0403 43.1538 47.9679 43.3646C47.8843 43.6059 47.7185 43.7491 47.4595 43.7716C47.3887 43.778 47.3179 43.7764 47.2471 43.7764C36.7473 43.7764 26.249 43.7764 15.7492 43.7764C15.6205 43.7764 15.4917 43.7861 15.3679 43.7362C15.0268 43.5995 14.898 43.194 15.0879 42.8256C15.5127 42.0034 15.9406 41.1845 16.367 40.3639C17.3887 38.3978 18.4119 36.4333 19.4336 34.4672C19.6219 34.1052 19.9678 33.97 20.2944 34.1374C20.6065 34.2966 20.7014 34.6586 20.5148 35.019C19.2438 37.4694 17.9695 39.9198 16.6952 42.3686C16.6663 42.4249 16.6389 42.4812 16.6116 42.5376C16.6646 42.5826 16.7177 42.5633 16.7644 42.5633C21.0071 42.5633 25.2515 42.5633 29.4942 42.5633C29.5521 42.5633 29.6101 42.5601 29.668 42.5569C30.8425 42.5537 32.017 42.5778 33.1915 42.5327C34.8713 42.47 36.3772 41.9181 37.6225 40.8112C40.5009 38.2546 41.3086 35.04 40.4832 31.3475L40.4864 31.3491Z" fill="#FCB315"/>
<path d="M40.4863 31.3491C41.3116 35.0415 40.504 38.2562 37.6256 40.8128C36.3803 41.9197 34.8743 42.4716 33.1946 42.5343C32.0201 42.5794 30.8456 42.5552 29.6711 42.5584C29.4909 42.3123 29.2366 42.1482 28.9792 41.9229C29.0017 42.0645 29.0178 42.1723 29.0388 42.3155C28.6059 41.976 28.3019 41.5657 27.9785 41.1056C28.0026 41.3164 28.0219 41.474 28.046 41.6832C27.5537 41.326 27.3622 40.8321 27.1611 40.3462C27.8868 39.302 28.7395 38.3704 29.6694 37.508C30.6203 36.6263 31.6533 35.8347 32.5478 34.8919C33.6178 33.7657 34.4946 32.5348 34.715 30.9436C35.1768 31.5502 35.8526 31.658 36.5428 31.7159C37.8524 31.8269 39.1348 31.6242 40.4106 31.3571C40.4348 31.3523 40.4605 31.3507 40.4863 31.3491Z" fill="#010101"/>
<path d="M34.7155 30.9453C34.4951 32.5365 33.6182 33.7673 32.5483 34.8936C31.6521 35.8364 30.6208 36.628 29.6699 37.5097C28.74 38.3721 27.8872 39.3037 27.1616 40.3479C27.0796 40.4621 26.9943 40.5747 26.9154 40.6922C26.8688 40.763 26.827 40.7613 26.7899 40.6922C26.7208 40.5618 26.6468 40.4331 26.5953 40.2948C26.3475 39.6335 25.9951 39.0366 25.5623 38.4783C25.1553 37.9538 24.8866 37.3681 24.9719 36.6779C25.0217 36.2644 25.2132 35.896 25.3821 35.5211C25.5897 35.0577 25.8278 34.6104 26.0659 34.1631C26.082 34.1326 26.0917 34.0875 26.1399 34.0827C26.1866 34.6249 26.2349 35.1671 26.2815 35.7093C26.2864 35.7592 26.288 35.8091 26.2944 35.8895C26.592 35.6852 26.872 35.4953 27.1487 35.3023C27.8969 34.7826 28.6627 34.279 29.3433 33.674C29.9048 33.1753 30.5371 32.7634 31.0713 32.2324C32.1477 31.1641 32.9167 29.9075 33.4075 28.4756C33.4606 28.3211 33.3898 28.186 33.3721 28.0412C33.3624 27.972 33.3383 27.9044 33.3544 27.832C33.6263 27.655 33.7904 27.6711 34.0172 27.8932C34.1331 28.0074 34.2184 28.1393 34.2827 28.2873C34.6383 29.1063 34.804 29.9558 34.7171 30.8487C34.7139 30.8793 34.7171 30.9115 34.7187 30.9421L34.7155 30.9453Z" fill="#FCB315"/>
<path d="M33.7308 23.6231C33.7308 23.6231 33.7437 23.6086 33.7502 23.6005C33.7502 23.6086 33.7518 23.6167 33.7535 23.6231C33.7454 23.6215 33.7356 23.6183 33.7275 23.6167L33.7308 23.6215V23.6231Z" fill="#010101"/>
<path d="M33.1593 24.0173C33.1479 24.027 33.1301 24.0497 33.1252 24.0465C33.0961 24.0303 33.1139 24.0076 33.1252 23.9882C33.1366 23.9979 33.1479 24.0076 33.1593 24.0173Z" fill="#FEFEFE"/>
</svg>
