<svg width="62" height="58" viewBox="0 0 62 58" fill="none" xmlns="http://www.w3.org/2000/svg">
<rect width="54.5513" height="51.2689" rx="12" transform="matrix(0.991277 -0.131794 0.150878 0.988552 0 7.18951)" fill="#F9B115"/>
<path d="M30.7829 9.27222C28.7457 10.6921 27.6704 13.3622 27.3875 14.5198C25.9984 12.642 22.819 9.17959 21.2139 10.3526C19.6087 11.5256 20.3907 15.6773 20.9824 17.6066C18.9502 16.7062 14.5927 15.2915 13.4197 16.8349C12.2467 18.3783 15.349 22.211 17.0467 23.9345C15.529 23.8059 12.2313 23.9499 11.1818 25.5551C10.1323 27.1602 13.8827 29.8766 15.8891 31.0342C14.32 31.5486 11.4441 33.1023 12.4936 35.2013C13.5432 37.3004 17.1495 37.7222 18.8215 37.6708C17.7154 39.6 16.0434 43.582 18.2041 44.0759C20.3649 44.5698 23.1688 42.9441 24.3007 42.0695C23.8068 45.5267 25.2267 47.5228 25.9984 48.0887C29.0852 47.9653 30.6286 44.9505 31.0145 43.4585C32.7894 49.092 36.262 48.6289 36.262 48.9376C38.8549 48.0116 38.4228 43.8701 37.8826 41.9151C41.1546 45.0019 43.7218 44.5904 44.5964 43.9987C46.0163 42.2084 44.5707 39.137 43.6703 37.8251C47.7449 38.8746 49.278 37.5936 49.5353 36.8219C50.2761 34.2907 47.2716 32.0116 45.6768 31.1885C49.3809 30.3859 50.8214 28.1789 51.0787 27.1757C51.0169 25.5705 47.0401 24.5004 45.0594 24.166C47.961 21.7583 48.2234 19.4586 47.9919 18.6098C46.8189 16.8194 42.7186 17.6066 40.8151 18.2239C41.4324 16.6805 41.2781 11.8188 39.889 11.433C38.7778 11.1243 35.8762 13.5166 34.5643 14.7513C34.1527 12.3333 32.8202 7.85229 30.7829 9.27222Z" fill="white"/>
<path d="M22.4157 13.7482C21.3553 20.182 25.8274 23.8585 26.104 24.1802C27.8099 25.8193 30.9265 27.7464 29.7462 22.342C28.5659 16.9375 24.8284 14.0852 23.1072 13.3346C22.7384 13.3346 22.4925 13.6103 22.4157 13.7482Z" fill="#FFCD06"/>
<path d="M22.5539 13.8401C22.6277 13.5092 22.892 13.5184 23.015 13.5643C26.482 15.1452 28.5475 20.0442 29.1468 22.296C29.6693 23.7666 29.9029 26.1287 26.6572 23.8126C22.6001 20.9173 22.4617 14.2537 22.5539 13.8401Z" fill="#FEED3D"/>
<path d="M16.3697 19.4981C18.1909 25.7604 23.8151 27.16 24.2037 27.3317C26.4512 28.0792 30.0965 28.4814 26.6974 24.1097C23.2983 19.738 18.693 18.7671 16.8153 18.8281C16.4824 18.9863 16.3795 19.3407 16.3697 19.4981Z" fill="#FFCD06"/>
<path d="M16.5342 19.5218C16.4579 19.1914 16.7004 19.0863 16.8312 19.0751C20.6433 19.0144 24.6231 22.55 26.1366 24.3254C27.2432 25.4286 28.4741 27.4605 24.5443 26.7625C19.632 25.89 16.6295 19.9346 16.5342 19.5218Z" fill="#FEED3D"/>
<path d="M13.3955 27.2822C17.7436 32.1532 23.4245 31.0034 23.8494 30.9916C26.2009 30.702 29.6649 29.501 24.7089 27.0135C19.7529 24.526 15.1769 25.6255 13.5084 26.4863C13.2762 26.772 13.3364 27.136 13.3955 27.2822Z" fill="#FFCD06"/>
<path d="M13.5542 27.233C13.3427 26.9676 13.5162 26.7687 13.6294 26.7024C17.044 25.012 22.1631 26.4957 24.2958 27.4488C25.7711 27.9697 27.7596 29.2756 23.911 30.3317C19.1003 31.6519 13.8186 27.5648 13.5542 27.233Z" fill="#FEED3D"/>
<path d="M14.9493 35.4024C20.9775 37.9334 25.6086 34.458 25.987 34.2651C27.9844 32.9948 30.5924 30.4244 25.0449 30.3056C19.4974 30.1867 15.8418 33.1427 14.7074 34.6355C14.6213 34.993 14.8328 35.2957 14.9493 35.4024Z" fill="#FFCD06"/>
<path d="M15.0713 35.2899C14.7657 35.1411 14.8365 34.887 14.91 34.7786C17.2622 31.7878 22.5234 30.9305 24.86 30.8757C26.4166 30.7129 28.7753 31.0385 25.7576 33.6431C21.9855 36.8988 15.4532 35.4759 15.0713 35.2899Z" fill="#FEED3D"/>
<path d="M19.7087 42.5507C26.1198 41.2573 27.9824 35.7855 28.186 35.4136C29.1186 33.2424 29.8209 29.6543 25.1701 32.671C20.5192 35.6876 19.1692 40.1825 19.0755 42.0529C19.2063 42.3967 19.5521 42.528 19.7087 42.5507Z" fill="#FFCD06"/>
<path d="M19.7459 42.3893C19.4094 42.4379 19.3242 42.1883 19.3238 42.0574C19.5771 38.2655 23.4398 34.6031 25.3395 33.2459C26.5337 32.2374 28.6665 31.182 27.645 35.0284C26.3681 39.8364 20.1666 42.3285 19.7459 42.3893Z" fill="#FEED3D"/>
<path d="M27.0988 45.5188C32.4702 41.798 32.004 36.0385 32.043 35.6166C32.0357 33.2548 31.2534 29.6831 28.1834 34.2905C25.1134 38.8978 25.6616 43.5579 26.3195 45.312C26.5763 45.5759 26.946 45.5598 27.0988 45.5188Z" fill="#FFCD06"/>
<path d="M27.0687 45.3559C26.7791 45.5335 26.6017 45.338 26.5492 45.218C25.2737 41.6367 27.3634 36.748 28.5676 34.7513C29.2628 33.3535 30.8012 31.5418 31.3931 35.4767C32.133 40.3954 27.4308 45.1339 27.0687 45.3559Z" fill="#FEED3D"/>
<path d="M36.001 46.2463C38.1624 40.0925 34.3961 35.7 34.1795 35.3355C32.7839 33.4268 30.0489 30.9912 30.2731 36.5177C30.4973 42.0442 33.6832 45.4982 35.2481 46.5344C35.6114 46.598 35.9014 46.3689 36.001 46.2463Z" fill="#FFCD06"/>
<path d="M35.8808 46.132C35.7507 46.4451 35.492 46.3905 35.3789 46.324C32.2387 44.1689 31.0548 38.9876 30.8554 36.6664C30.5961 35.1278 30.7762 32.761 33.5708 35.6021C37.0641 39.1535 36.0435 45.7405 35.8808 46.132Z" fill="#FEED3D"/>
<path d="M43.2302 41.9461C42.4136 35.477 37.078 33.2181 36.7211 32.988C34.6185 31.8994 31.0811 30.9341 33.7528 35.7818C36.4245 40.6294 40.8208 42.3061 42.6851 42.5384C43.0387 42.434 43.1959 42.1 43.2302 41.9461Z" fill="#FFCD06"/>
<path d="M43.0715 41.8971C43.0951 42.2352 42.839 42.3013 42.708 42.292C38.9334 41.7579 35.5569 37.6455 34.3406 35.6562C33.4205 34.3941 32.5234 32.1954 36.2955 33.4972C41.0106 35.1244 43.0421 41.4744 43.0715 41.8971Z" fill="#FEED3D"/>
<path d="M22.4157 13.7482C21.3553 20.182 25.8274 23.8585 26.104 24.1802C27.8099 25.8193 30.9265 27.7464 29.7462 22.342C28.5659 16.9375 24.8284 14.0852 23.1072 13.3346C22.7384 13.3346 22.4925 13.6103 22.4157 13.7482Z" fill="#FFCD06"/>
<path d="M22.5539 13.8401C22.6277 13.5092 22.892 13.5184 23.015 13.5643C26.482 15.1452 28.5475 20.0442 29.1468 22.296C29.6693 23.7666 29.9029 26.1287 26.6572 23.8126C22.6001 20.9173 22.4617 14.2537 22.5539 13.8401Z" fill="#FEED3D"/>
<path d="M30.5562 11.0182C26.5714 16.1887 28.7696 21.5354 28.8609 21.9492C29.5871 24.1973 31.4201 27.3637 32.9422 22.0449C34.4643 16.726 32.5227 12.4517 31.3617 10.9794C31.0367 10.8057 30.6893 10.9328 30.5562 11.0182Z" fill="#FFCD06"/>
<path d="M30.6345 11.1643C30.8563 10.9074 31.0849 11.04 31.1715 11.1385C33.4774 14.1648 32.9751 19.4552 32.4358 21.7221C32.199 23.2642 31.285 25.456 29.5227 21.8858C27.3198 17.4231 30.3571 11.4853 30.6345 11.1643Z" fill="#FEED3D"/>
<path d="M38.6689 14.1044C32.5985 16.533 31.7601 22.2505 31.6274 22.653C31.1044 24.9565 31.0651 28.6121 35.0915 24.8063C39.1178 21.0004 39.6295 16.3362 39.3821 14.4798C39.191 14.1653 38.827 14.0985 38.6689 14.1044Z" fill="#FFCD06"/>
<path d="M38.6617 14.2699C38.9838 14.1614 39.1128 14.3916 39.1371 14.5202C39.5764 18.2952 36.4423 22.5939 34.8204 24.2714C33.8291 25.4787 31.9231 26.9014 32.2294 22.9342C32.6123 17.9752 38.259 14.4055 38.6617 14.2699Z" fill="#FEED3D"/>
<path d="M45.2284 19.6312C38.7272 18.912 35.2777 23.5558 34.9699 23.8479C33.4169 25.6317 31.6492 28.8347 37.0019 27.3774C42.3546 25.92 45.0169 22.0505 45.6789 20.298C45.6596 19.9308 45.3705 19.7005 45.2284 19.6312Z" fill="#FFCD06"/>
<path d="M45.1435 19.7736C45.4789 19.8298 45.4835 20.0934 45.4439 20.2181C44.0413 23.7519 39.2413 26.064 37.0166 26.7784C35.5706 27.3754 33.2163 27.7313 35.3671 24.3794C38.0556 20.1894 44.7243 19.7035 45.1435 19.7736Z" fill="#FEED3D"/>
<path d="M48.0443 27.0503C42.4585 23.6575 37.3622 26.411 36.9593 26.546C34.7952 27.5075 31.8342 29.6646 37.3029 30.6009C42.7716 31.5372 46.826 29.1534 48.1696 27.8444C48.3079 27.5036 48.1437 27.173 48.0443 27.0503Z" fill="#FFCD06"/>
<path d="M47.9069 27.1436C48.187 27.3358 48.0793 27.5766 47.9905 27.673C45.22 30.2837 39.8894 30.355 37.5704 30.0643C36.0068 29.9956 33.7224 29.3255 37.0938 27.195C41.3079 24.5319 47.5569 26.9033 47.9069 27.1436Z" fill="#FEED3D"/>
<path d="M47.5301 35.5963C44.216 29.975 38.4192 30.001 38.0002 29.9301C35.6371 29.7581 32.0049 30.2643 36.3805 33.6655C40.7562 37.0668 45.4594 36.8758 47.2641 36.3551C47.5476 36.12 47.5596 35.7512 47.5301 35.5963Z" fill="#FFCD06"/>
<path d="M47.3649 35.6138C47.5205 35.9151 47.3115 36.0766 47.1875 36.1197C43.5082 37.1154 38.7766 34.6672 36.8707 33.3187C35.5253 32.5215 33.8298 30.8549 37.811 30.5654C42.7874 30.2036 47.1703 35.2371 47.3649 35.6138Z" fill="#FEED3D"/>
<path d="M36.9967 29.3272C36.9967 32.576 34.3545 35.2097 31.0953 35.2097C27.836 35.2097 25.1939 32.576 25.1939 29.3272C25.1939 26.0784 27.836 23.4447 31.0953 23.4447C34.3545 23.4447 36.9967 26.0784 36.9967 29.3272Z" fill="#1A0104"/>
<path d="M32.1448 34.6034C32.2426 34.5518 32.371 34.5724 32.455 34.6443C32.615 34.7814 32.5527 35.0327 32.3464 35.0771C31.9432 35.1639 31.5246 35.2097 31.0953 35.2097C31.0452 35.2097 30.9951 35.209 30.9453 35.2077C30.9284 35.2073 30.9249 35.1743 30.9409 35.1684C31.3485 35.002 31.7513 34.811 32.1448 34.6034Z" fill="#64303C"/>
<path d="M30.3751 33.0882C30.5223 33 30.711 33.0224 30.8328 33.1431C31.116 33.4235 31.39 33.6853 31.65 33.926C31.8352 34.0974 31.8015 34.4002 31.5794 34.5204C31.1916 34.7303 30.84 34.9113 30.5481 35.0547C30.5392 35.0591 30.5341 35.0718 30.5356 35.0815C30.5399 35.109 30.4997 35.18 30.472 35.1771C30.4313 35.1728 30.3907 35.1682 30.3503 35.1631C30.3114 35.1582 30.2946 35.1058 30.3159 35.073C30.3216 35.0642 30.3268 35.0555 30.3314 35.047C30.3451 35.0221 30.3343 34.992 30.3101 34.9773C29.9937 34.7846 29.6625 34.5279 29.3254 34.226C29.1375 34.0577 29.1844 33.7564 29.407 33.6373C29.7339 33.4625 30.057 33.2788 30.3751 33.0882Z" fill="#64303C"/>
<path d="M28.4847 34.1013C28.6176 34.0388 28.7756 34.0632 28.8831 34.1632C28.8877 34.1675 28.8923 34.1718 28.8968 34.1761C29.1623 34.4229 28.9503 34.821 28.6208 34.6691C28.4111 34.5724 28.2079 34.4637 28.0123 34.344C28.0003 34.3367 28.0023 34.3189 28.0154 34.3138C28.1724 34.2455 28.3288 34.1746 28.4847 34.1013Z" fill="#64303C"/>
<path d="M34.1467 33.3689C34.2862 33.2709 34.4747 33.2786 34.6057 33.3877C34.6292 33.4073 34.6524 33.4265 34.6753 33.4454C34.8522 33.5916 34.8609 33.8623 34.6784 34.0015C34.3055 34.2859 33.8976 34.5269 33.4623 34.7171C33.3516 34.7655 33.2237 34.7523 33.1246 34.6832C33.1093 34.6725 33.094 34.6618 33.0787 34.6509C32.867 34.5011 32.8911 34.1862 33.1121 34.0505C33.4703 33.8304 33.8164 33.6011 34.1467 33.3689Z" fill="#64303C"/>
<path d="M32.3766 31.7628C32.5247 31.6557 32.729 31.6708 32.8594 31.7987C33.1829 32.116 33.4934 32.408 33.7835 32.6712C33.963 32.834 33.9433 33.1225 33.7389 33.2529C33.3515 33.5001 32.9615 33.7363 32.5846 33.9558C32.4496 34.0344 32.2793 34.0187 32.1628 33.9149C31.8652 33.6499 31.564 33.3588 31.2625 33.0482C31.1023 32.8833 31.1368 32.6144 31.3289 32.4877C31.6871 32.2514 32.037 32.0086 32.3766 31.7628Z" fill="#64303C"/>
<path d="M26.5879 32.1327C26.7397 32.0667 26.9172 32.1071 27.025 32.2324C27.3525 32.6129 27.6825 32.9708 28.0027 33.3006C28.1733 33.4762 28.1333 33.7666 27.9178 33.8833C27.8761 33.906 27.8349 33.9282 27.7943 33.95C27.6692 34.0172 27.5159 34.0065 27.4051 33.9178C26.9755 33.5743 26.5952 33.1722 26.2764 32.7236C26.1449 32.5385 26.2307 32.2852 26.44 32.1963C26.4893 32.1753 26.5386 32.1541 26.5879 32.1327Z" fill="#64303C"/>
<path d="M28.576 31.1474C28.7313 31.0614 28.9261 31.0957 29.0422 31.2297C29.3375 31.5708 29.6334 31.8983 29.9253 32.2099C30.0857 32.3812 30.0503 32.6569 29.8489 32.7779C29.4993 32.9881 29.1612 33.1858 28.8412 33.3687C28.6945 33.4526 28.5092 33.4253 28.3946 33.3013C28.0807 32.9616 27.7687 32.598 27.4654 32.2255C27.3163 32.0423 27.381 31.7694 27.5928 31.6641C27.924 31.4995 28.2521 31.3267 28.576 31.1474Z" fill="#64303C"/>
<path d="M36.4851 31.5817C36.5127 31.6051 36.5216 31.6434 36.5071 31.6765C36.2625 32.2355 35.9334 32.7493 35.5357 33.2017C35.4212 33.3321 35.2358 33.3605 35.0924 33.2625C34.8916 33.1255 34.8854 32.8282 35.0768 32.6783C35.5707 32.2918 36.0091 31.9162 36.3738 31.5833C36.405 31.5548 36.4529 31.5544 36.4851 31.5817Z" fill="#64303C"/>
<path d="M34.4344 30.1447C34.582 30.0192 34.8018 30.027 34.9401 30.1627C35.2943 30.51 35.6328 30.8269 35.946 31.1089C36.1078 31.2546 36.1121 31.5077 35.947 31.6498C35.5673 31.9765 35.136 32.3046 34.6816 32.6234C34.5472 32.7176 34.3661 32.71 34.2417 32.603C33.906 32.3143 33.5648 31.9901 33.2229 31.6406C33.0701 31.4843 33.0917 31.2308 33.2643 31.0966C33.6752 30.7772 34.0665 30.4575 34.4344 30.1447Z" fill="#64303C"/>
<path d="M30.6286 29.8963C30.7848 29.7926 30.9942 29.8203 31.1179 29.961C31.4074 30.2901 31.6967 30.6057 31.9814 30.9058C32.1384 31.0713 32.1117 31.3382 31.9219 31.4651C31.5639 31.7045 31.2056 31.9368 30.8526 32.1597C30.7009 32.2555 30.5018 32.2273 30.3836 32.0923C30.0962 31.7641 29.8112 31.4242 29.5315 31.0784C29.3915 30.9054 29.4394 30.6496 29.6294 30.5334C29.9694 30.3255 30.303 30.1124 30.6286 29.8963Z" fill="#64303C"/>
<path d="M25.4186 30.3673C25.4962 30.3315 25.5886 30.3572 25.6364 30.4278C25.8266 30.7088 26.0252 30.9839 26.2291 31.2515C26.3617 31.4255 26.2972 31.6828 26.101 31.7802C25.93 31.8651 25.7312 31.7903 25.6569 31.6149C25.5134 31.2766 25.4008 30.9222 25.3226 30.555C25.3062 30.4778 25.3468 30.4004 25.4186 30.3673Z" fill="#64303C"/>
<path d="M27.1883 29.4406C27.3539 29.344 27.5664 29.3869 27.6808 29.5404C27.8463 29.7623 28.0144 29.9806 28.1843 30.1949C28.3263 30.3741 28.2759 30.6383 28.0752 30.7483C27.741 30.9315 27.4154 31.1057 27.1026 31.2694C26.9436 31.3526 26.7476 31.3084 26.6405 31.1647C26.4692 30.9348 26.3036 30.7068 26.1453 30.4839C26.0155 30.3012 26.0814 30.047 26.2804 29.943C26.5864 29.7831 26.8894 29.615 27.1883 29.4406Z" fill="#64303C"/>
<path d="M36.144 28.5885C36.2857 28.4499 36.5115 28.4454 36.6596 28.5772C36.7289 28.639 36.7965 28.6983 36.862 28.755C36.9358 28.8189 36.9826 28.9089 36.9879 29.0062C36.9936 29.1125 36.9967 29.2195 36.9967 29.3272C36.9967 29.8051 36.9394 30.2697 36.8315 30.7145C36.8185 30.7681 36.7929 30.8177 36.7567 30.8593C36.7516 30.8652 36.7464 30.8711 36.7412 30.877C36.6148 31.0209 36.3964 31.0318 36.252 30.9058C35.919 30.6154 35.5811 30.291 35.2427 29.9422C35.0986 29.7937 35.11 29.556 35.2633 29.417C35.5833 29.1268 35.8781 28.8485 36.144 28.5885Z" fill="#64303C"/>
<path d="M32.7632 28.3622C32.9192 28.2414 33.1429 28.2625 33.2737 28.4101C33.5649 28.7389 33.8556 29.0538 34.1412 29.3528C34.2909 29.5096 34.2762 29.7608 34.1054 29.8944C33.7108 30.2029 33.299 30.508 32.8796 30.8058C32.7281 30.9133 32.5198 30.8899 32.3967 30.7509C32.1093 30.4263 31.8239 30.0892 31.5434 29.7455C31.4091 29.5811 31.4446 29.3382 31.6174 29.2147C32.0162 28.9298 32.3992 28.644 32.7632 28.3622Z" fill="#64303C"/>
<path d="M29.1833 28.1498C29.349 28.0324 29.5789 28.068 29.7013 28.2297C29.8935 28.4837 30.089 28.7328 30.2863 28.9764C30.4266 29.1496 30.3852 29.407 30.1947 29.5233C29.8568 29.7294 29.5188 29.93 29.1845 30.1235C29.0248 30.2159 28.8212 30.1751 28.7099 30.0283C28.525 29.7844 28.344 29.5407 28.1678 29.299C28.0432 29.1283 28.0903 28.8887 28.2675 28.7731C28.5793 28.5697 28.8849 28.3612 29.1833 28.1498Z" fill="#64303C"/>
<path d="M25.2219 29.9036C25.2185 29.8684 25.2647 29.8528 25.2833 29.8829C25.2933 29.8991 25.2877 29.9204 25.271 29.9296C25.2501 29.9411 25.2243 29.9273 25.2219 29.9036Z" fill="#64303C"/>
<path d="M25.782 27.2726C25.9597 27.1931 26.1701 27.2587 26.2686 27.4263C26.4833 27.7918 26.7109 28.1523 26.948 28.5061C27.0657 28.6818 27.0153 28.9208 26.8336 29.0296C26.5181 29.2186 26.2124 29.3974 25.9215 29.5639C25.7544 29.6595 25.5418 29.6095 25.4358 29.4492C25.3756 29.3582 25.3176 29.2694 25.2617 29.1833C25.2207 29.12 25.2002 29.0455 25.2047 28.9702C25.2344 28.4743 25.3258 27.995 25.4713 27.5397C25.503 27.4405 25.5784 27.3618 25.6742 27.3202C25.7102 27.3045 25.7461 27.2886 25.782 27.2726Z" fill="#64303C"/>
<path d="M34.4988 26.9333C34.6528 26.7984 34.8874 26.8121 35.0256 26.9629C35.3126 27.2763 35.5971 27.5691 35.8696 27.837C36.0141 27.9791 36.0205 28.2108 35.8768 28.3537C35.6063 28.6226 35.311 28.8936 34.9971 29.1641C34.8474 29.2932 34.6219 29.2776 34.4908 29.1298C34.2051 28.8076 33.9213 28.473 33.6424 28.1318C33.5144 27.9753 33.5395 27.7454 33.6955 27.6166C33.9804 27.3812 34.2489 27.1524 34.4988 26.9333Z" fill="#64303C"/>
<path d="M31.255 26.5511C31.4196 26.4135 31.6669 26.442 31.7964 26.6128C32.0308 26.9218 32.2699 27.2237 32.5113 27.5172C32.6466 27.6818 32.6173 27.9265 32.4434 28.0499C32.0594 28.3224 31.6627 28.5907 31.2599 28.8527C31.1001 28.9566 30.8872 28.9201 30.7714 28.769C30.5504 28.481 30.3346 28.1924 30.1253 27.9065C30.0073 27.7452 30.0418 27.5198 30.2003 27.3977C30.5679 27.1145 30.9203 26.8307 31.255 26.5511Z" fill="#64303C"/>
<path d="M27.8223 26.1451C28.0016 26.0281 28.2436 26.0823 28.3551 26.2648C28.5534 26.5892 28.7612 26.9092 28.9761 27.2236C29.0922 27.3934 29.0501 27.6257 28.8786 27.7397C28.5589 27.9524 28.2394 28.1592 27.924 28.3586C27.7583 28.4634 27.5394 28.4189 27.428 28.258C27.1848 27.9069 26.956 27.5676 26.7447 27.2469C26.6258 27.0666 26.6898 26.8243 26.8784 26.7184C27.2023 26.5365 27.518 26.3436 27.8223 26.1451Z" fill="#64303C"/>
<path d="M36.6591 28.0709C36.731 27.9965 36.854 28.0327 36.875 28.1339C36.876 28.1386 36.8769 28.1433 36.8779 28.148C36.9034 28.2725 36.7607 28.3512 36.6668 28.2653C36.6649 28.2636 36.663 28.2619 36.6611 28.2602C36.6071 28.2107 36.6082 28.1236 36.6591 28.0709Z" fill="#64303C"/>
<path d="M35.4773 26.039C35.6378 25.8852 35.8985 25.9017 36.0213 26.0868C36.264 26.4528 36.4668 26.8475 36.6235 27.2646C36.6672 27.3807 36.6443 27.5109 36.565 27.6065C36.5609 27.6114 36.5568 27.6163 36.5527 27.6212C36.4179 27.7829 36.1733 27.7887 36.0281 27.6361C35.7607 27.3549 35.4937 27.0536 35.2322 26.7425C35.1068 26.5933 35.1234 26.3727 35.2657 26.2394C35.3389 26.1708 35.4094 26.104 35.4773 26.039Z" fill="#64303C"/>
<path d="M32.938 25.0491C33.105 24.8896 33.3766 24.917 33.5108 25.1048C33.7627 25.4577 34.0273 25.7992 34.2967 26.1256C34.4228 26.2786 34.4093 26.5039 34.2598 26.6342C34.0027 26.8584 33.7301 27.0824 33.4454 27.305C33.2867 27.4291 33.0576 27.3996 32.9346 27.2402C32.669 26.8962 32.4103 26.5507 32.1613 26.2094C32.05 26.0569 32.0742 25.8455 32.2146 25.7192C32.4719 25.4878 32.7136 25.2633 32.938 25.0491Z" fill="#64303C"/>
<path d="M29.8952 24.5904C30.0726 24.4391 30.3454 24.482 30.4675 24.6804C30.6775 25.0217 30.8979 25.358 31.1261 25.688C31.2371 25.8486 31.2064 26.0682 31.0518 26.1879C30.6907 26.4675 30.3161 26.744 29.9352 27.0144C29.7698 27.1318 29.5404 27.0917 29.4246 26.9254C29.1856 26.5826 28.9597 26.2498 28.7498 25.9336C28.6411 25.77 28.6824 25.5507 28.8398 25.4331C29.2246 25.1455 29.5794 24.8596 29.8952 24.5904Z" fill="#64303C"/>
<path d="M25.7668 26.7956C25.7957 26.7351 25.8809 26.7344 25.9125 26.7935C25.9341 26.8338 25.9168 26.8853 25.8765 26.9068C25.806 26.9444 25.7299 26.8729 25.7642 26.801C25.765 26.7992 25.7659 26.7974 25.7668 26.7956Z" fill="#64303C"/>
<path d="M27.2349 24.8778C27.3483 24.7799 27.6 24.8986 27.663 25.0342C27.719 25.1436 27.7764 25.2527 27.8351 25.3614C27.9277 25.5329 27.8745 25.7477 27.7086 25.8508C27.3392 26.0803 26.9715 26.2974 26.6216 26.4961C26.4722 26.5809 26.2795 26.5279 26.1884 26.3826C26.1229 26.2783 26.1258 26.1506 26.1947 26.0486C26.4882 25.6136 26.8385 25.2198 27.2349 24.8778Z" fill="#64303C"/>
<path d="M33.7006 24.2933C33.7976 24.1931 33.9447 24.1728 34.0653 24.2429C34.5084 24.5007 34.9148 24.8144 35.2747 25.1743C35.4049 25.3045 35.407 25.5124 35.2825 25.648C35.2093 25.7277 35.1335 25.8075 35.0553 25.8875C34.9033 26.0428 34.6501 26.0251 34.5175 25.8531C34.2147 25.4604 33.9268 25.0672 33.6628 24.6927C33.577 24.5709 33.5969 24.4004 33.7006 24.2933Z" fill="#64303C"/>
<path d="M31.1114 23.4503C31.1126 23.4471 31.1156 23.4449 31.1191 23.4449C31.5694 23.4467 32.0078 23.4987 32.429 23.5957C32.5288 23.6186 32.6123 23.685 32.6622 23.7742C32.7398 23.9131 32.8204 24.051 32.9036 24.1878C32.9923 24.3336 32.9737 24.5216 32.8516 24.6411C32.6028 24.8846 32.3343 25.1295 32.0505 25.3741C31.8877 25.5145 31.6396 25.4819 31.5167 25.3057C31.2516 24.9256 31.0024 24.5578 30.7732 24.211C30.6752 24.0629 30.6992 23.8666 30.8259 23.742C30.9335 23.6362 31.0285 23.5391 31.1098 23.4528C31.1105 23.4521 31.111 23.4512 31.1114 23.4503Z" fill="#64303C"/>
<path d="M29.5648 23.6445C29.7249 23.6017 29.8905 23.6801 29.9699 23.8251C29.9737 23.8319 29.9774 23.8387 29.9811 23.8455C30.0646 23.9975 30.0341 24.1877 29.9011 24.2993C29.5418 24.6008 29.1369 24.9025 28.7134 25.1946C28.5439 25.3115 28.3116 25.2632 28.2014 25.0895C28.1256 24.97 28.0533 24.8546 27.9846 24.7439C27.8812 24.5772 27.929 24.3583 28.0983 24.2586C28.5517 23.9917 29.0441 23.7835 29.5648 23.6445Z" fill="#64303C"/>
<path d="M33.2216 24.0519C33.1599 23.9601 33.2505 23.8484 33.3529 23.8907C33.3558 23.8919 33.3586 23.893 33.3615 23.8942C33.4316 23.9233 33.4523 24.0112 33.4018 24.0678C33.3531 24.1223 33.2624 24.1125 33.2216 24.0519Z" fill="#64303C"/>
<path d="M30.4961 23.4747C30.6011 23.4642 30.6605 23.5841 30.588 23.6606C30.5864 23.6622 30.5848 23.6639 30.5832 23.6656C30.5326 23.7188 30.4446 23.708 30.4049 23.6462C30.3597 23.5756 30.4045 23.4841 30.4881 23.4755C30.4908 23.4753 30.4934 23.475 30.4961 23.4747Z" fill="#64303C"/>
</svg>
