<svg width="62" height="58" viewBox="0 0 62 58" fill="none" xmlns="http://www.w3.org/2000/svg">
<rect width="54.5513" height="51.2689" rx="12" transform="matrix(0.991277 -0.131794 0.150878 0.988552 0 7.18958)" fill="#008BC1"/>
<path d="M27.1748 42.4531C23.3646 44.6793 21.0563 44.0229 20.3785 43.4164C19.0085 43.0739 19.4509 39.3493 19.8433 37.5298C19.1155 36.3311 18.7908 34.7114 18.7195 34.0514C18.8479 31.6967 15.8654 28.0042 14.4384 26.3453C12.6403 23.0916 16.8108 22.2425 19.0406 22.3317C20.9671 20.2339 22.6261 21.0652 23.2147 21.743C30.5355 14.0369 39.394 17.7473 42.9081 20.5657C47.8314 24.1619 48.0633 31.3756 47.5638 34.533C46.2367 38.857 43.907 40.5444 42.9081 40.8477C36.4435 43.9729 29.7257 43.2202 27.1748 42.4531Z" fill="white"/>
<g clip-path="url(#clip0_1559_17130)">
<path d="M17.7545 28.9909C17.0834 28.2117 16.4123 27.4326 15.7412 26.6534C15.7263 26.5902 15.7113 26.5271 15.6963 26.464C15.7851 26.464 15.8932 26.4297 15.9596 26.4682C16.5579 26.8118 17.2418 27.0344 17.6346 27.6755C17.7791 27.9099 18.1034 28.1261 18.296 27.9688C18.4994 27.8029 18.4394 27.4443 18.1826 27.2228C18.1291 27.1768 18.0788 27.1265 18.0306 27.0729C17.5393 26.5239 16.8661 26.1643 16.4466 25.5381C16.3331 25.369 16.0645 25.201 16.225 25.0169C16.408 24.8071 16.7195 24.592 17.0202 24.8061C17.2536 24.973 17.4837 24.9581 17.7256 24.9559C18.3849 24.9506 19.0645 25.0865 19.681 24.7376C20.1359 24.4796 20.5458 24.135 21.0831 24.0387C21.1184 24.0323 21.1194 23.9049 21.1612 23.8546C21.4662 23.4875 21.3228 23.008 21.478 22.6056C21.7659 22.6109 22.0624 22.5531 22.3332 22.7051C22.5654 22.81 22.6146 23.0669 22.772 23.2327C22.8212 23.4361 22.59 23.6213 22.7152 23.8214C23.1648 23.8075 23.2857 23.4115 23.5201 23.161C24.0649 22.5799 24.8847 22.3251 25.3278 21.622C25.3685 21.5567 25.5215 21.5331 25.6189 21.5385C26.077 21.5642 26.214 21.272 26.2804 20.8995C26.3928 20.8203 26.4645 20.7037 26.6132 20.6533C27.4566 20.3665 28.1769 19.7918 29.0631 19.6034C29.1466 19.6248 29.2665 19.6194 29.3061 19.673C29.3906 19.7875 29.2087 19.7907 29.1948 19.8453C29.0985 20.2188 28.574 20.2295 28.5355 20.6416C28.5087 20.9359 28.3364 21.0483 28.0581 21.1232C27.6889 21.2238 27.3817 21.4582 27.3624 21.881C27.3443 22.2888 27.3967 22.6922 26.9793 22.9652C26.883 23.0283 26.869 23.2167 26.8198 23.3494C26.6668 23.7636 26.5715 24.211 26.351 24.5856C25.7731 25.566 25.818 26.6759 25.5997 27.7312C25.5569 27.9399 25.6553 28.2599 25.3985 28.3477C24.9019 28.5178 24.8483 28.9609 24.8162 29.3313C24.7777 29.7818 24.661 30.1939 24.539 30.6199C24.4384 30.9699 24.2607 31.3455 24.3924 31.7105C24.6075 32.3045 24.6578 32.9114 24.6899 33.5332C24.7167 34.0491 24.8837 34.535 25.148 34.9899C25.2711 35.2018 25.6318 35.1547 25.6307 35.4319C25.6286 35.8739 25.97 35.9927 26.2568 36.0409C27.1527 36.1918 28.056 36.317 28.9615 36.3641C29.2601 36.3791 29.2536 36.4508 29.2858 36.6681C29.3328 36.9785 29.0963 37.3488 29.4645 37.595C29.3682 37.946 29.2729 38.2971 29.1766 38.6481L29.167 38.6545C29.1316 38.6535 29.0963 38.6524 29.061 38.6513C28.6479 38.844 28.4895 39.1747 28.5398 39.6178C28.5344 39.682 28.5301 39.7462 28.5248 39.8105C28.2711 40.2311 27.9029 40.55 27.5669 40.8979C27.2404 40.9696 26.9836 41.2361 26.625 41.2211C26.3906 41.2115 26.153 41.0884 26.3382 40.8904C26.8123 40.3831 26.29 40.1465 26.1102 39.8287C26.0192 39.6681 25.7763 39.59 25.6928 39.4284C25.2037 38.4876 24.2565 38.0573 23.4891 37.4333C23.1145 37.1283 22.8918 37.2353 22.7634 37.7009C22.7099 37.8946 22.6596 38.1023 22.4937 38.2082C21.5765 38.7958 21.1569 39.7484 20.8347 40.6956C20.6517 41.2339 20.3478 41.8761 20.7363 42.4937L20.7224 42.5076C20.6603 42.5044 20.5971 42.5001 20.5351 42.4969C20.0192 41.8601 20.1241 41.1066 20.2354 40.4023C20.3767 39.5129 20.6335 38.6396 20.8744 37.7694C20.9685 37.4291 20.9129 37.1658 20.7427 36.8661C20.1144 35.7583 19.6371 34.5982 19.6553 33.2903C19.6596 32.9028 19.6446 32.5132 19.6746 32.1279C19.7056 31.7223 19.4348 31.4076 19.3888 31.0277C19.3759 30.9238 19.24 30.9089 19.1255 30.9731C18.9885 30.7462 18.8515 30.5182 18.7145 30.2913C18.6877 30.0922 18.555 29.9681 18.4041 29.8589V29.8546C18.3185 29.601 18.1794 29.3858 17.9567 29.2306C17.9567 29.2306 17.9589 29.2317 17.9578 29.2317C17.9514 29.099 17.885 29.0187 17.7534 28.993L17.7545 28.9909Z" fill="#299DFC"/>
<path d="M27.5683 40.8958C27.9044 40.5479 28.2726 40.229 28.5263 39.8083C28.6279 39.7869 28.6376 39.7045 28.6472 39.6232V39.6178L28.751 39.5108C28.7831 39.4648 28.8152 39.4188 28.8484 39.3727C28.872 39.3438 28.8944 39.316 28.918 39.2871L28.9437 39.2529C29.0871 39.2015 29.0603 39.0816 29.056 38.9703C29.0635 38.9029 29.071 38.8365 29.0796 38.7691C29.1096 38.7306 29.1406 38.691 29.1706 38.6524L29.1802 38.646C29.5034 38.6043 29.5805 38.3153 29.6768 38.0916C29.8545 37.6774 29.9979 37.245 30.1124 36.8094C30.167 36.6018 30.2473 36.5012 30.4549 36.5033C31.1741 36.6906 31.8966 36.849 32.6447 36.8886C34.1121 36.9657 35.5795 37.0984 37.0211 36.6671C37.7147 36.4594 38.4125 36.2646 39.1082 36.0645C39.3276 36.0495 39.5524 36.0591 39.7654 36.0163C40.3241 35.9029 40.8517 35.5968 41.4543 35.7701C41.5388 35.7948 41.6287 35.7616 41.6769 35.6706L42.1018 35.6813C42.4785 35.7851 42.8328 35.707 43.1774 35.5497C43.4728 35.2457 43.9192 35.4341 44.2424 35.2222C44.4918 35.1772 44.2114 34.7288 44.4607 34.6838C44.4853 34.7512 45.0526 35.2072 45.1318 35.1729C44.6213 34.4794 45.1639 35.0948 45.1586 35.0916C45.105 35.0627 45.0462 35.0413 44.9894 35.0188C44.9691 34.8497 45.1725 34.8219 45.2024 34.6838C45.6338 34.9011 45.8778 34.5736 46.1603 34.3552C46.2149 34.7341 45.9837 35.0252 45.8682 35.3559C45.5043 36.3995 44.9552 37.3585 44.2392 38.1633C43.5082 38.9842 42.7729 39.9186 41.6865 40.2675C40.4536 40.6635 39.2324 41.1023 37.9416 41.3474C35.9434 41.7263 33.9451 41.9393 31.9169 41.858C30.6176 41.8066 29.3108 41.8151 28.0296 41.5454C27.6015 41.4555 27.1927 41.7424 26.7656 41.5882C27.0064 41.326 27.4752 41.3282 27.5694 40.8958H27.5683Z" fill="#D9E9FB"/>
<path d="M27.5686 40.8957C27.4733 41.3281 27.0056 41.326 26.7648 41.5882C26.7423 41.5936 26.722 41.6043 26.7038 41.6192C26.0702 41.7819 25.5329 42.1319 25.002 42.4947C24.4594 42.6018 23.9831 42.941 23.4116 42.9421C22.6859 42.9475 21.9592 42.9517 21.2335 42.9571C20.921 42.9839 20.7508 42.7366 20.5271 42.59C20.525 42.5579 20.5271 42.5258 20.5368 42.4937C20.5999 42.4969 20.662 42.5012 20.7251 42.5044C20.7423 42.5172 20.7594 42.5301 20.7776 42.5429C20.7647 42.5258 20.7519 42.5087 20.739 42.4905C20.3505 41.8729 20.6545 41.2307 20.8375 40.6924C21.1597 39.7452 21.5792 38.7926 22.4965 38.205C22.6624 38.0991 22.7116 37.8914 22.7662 37.6977C22.8957 37.2311 23.1172 37.124 23.4918 37.4301C24.2592 38.0552 25.2054 38.4844 25.6956 39.4251C25.7801 39.5868 26.022 39.6649 26.113 39.8254C26.2928 40.1422 26.8151 40.3798 26.3409 40.8872C26.1558 41.0852 26.3934 41.2082 26.6278 41.2179C26.9874 41.2318 27.2443 40.9664 27.5696 40.8947L27.5686 40.8957ZM21.7762 42.0688C22.0748 41.7145 22.7876 41.8729 23.1097 41.2767C23.251 41.0145 23.4447 40.7844 23.5646 40.504C23.6502 40.3028 24.028 40.2311 23.845 39.9078C23.7155 39.6788 23.5657 39.4583 23.4062 39.2485C23.2692 39.0687 23.1076 39.0441 22.9021 39.1918C22.1454 39.7377 21.5428 40.4077 21.195 41.281C20.9959 41.783 21.1704 42.0784 21.7751 42.0688H21.7762Z" fill="#4AB2FD"/>
<path d="M29.062 19.6024C28.1758 19.7918 27.4555 20.3666 26.6121 20.6523C26.4633 20.7026 26.3916 20.8193 26.2792 20.8985C25.9346 20.9863 25.6895 21.3202 25.2988 21.2966C25.4166 21.1639 25.5332 21.0323 25.651 20.8996C26.1486 20.6127 26.6474 20.3259 27.1451 20.039C29.4815 18.85 31.956 18.2495 34.5804 18.364C36.1334 18.4325 37.6318 18.7847 39.0435 19.4504C40.4991 20.1375 41.8583 20.9702 42.9533 22.1764C43.2743 22.5296 43.5697 22.9053 43.878 23.2713C43.9154 23.3131 43.954 23.3537 43.9914 23.3955C43.9797 23.4233 43.9818 23.4501 43.9989 23.4747C44.0032 23.6288 44.0899 23.7326 44.2098 23.815C44.2066 23.8429 44.213 23.8675 44.229 23.8899C44.228 24.0451 44.305 24.15 44.441 24.2164V24.2142C44.4388 24.3074 44.4624 24.3876 44.5458 24.4411C44.5747 24.4765 44.6047 24.5129 44.6336 24.5482C44.6507 24.7216 44.6753 24.8907 44.8669 24.9667V24.9688C44.8637 25.1004 44.9258 25.1839 45.051 25.2225C45.0703 25.3455 45.0896 25.4686 45.1099 25.5917C45.1334 25.7298 45.157 25.8678 45.1795 26.0059C45.1195 26.0209 45.0596 26.0359 44.9996 26.0509C44.9889 25.8272 44.9686 25.612 44.67 25.5981L44.6668 25.5949C44.4249 24.9774 44.0332 24.4358 43.7902 23.814C43.5376 23.1675 42.8462 22.8742 42.4588 22.3156C42.2865 22.0672 42.1998 21.713 41.883 21.592C40.9914 21.2517 40.3664 20.5046 39.5176 20.0851C38.8401 19.7511 38.1947 19.2973 37.4477 19.2139C36.8269 19.1454 36.2415 19.003 35.64 18.8649C34.4712 18.5963 33.2725 18.7975 32.0877 18.7547C32.0374 18.7526 31.9828 18.7708 31.9346 18.79C31.3717 19.0223 30.7584 19.0319 30.1793 19.1828C29.7973 19.2824 29.306 19.1165 29.0641 19.5992L29.062 19.6024Z" fill="#64BCFD"/>
<path d="M46.1583 34.3542C45.8757 34.5725 45.6317 34.9 45.2003 34.6828C45.1961 34.6474 45.1918 34.611 45.1875 34.5757C45.9185 33.9913 46.2803 33.2678 46.1754 32.2992C46.1112 31.7074 46.0394 31.1112 45.9956 30.5258C45.9388 29.768 45.7333 29.0413 45.6863 28.2899C45.7622 28.3081 45.8372 28.3263 45.9132 28.3434C46.1593 28.4076 46.1272 28.626 46.1668 28.8047C46.3648 30.438 46.5211 32.0723 46.3627 33.7195C46.3584 33.8148 46.353 33.91 46.3488 34.0063C46.322 34.0556 46.2953 34.1037 46.2685 34.153C46.231 34.2193 46.1946 34.2868 46.1572 34.3531L46.1583 34.3542Z" fill="#64BCFD"/>
<path d="M45.9132 28.3445C45.8372 28.3263 45.7623 28.3081 45.6874 28.2921C45.5739 28.1176 45.5461 27.8875 45.3545 27.7591C45.2486 27.1875 44.9917 26.6481 44.9992 26.053C45.0591 26.038 45.1191 26.023 45.179 26.0081C45.2154 26.0327 45.2528 26.0584 45.2892 26.083C45.5333 26.8268 45.9325 27.5279 45.9121 28.3445H45.9132Z" fill="#0A0F1D"/>
<path d="M19.127 30.9709C19.2425 30.9067 19.3785 30.9217 19.3902 31.0255C19.4363 31.4055 19.7071 31.7201 19.676 32.1258C19.646 32.5111 19.661 32.9007 19.6567 33.2881C19.6386 33.2581 19.6032 33.2271 19.6054 33.1993C19.6567 32.4115 19.4716 31.6741 19.127 30.972V30.9709Z" fill="#4AB2FD"/>
<path d="M43.9924 23.3976C43.9549 23.3558 43.9174 23.3141 43.8789 23.2734C43.9581 23.2766 43.9966 23.3173 43.9924 23.3976Z" fill="#D9E9FB"/>
<path d="M15.3705 26.1472C15.3352 26.1118 15.3009 26.0776 15.2656 26.0423L15.287 26.0209C15.3224 26.0562 15.3587 26.0915 15.3941 26.1268L15.3716 26.1472H15.3705Z" fill="#D9E9FB"/>
<path d="M46.2695 34.1541C46.2963 34.1048 46.323 34.0567 46.3498 34.0074C46.323 34.0556 46.2963 34.1048 46.2695 34.1541Z" fill="#D9E9FB"/>
<path d="M21.2324 42.9571C21.9581 42.9518 22.6848 42.9475 23.4105 42.9421C22.6859 43.1958 21.9613 43.2964 21.2324 42.9571Z" fill="#64BCFD"/>
<path d="M29.0622 19.6024C29.304 19.1197 29.7953 19.2867 30.1774 19.1861C30.7575 19.0352 31.3697 19.0245 31.9327 18.7933C31.9808 18.774 32.0354 18.7558 32.0857 18.758C33.2705 18.8008 34.4703 18.5996 35.638 18.8682C36.2395 19.0063 36.825 19.1486 37.4457 19.2171C38.1928 19.2995 38.8382 19.7533 39.5157 20.0883C40.3644 20.5079 40.9905 21.2539 41.881 21.5953C42.1978 21.7162 42.2856 22.0705 42.4568 22.3188C42.8432 22.8786 43.5357 23.1718 43.7883 23.8172C44.0312 24.4391 44.423 24.9806 44.6648 25.5982C44.47 25.5982 44.3459 25.5811 44.2121 25.3552C43.9403 24.8961 43.8932 24.2796 43.3655 23.9927C43.1247 23.8622 42.9577 23.7626 42.9245 23.4319C42.8935 23.1119 42.5467 23.2328 42.3509 23.2778C42.1422 23.326 42.1764 23.5422 42.2824 23.6684C42.8197 24.3074 42.7116 25.1872 43.1814 25.8786C44.0152 27.1062 43.8439 28.6003 43.9991 29.9885C44.119 31.0524 44.0441 32.1269 43.6556 33.1844C43.4704 33.6896 43.2135 34.1337 42.9781 34.5993C42.6591 35.2286 42.0565 34.9696 41.5578 35.006C41.3287 35.0231 41.2335 35.1098 41.2474 35.3303C40.9574 35.4256 40.6598 35.4438 40.3559 35.4427C39.9491 35.4416 39.5778 35.569 39.1924 35.7092C38.85 35.8344 39.125 35.95 39.1047 36.0624C38.409 36.2625 37.7112 36.4584 37.0176 36.666C35.5759 37.0974 34.1086 36.9647 32.6412 36.8876C31.8931 36.848 30.5649 36.8876 29.8124 37.1016C29.2505 36.9015 29.8167 36.346 29.6872 36.8994C29.6316 37.1348 29.5395 37.3617 29.4646 37.5918C29.0964 37.3446 29.3329 36.9743 29.2858 36.665C29.2527 36.4477 29.2602 36.376 28.9615 36.361C28.0561 36.315 27.1517 36.1887 26.2569 36.0378C25.9701 35.9896 25.6297 35.8708 25.6308 35.4288C25.6319 35.1505 25.2723 35.1976 25.1481 34.9868C24.8827 34.5319 24.7168 34.046 24.69 33.5301C24.6579 32.9093 24.6076 32.3025 24.3925 31.7074C24.2608 31.3424 24.4385 30.9668 24.5391 30.6168C24.6611 30.1908 24.7778 29.7798 24.8163 29.3281C24.8484 28.9578 24.9019 28.5147 25.3986 28.3445C25.6554 28.2568 25.557 27.9357 25.5998 27.7281C25.8192 26.6727 25.7732 25.5629 26.3511 24.5825C26.5716 24.2089 26.6668 23.7605 26.8199 23.3463C26.8691 23.2136 26.8841 23.0252 26.9794 22.9621C27.3968 22.6891 27.3443 22.2856 27.3625 21.8779C27.3807 21.4562 27.689 21.2207 28.0582 21.1201C28.3354 21.0452 28.5077 20.9317 28.5356 20.6385C28.573 20.2264 29.0985 20.2157 29.1949 19.8422C29.2088 19.7886 29.3907 19.7844 29.3062 19.6698C29.2666 19.6163 29.1467 19.6217 29.0632 19.6003L29.0622 19.6024ZM30.3508 28.3745C29.9409 27.9528 29.0226 27.788 28.6394 28.0684C27.8891 28.6164 27.5488 29.3239 27.7842 30.2604C27.8527 30.5344 27.9533 30.7324 28.2873 30.5964C28.7796 30.8608 29.2869 30.9079 29.8124 30.7045C30.1635 31.1872 30.1367 30.6071 30.2545 30.5258C30.9576 30.0431 30.994 29.0006 30.3519 28.3734L30.3508 28.3745ZM38.1639 35.3185C39.0415 35.538 39.6805 34.7374 40.5367 34.671C40.8097 34.6496 41.1414 34.6015 41.4336 34.412C42.0533 34.0096 43.0241 31.9225 42.7009 31.275C42.3091 30.4894 42.3412 29.6021 41.9067 28.8197C41.332 27.7848 40.5731 26.9874 39.4557 26.7091C38.8243 26.5518 38.455 26.1526 37.9948 25.8165C37.4714 25.4344 37.2092 24.9774 37.3826 24.2807C37.4896 23.8504 37.3376 23.3848 37.358 22.9214C37.3847 22.3028 37.2863 21.636 36.6484 21.1971C35.7622 20.5882 34.8182 20.3709 33.7564 20.4565C32.2634 20.5764 30.9951 21.1511 29.9505 22.2107C29.6679 22.4975 29.3897 22.8668 29.4111 23.2714C29.4485 23.9724 29.7022 24.6274 30.2459 25.1144C30.5788 25.413 30.9683 25.7052 31.4403 25.5629C31.9455 25.4098 32.2227 25.6549 32.4667 26.0049C32.5791 26.1654 32.6433 26.3581 32.8553 26.4191C33.4696 26.5968 34.009 26.89 34.526 27.286C34.8374 27.5247 34.8867 27.7559 34.8139 28.0491C34.7293 28.3906 34.6309 28.7513 34.4393 29.0381C34.1086 29.5347 34.206 30.0506 34.2295 30.5793C34.2745 31.564 34.9776 32.3667 34.9841 33.361C34.9841 33.4252 35.0365 33.4926 35.0729 33.5536C35.7664 34.7074 36.7051 35.4406 38.165 35.3218L38.1639 35.3185ZM28.2091 33.7131C28.2091 33.5708 28.2102 33.4284 28.2091 33.2861C28.2038 32.6803 27.735 32.1205 27.1506 32.0199C26.3179 31.8765 25.9294 32.0499 25.695 32.7606C25.6041 33.0356 25.6458 33.3578 25.6479 33.6585C25.6544 34.4998 26.1927 35.0135 27.05 35.0092C27.933 35.0039 28.2102 34.6946 28.2102 33.7131H28.2091ZM33.0233 36.4841C32.7076 36.3878 32.5288 36.3161 32.3426 36.2786C31.6212 36.1309 30.9576 35.8087 30.2555 35.6011C30.0725 35.5465 29.9377 35.538 29.9227 35.7798C29.9098 35.9768 29.989 36.0924 30.1956 36.0763C30.4707 36.0549 30.7136 36.1898 30.9726 36.2262C31.6148 36.3161 32.2356 36.5697 33.0222 36.4841H33.0233Z" fill="#4AB2FD"/>
<path d="M15.3927 26.1258C15.3574 26.0905 15.321 26.0551 15.2857 26.0198C15.2803 25.9492 15.2739 25.8785 15.2686 25.8079C15.2718 25.6324 15.275 25.4569 15.2771 25.2813C15.2857 24.5749 15.5329 24.0762 16.2864 23.8589C16.5518 23.7819 16.9104 23.7915 17.0998 23.4961C17.8116 23.3623 18.5618 23.602 19.2543 23.2756C19.3421 23.2521 19.4298 23.2285 19.5176 23.205C19.6578 23.2456 19.8109 23.2649 19.9072 23.1418C20.2475 22.7041 20.7987 22.673 21.2408 22.4322C21.3895 22.3509 21.4613 22.46 21.4784 22.6045C21.3232 23.008 21.4666 23.4865 21.1616 23.8536C21.1198 23.9039 21.1188 24.0312 21.0834 24.0377C20.5462 24.134 20.1362 24.4786 19.6814 24.7366C19.0649 25.0855 18.3852 24.9495 17.7259 24.9549C17.4841 24.957 17.2539 24.972 17.0206 24.805C16.7209 24.591 16.4084 24.805 16.2254 25.0159C16.0659 25.2 16.3335 25.368 16.4469 25.5371C16.8665 26.1643 17.5397 26.5229 18.031 27.0719C18.0781 27.1244 18.1284 27.1757 18.183 27.2218C18.4398 27.4422 18.4998 27.8019 18.2964 27.9678C18.1038 28.1251 17.7795 27.91 17.635 27.6745C17.2422 27.0334 16.5583 26.8108 15.96 26.4672C15.8936 26.4287 15.7855 26.4629 15.6967 26.4629C15.6635 26.464 15.6314 26.4608 15.5993 26.4533C15.5308 26.3441 15.4612 26.235 15.3927 26.1258Z" fill="#4AB2FD"/>
<path d="M25.2188 21.333C25.2434 21.3148 25.2702 21.303 25.3002 21.2977C25.6908 21.3212 25.9359 20.9873 26.2805 20.8995C26.2153 21.272 26.0772 21.5642 25.6191 21.5385C25.5206 21.5331 25.3687 21.5578 25.328 21.622C24.8849 22.3252 24.065 22.5799 23.5203 23.1611C23.2859 23.4115 23.1649 23.8075 22.7154 23.8214C22.5902 23.6202 22.8214 23.4351 22.7721 23.2328C23.0579 23.4094 23.1681 23.1739 23.3255 23.0112C23.8606 22.4579 24.3497 21.8489 25.0701 21.5085C25.1846 21.5043 25.2124 21.4283 25.2188 21.333Z" fill="#4AB2FD"/>
<path d="M29.4656 37.5928C29.5406 37.3617 29.6337 37.1358 29.6883 36.9004C29.8178 36.347 29.8905 36.3042 30.4524 36.5033C30.2437 36.5012 30.1645 36.6018 30.11 36.8094C29.9954 37.245 29.852 37.6774 29.6743 38.0916C29.578 38.3164 29.501 38.6053 29.1777 38.646C29.2741 38.295 29.3693 37.9439 29.4656 37.5928Z" fill="#4AB2FD"/>
<path d="M21.4774 22.6045C21.4613 22.46 21.3896 22.3509 21.2398 22.4322C20.7988 22.6741 20.2465 22.7051 19.9062 23.1418C19.8109 23.2649 19.6568 23.2456 19.5166 23.205C20.1738 22.4215 21.1263 22.1036 21.9526 22.384C22.126 22.4429 22.2854 22.5018 22.3315 22.7041C22.0607 22.5521 21.7642 22.6099 21.4763 22.6045H21.4774Z" fill="#64BCFD"/>
<path d="M29.0787 38.7692C29.0712 38.8366 29.0637 38.903 29.0552 38.9704C28.9471 39.0367 28.9567 39.1491 28.9428 39.2529L28.9171 39.2872C28.8936 39.3161 28.87 39.3439 28.8465 39.3728C28.8143 39.4188 28.7822 39.4649 28.7491 39.5109C28.7148 39.5462 28.6806 39.5826 28.6452 39.6179V39.6233C28.6099 39.6158 28.5746 39.6136 28.5393 39.6158C28.489 39.1727 28.6474 38.8419 29.0616 38.6493C29.0669 38.69 29.0723 38.7296 29.0766 38.7702L29.0787 38.7692Z" fill="#4AB2FD"/>
<path d="M28.5414 39.6147C28.5767 39.6125 28.612 39.6147 28.6473 39.6222C28.6377 39.7046 28.6291 39.7859 28.5264 39.8073C28.5317 39.7431 28.536 39.6789 28.5414 39.6147Z" fill="#64BCFD"/>
<path d="M29.0785 38.7691C29.0731 38.7285 29.0678 38.6889 29.0635 38.6482C29.0988 38.6493 29.1341 38.6503 29.1694 38.6514C29.1395 38.6899 29.1084 38.7295 29.0785 38.7681V38.7691Z" fill="#64BCFD"/>
<path d="M41.2482 35.3313C41.2354 35.1109 41.3296 35.0242 41.5586 35.007C42.0584 34.9707 42.661 35.2297 42.9789 34.6003C43.2143 34.1348 43.4701 33.6906 43.6564 33.1854C44.0449 32.128 44.1198 31.0523 43.9999 29.9895C43.8437 28.6014 44.016 27.1062 43.1822 25.8796C42.7124 25.1882 42.8194 24.3074 42.2832 23.6695C42.1772 23.5432 42.052 23.4554 42.052 22.9203C41.7523 22.1871 41.3563 20.9402 42.5871 22.3851C42.6192 22.7158 43.1822 22.9738 43.3898 23.2788C43.925 23.83 44.0802 24.3866 44.3531 24.8468C44.4869 25.0726 44.5136 25.1144 44.6657 25.5992L44.6689 25.6024C44.5736 26.1536 44.7481 26.6727 44.9257 27.1682C44.9974 27.3684 45.0156 27.7109 45.3528 27.7601C45.5433 27.8886 45.5722 28.1176 45.6856 28.2931C45.7317 29.0434 45.9372 29.7701 45.9939 30.5279C46.0378 31.1133 46.1095 31.7095 46.1737 32.3014C46.2786 33.27 46.6895 34.1091 45.9585 34.6935C45.6332 34.9535 45.6375 35.007 44.4601 35.3324C44.0612 35.4427 43.7025 35.5538 43.2293 35.6706C42.6963 35.8023 42.0477 35.7749 41.5586 35.7637C41.4173 35.7605 41.8144 35.6738 41.6731 35.6706C41.7224 35.3164 41.4837 35.3249 41.2471 35.3324L41.2482 35.3313Z" fill="#299DFC"/>
<path d="M41.249 35.3313C41.4866 35.3238 41.7242 35.3153 41.675 35.6695C41.6268 35.7605 41.5369 35.7926 41.4524 35.7691C40.8498 35.5957 40.3221 35.9018 39.7634 36.0152C39.5494 36.0591 39.3257 36.0495 39.1063 36.0634C39.1266 35.951 38.8505 35.8354 39.1941 35.7102C39.5804 35.57 39.9518 35.4426 40.3575 35.4437C40.6614 35.4437 40.959 35.4276 41.249 35.3313Z" fill="#4AB2FD"/>
<path d="M28.9434 39.2518C28.9573 39.148 28.9466 39.0356 29.0557 38.9692C29.06 39.0795 29.0878 39.1994 28.9434 39.2518Z" fill="#64BCFD"/>
<path d="M28.6465 39.6168C28.6807 39.5815 28.715 39.5451 28.7503 39.5098C28.7161 39.5451 28.6818 39.5815 28.6465 39.6168Z" fill="#64BCFD"/>
<path d="M21.7753 42.0689C21.1706 42.0796 20.9951 41.7831 21.1952 41.2811C21.543 40.4067 22.1456 39.7367 22.9023 39.1919C23.1067 39.0442 23.2684 39.0688 23.4064 39.2486C23.567 39.4584 23.7157 39.6789 23.8452 39.9079C24.0283 40.2312 23.6504 40.3029 23.5648 40.5041C23.4449 40.7845 23.2512 41.0146 23.1099 41.2768C22.7878 41.873 22.075 41.7146 21.7764 42.0689H21.7753Z" fill="#64BCFD"/>
<path d="M20.7375 42.4916C20.7504 42.5087 20.7632 42.5258 20.7761 42.544C20.759 42.5312 20.7418 42.5183 20.7236 42.5055L20.7375 42.4916Z" fill="#299DFC"/>
<path d="M45.3548 27.759C45.0177 27.7087 44.9995 27.3662 44.9278 27.1672C44.7501 26.6716 44.5746 26.1514 44.6709 25.6013C44.9695 25.6142 44.9898 25.8304 45.0005 26.0541C44.9931 26.6491 45.2499 27.1886 45.3559 27.7601L45.3548 27.759Z" fill="#299DFC"/>
<path d="M25.2191 21.333C25.2116 21.4272 25.1838 21.5043 25.0703 21.5085C25.1195 21.4497 25.1698 21.3919 25.2191 21.333Z" fill="#64BCFD"/>
<path d="M17.0998 23.4961C16.9103 23.7915 16.5518 23.7818 16.2863 23.8589C15.5318 24.0762 15.2856 24.5749 15.2771 25.2813C15.2749 25.4568 15.2717 25.6324 15.2685 25.8079C14.7794 24.6916 15.2182 23.8139 16.3837 23.5753C16.4854 23.5539 16.5839 23.5164 16.6845 23.4854C16.8226 23.4886 16.9606 23.4928 17.0998 23.4961Z" fill="#64BCFD"/>
<path d="M38.1652 35.3196C36.7053 35.4384 35.7656 34.7052 35.0731 33.5514C35.0368 33.4904 34.9854 33.423 34.9843 33.3588C34.9779 32.3645 34.2747 31.5618 34.2298 30.5771C34.2051 30.0495 34.1088 29.5336 34.4395 29.0359C34.63 28.7491 34.7296 28.3884 34.8141 28.0469C34.8869 27.7537 34.8388 27.5236 34.5262 27.2838C34.0104 26.8889 33.4709 26.5946 32.8555 26.4169C32.6447 26.3559 32.5794 26.1632 32.467 26.0027C32.2219 25.6527 32.497 26.0316 31.9918 26.1846C31.5209 26.327 30.5801 25.4108 30.2461 25.1122C29.7024 24.6263 29.4488 23.9713 29.4113 23.2692C29.3899 22.8657 29.6682 22.4954 29.9507 22.2085C30.9953 21.1489 32.2636 20.5742 33.7567 20.4543C34.8184 20.3687 35.7624 20.586 36.6486 21.195C37.2876 21.6338 37.385 22.3016 37.3582 22.9192C37.339 23.3826 37.4899 23.8493 37.3828 24.2785C37.2094 24.9763 37.4717 25.4333 37.995 25.8143C38.4553 26.1504 38.8245 26.5496 39.456 26.7069C40.5734 26.9841 41.3322 27.7826 41.9069 28.8176C42.3415 29.5999 42.3083 30.4861 42.7011 31.2728C43.0243 31.9214 42.0536 34.0074 41.4339 34.4098C41.1417 34.5993 40.8099 34.6485 40.537 34.6688C39.6818 34.7352 39.0418 35.5358 38.1641 35.3164L38.1652 35.3196Z" fill="#64BCFD"/>
<path d="M29.8124 30.7045C29.2869 30.9079 28.7796 30.8608 28.2872 30.5964C27.9672 30.1437 27.6964 29.692 28.0229 29.1119C28.5644 28.1476 29.0354 27.9892 30.2512 28.4045C30.8088 29.4052 30.7232 29.8579 29.8124 30.7045Z" fill="#0A0F1D"/>
<path d="M28.2104 33.7141C28.2104 34.6966 27.9332 35.0059 27.0502 35.0102C26.194 35.0145 25.6545 34.5008 25.6481 33.6595C25.646 33.3588 25.6042 33.0366 25.6952 32.7615C25.9296 32.0519 26.3181 31.8775 27.1508 32.0209C27.7352 32.1215 28.204 32.6813 28.2093 33.287C28.2104 33.4294 28.2093 33.5717 28.2093 33.7141H28.2104ZM26.2914 33.4091C26.2967 33.6702 26.2304 33.9999 26.6649 33.9324C27.0502 33.8725 27.337 33.6039 27.4248 33.2592C27.4698 33.0816 27.4291 32.6866 27.0331 32.6898C26.4947 32.6941 26.2871 32.9017 26.2914 33.4091Z" fill="#64BCFD"/>
<path d="M30.2516 28.4055C29.0346 27.9902 28.5648 28.1486 28.0232 29.113C27.6978 29.6931 27.9676 30.1447 28.2876 30.5975C27.9547 30.7323 27.8541 30.5343 27.7856 30.2614C27.5501 29.3249 27.8905 28.6174 28.6408 28.0694C29.0239 27.789 29.9422 27.9538 30.3522 28.3755C30.3168 28.3809 30.2837 28.3905 30.2516 28.4055Z" fill="#64BCFD"/>
<path d="M33.0244 36.4851C32.2377 36.5708 31.6159 36.316 30.9748 36.2272C30.7157 36.1908 30.4728 36.057 30.1977 36.0774C29.9912 36.0934 29.9109 35.9778 29.9248 35.7809C29.9409 35.5401 30.0746 35.5486 30.2577 35.6021C30.9598 35.8098 31.6233 36.1319 32.3447 36.2796C32.531 36.3171 32.7097 36.3888 33.0254 36.4851H33.0244Z" fill="#4AB2FD"/>
<path d="M30.2513 28.4055C30.2834 28.3905 30.3166 28.3808 30.3519 28.3755C30.9941 29.0016 30.9588 30.0441 30.2545 30.5278C30.1368 30.6081 30.1625 31.1882 29.8125 30.7055C30.7233 29.8589 30.8089 29.4062 30.2513 28.4055Z" fill="#299DFC"/>
<path d="M26.2904 33.409C26.2861 32.9017 26.4938 32.6941 27.0321 32.6887C27.4281 32.6855 27.4699 33.0805 27.4239 33.2581C27.3361 33.6028 27.0493 33.8714 26.664 33.9313C26.2294 33.9988 26.2958 33.6691 26.2894 33.408L26.2904 33.409Z" fill="#D9E9FB"/>
</g>
<path d="M25.891 36.1383C21.3101 32.3281 25.0881 22.4921 28.8342 19.6024L29.5834 19.3883L27.0682 26.0776L25.0882 33.195L26.212 35.4426H28.8342C29.3337 35.6745 30.1828 36.3417 29.5834 37.1551C28.9841 37.9685 26.872 36.8162 25.891 36.1383Z" fill="#4AB2FD"/>
<path d="M34.1321 26.6128C29.0804 26.57 29.1375 23.9906 29.7975 22.7062L34.1321 22.4922L37.129 26.1847C38.1814 26.4344 40.6502 27.5333 42.1058 29.9307C43.5614 32.3281 42.2485 33.9621 41.4101 34.4794C40.5896 34.8719 38.4775 35.5283 36.5938 35.0146C34.2392 34.3724 33.383 31.9642 34.3462 29.9307C35.1168 28.3039 34.5246 27.0409 34.1321 26.6128Z" fill="#64BCFD"/>
<path d="M24.2318 37.5833C23.5896 37.7795 22.2839 38.1934 22.1982 38.279L21.6631 36.8341H24.3923C25.4805 37.2622 26.4794 37.1017 27.8708 37.2622C29.2621 37.4228 29.5832 36.8341 30.2789 36.8341C30.9746 36.8341 27.1751 41.7039 26.4794 41.7039C26.1048 41.918 25.9228 42.1427 26.2653 41.5434C26.6078 40.944 25.0523 38.6536 24.2318 37.5833Z" fill="#299DFC"/>
<defs>
<clipPath id="clip0_1559_17130">
<rect width="31.8946" height="28.3627" fill="white" transform="translate(14.8135 15.0001)"/>
</clipPath>
</defs>
</svg>
