<svg width="58" height="56" viewBox="0 0 58 56" fill="none" xmlns="http://www.w3.org/2000/svg">
<path d="M4.00786 42.6244C2.3408 39.7703 6.27989 35.6766 6.09045 33.6111C6.09045 30.7948 0.976221 28.1657 0.786783 24.4103C0.597344 20.6548 7.98546 18.4016 9.12209 16.5239C10.2587 14.6462 8.55377 9.76411 10.0693 7.13565C11.5848 4.50719 18.9729 7.13565 21.625 7.13565C24.2772 7.13565 25.9821 0 29.392 0C32.8019 0 35.6435 5.63348 38.1062 7.13565C40.5689 8.63782 45.6838 3.19245 48.3359 6.57233C50.9881 9.95222 48.7148 14.0832 49.8514 16.5242C51.6874 20.4671 57.9973 21.0304 57.9973 24.7862C57.9973 28.9311 52.8825 30.6071 52.693 33.4236C52.5036 36.2402 55.3452 40.5589 53.8296 43.1877C52.3141 45.8165 47.0098 45.0655 44.1683 46.9432C41.3267 48.8209 42.4633 55.3929 38.4851 55.9562C34.5069 56.5195 32.6125 51.4497 28.6343 52.2008C24.6561 52.9519 22.7617 56.5195 19.3518 55.3929C15.9419 54.2663 15.7524 47.6943 13.2897 46.3799C10.827 45.0655 6.09169 46.1921 4.00786 42.6244Z" fill="#54B751"/>
</svg>
