<svg width="36" height="36" viewBox="0 0 36 36" fill="none" xmlns="http://www.w3.org/2000/svg">
<path d="M13.5 23.3994C13.5 22.955 13.4982 22.7114 13.4839 22.5366C13.4834 22.5299 13.4815 22.5236 13.481 22.5176C13.4754 22.5171 13.4696 22.5166 13.4634 22.5161C13.2886 22.5019 13.045 22.5 12.6006 22.5H6.89944C6.45502 22.5 6.21144 22.5019 6.03664 22.5161C6.02995 22.5167 6.0236 22.517 6.0176 22.5176C6.01705 22.5236 6.01668 22.53 6.01613 22.5366C6.00185 22.7114 6.00002 22.955 6.00002 23.3994V29.1006C6.00002 29.545 6.00185 29.7886 6.01613 29.9634C6.01664 29.9695 6.01709 29.9754 6.0176 29.981C6.02364 29.9815 6.02991 29.9834 6.03664 29.9839C6.21144 29.9982 6.45502 30 6.89944 30H12.6006C13.045 30 13.2886 29.9982 13.4634 29.9839C13.4696 29.9834 13.4754 29.9815 13.481 29.981C13.4815 29.9754 13.4834 29.9696 13.4839 29.9634C13.4982 29.7886 13.5 29.545 13.5 29.1006V23.3994ZM19.5 31.5V24.75C19.5 23.9216 20.1716 23.25 21 23.25C21.8284 23.25 22.5 23.9216 22.5 24.75V31.5C22.5 32.3284 21.8284 33 21 33C20.1716 33 19.5 32.3284 19.5 31.5ZM30 25.5C30 24.6716 30.6716 24 31.5 24C32.3284 24 33 24.6716 33 25.5V31.5C33 32.3284 32.3284 33 31.5 33H25.5C24.6716 33 24 32.3284 24 31.5C24 30.6716 24.6716 30 25.5 30H30V25.5ZM9.76467 24.75C10.5931 24.75 11.2647 25.4216 11.2647 26.25C11.2647 27.0784 10.5931 27.75 9.76467 27.75H9.75002C8.92159 27.75 8.25002 27.0784 8.25002 26.25C8.25002 25.4216 8.92159 24.75 9.75002 24.75H9.76467ZM26.2647 24.75C27.0931 24.75 27.7647 25.4216 27.7647 26.25C27.7647 27.0784 27.0931 27.75 26.2647 27.75H26.25C25.4216 27.75 24.75 27.0784 24.75 26.25C24.75 25.4216 25.4216 24.75 26.25 24.75H26.2647ZM31.5 19.5C32.3284 19.5 33 20.1716 33 21C33 21.8284 32.3284 22.5 31.5 22.5H24.75C23.9216 22.5 23.25 21.8284 23.25 21C23.25 20.1716 23.9216 19.5 24.75 19.5H31.5ZM19.5147 18C20.3431 18 21.0147 18.6716 21.0147 19.5C21.0147 20.3284 20.3431 21 19.5147 21H19.5C18.6716 21 18 20.3284 18 19.5C18 18.6716 18.6716 18 19.5 18H19.5147ZM13.5 6.89944C13.5 6.45502 13.4982 6.21144 13.4839 6.03664C13.4834 6.02991 13.4815 6.02364 13.481 6.0176C13.4754 6.01709 13.4696 6.01664 13.4634 6.01613C13.2886 6.00185 13.045 6.00002 12.6006 6.00002H6.89944C6.45502 6.00002 6.21144 6.00185 6.03664 6.01613C6.02995 6.01668 6.0236 6.01705 6.0176 6.0176C6.01705 6.0236 6.01668 6.02995 6.01613 6.03664C6.00185 6.21144 6.00002 6.45502 6.00002 6.89944V12.6006C6.00002 13.045 6.00185 13.2886 6.01613 13.4634C6.01664 13.4696 6.01709 13.4754 6.0176 13.481C6.02364 13.4815 6.02991 13.4834 6.03664 13.4839C6.21144 13.4982 6.45502 13.5 6.89944 13.5H12.6006C13.045 13.5 13.2886 13.4982 13.4634 13.4839C13.4696 13.4834 13.4754 13.4815 13.481 13.481C13.4815 13.4754 13.4834 13.4696 13.4839 13.4634C13.4982 13.2886 13.5 13.045 13.5 12.6006V6.89944ZM30 6.89944C30 6.45502 29.9982 6.21144 29.9839 6.03664C29.9834 6.02991 29.9815 6.02364 29.981 6.0176C29.9754 6.01709 29.9695 6.01664 29.9634 6.01613C29.7886 6.00185 29.545 6.00002 29.1006 6.00002H23.3994C22.955 6.00002 22.7114 6.00185 22.5366 6.01613C22.53 6.01668 22.5236 6.01705 22.5176 6.0176C22.517 6.0236 22.5167 6.02995 22.5161 6.03664C22.5019 6.21144 22.5 6.45502 22.5 6.89944V12.6006C22.5 13.045 22.5019 13.2886 22.5161 13.4634C22.5166 13.4696 22.5171 13.4754 22.5176 13.481C22.5236 13.4815 22.5299 13.4834 22.5366 13.4839C22.7114 13.4982 22.955 13.5 23.3994 13.5H29.1006C29.545 13.5 29.7886 13.4982 29.9634 13.4839C29.9696 13.4834 29.9754 13.4815 29.981 13.481C29.9815 13.4754 29.9834 13.4696 29.9839 13.4634C29.9982 13.2886 30 13.045 30 12.6006V6.89944ZM9.76467 8.25002C10.5931 8.25002 11.2647 8.92159 11.2647 9.75002C11.2647 10.5784 10.5931 11.25 9.76467 11.25H9.75002C8.92159 11.25 8.25002 10.5784 8.25002 9.75002C8.25002 8.92159 8.92159 8.25002 9.75002 8.25002H9.76467ZM26.2647 8.25002C27.0931 8.25002 27.7647 8.92159 27.7647 9.75002C27.7647 10.5784 27.0931 11.25 26.2647 11.25H26.25C25.4216 11.25 24.75 10.5784 24.75 9.75002C24.75 8.92159 25.4216 8.25002 26.25 8.25002H26.2647ZM16.5 29.1006C16.5 29.4957 16.5017 29.8828 16.4751 30.208C16.4471 30.5508 16.3807 30.9554 16.1734 31.3623C15.8858 31.9267 15.4267 32.3858 14.8623 32.6734C14.4554 32.8807 14.0508 32.9471 13.708 32.9751C13.3828 33.0017 12.9957 33 12.6006 33H6.89944C6.50435 33 6.11723 33.0017 5.79201 32.9751C5.44926 32.9471 5.04461 32.8807 4.63772 32.6734C4.07334 32.3858 3.61428 31.9267 3.32668 31.3623C3.11936 30.9554 3.05297 30.5508 3.02492 30.208C2.99835 29.8828 3.00002 29.4957 3.00002 29.1006V23.3994C3.00002 23.0044 2.99835 22.6172 3.02492 22.292C3.05297 21.9493 3.11936 21.5446 3.32668 21.1377C3.61428 20.5733 4.07334 20.1143 4.63772 19.8267C5.04461 19.6194 5.44926 19.553 5.79201 19.5249C6.11723 19.4984 6.50435 19.5 6.89944 19.5H12.6006C12.9957 19.5 13.3828 19.4984 13.708 19.5249C14.0508 19.553 14.4554 19.6194 14.8623 19.8267C15.3562 20.0783 15.7694 20.4613 16.0576 20.9312L16.1734 21.1377L16.3037 21.4424C16.411 21.7437 16.4541 22.0351 16.4751 22.292C16.5017 22.6172 16.5 23.0044 16.5 23.3994V29.1006ZM16.5 12.6006C16.5 12.9957 16.5017 13.3828 16.4751 13.708C16.4471 14.0508 16.3807 14.4554 16.1734 14.8623C15.8858 15.4267 15.4267 15.8858 14.8623 16.1734C14.4554 16.3807 14.0508 16.4471 13.708 16.4751C13.3828 16.5017 12.9957 16.5 12.6006 16.5H6.89944C6.50435 16.5 6.11723 16.5017 5.79201 16.4751C5.44926 16.4471 5.04461 16.3807 4.63772 16.1734C4.07334 15.8858 3.61428 15.4267 3.32668 14.8623C3.11936 14.4554 3.05297 14.0508 3.02492 13.708C2.99835 13.3828 3.00002 12.9957 3.00002 12.6006V6.89944C3.00002 6.50435 2.99835 6.11723 3.02492 5.79201C3.05297 5.44926 3.11936 5.04461 3.32668 4.63772C3.61428 4.07334 4.07334 3.61428 4.63772 3.32668C5.04461 3.11936 5.44926 3.05297 5.79201 3.02492C6.11723 2.99835 6.50435 3.00002 6.89944 3.00002H12.6006C12.9957 3.00002 13.3828 2.99835 13.708 3.02492C14.0508 3.05297 14.4554 3.11936 14.8623 3.32668C15.3562 3.57834 15.7694 3.96129 16.0576 4.43117L16.1734 4.63772L16.3037 4.9424C16.411 5.24366 16.4541 5.5351 16.4751 5.79201C16.5017 6.11723 16.5 6.50435 16.5 6.89944V12.6006ZM33 12.6006C33 12.9957 33.0017 13.3828 32.9751 13.708C32.9471 14.0508 32.8807 14.4554 32.6734 14.8623C32.3858 15.4267 31.9267 15.8858 31.3623 16.1734C30.9554 16.3807 30.5508 16.4471 30.208 16.4751C29.8828 16.5017 29.4957 16.5 29.1006 16.5H23.3994C23.0044 16.5 22.6172 16.5017 22.292 16.4751C21.9493 16.4471 21.5446 16.3807 21.1377 16.1734C20.5733 15.8858 20.1143 15.4267 19.8267 14.8623C19.6194 14.4554 19.553 14.0508 19.5249 13.708C19.4984 13.3828 19.5 12.9957 19.5 12.6006V6.89944C19.5 6.50435 19.4984 6.11723 19.5249 5.79201C19.553 5.44926 19.6194 5.04461 19.8267 4.63772C20.1143 4.07334 20.5733 3.61428 21.1377 3.32668C21.5446 3.11936 21.9493 3.05297 22.292 3.02492C22.6172 2.99835 23.0044 3.00002 23.3994 3.00002H29.1006C29.4957 3.00002 29.8828 2.99835 30.208 3.02492C30.5508 3.05297 30.9554 3.11936 31.3623 3.32668C31.8562 3.57834 32.2694 3.9613 32.5576 4.43117L32.6734 4.63772L32.8037 4.9424C32.911 5.24366 32.9541 5.5351 32.9751 5.79201C33.0017 6.11723 33 6.50435 33 6.89944V12.6006Z" fill="#54B751"/>
</svg>
