<svg width="191" height="187" viewBox="0 0 191 187" fill="none" xmlns="http://www.w3.org/2000/svg">
<path d="M10.765 142.335C5.19979 132.804 18.3498 119.134 17.7174 112.237C17.7174 102.833 0.64436 94.0533 0.0119494 81.5129C-0.620461 68.9724 24.0436 61.4482 27.838 55.1779C31.6325 48.9077 25.9408 32.6052 31.0001 23.828C36.0594 15.0508 60.7234 23.828 69.5771 23.828C78.4309 23.828 84.1226 0 95.506 0C106.889 0 116.376 18.8118 124.597 23.828C132.818 28.8441 149.893 10.6605 158.747 21.9469C167.601 33.2333 160.012 47.0278 163.806 55.1791C169.935 68.3454 191 70.2265 191 82.7681C191 96.6092 173.925 102.206 173.292 111.611C172.66 121.016 182.146 135.438 177.087 144.216C172.028 152.995 154.32 150.486 144.834 156.757C135.348 163.027 139.142 184.973 125.862 186.854C112.581 188.735 106.257 171.805 92.9763 174.313C79.6957 176.821 73.3716 188.735 61.9882 184.973C50.6048 181.211 49.9724 159.265 41.7511 154.876C33.5297 150.486 17.7215 154.249 10.765 142.335Z" fill="#54B751"/>
<path d="M120.791 71.4805L89.17 117.253L70.8301 97.8154" stroke="white" stroke-width="17" stroke-linecap="round" stroke-linejoin="round"/>
</svg>
