<svg xmlns="http://www.w3.org/2000/svg" width="56" height="56" viewBox="0 0 56 56" fill="none">
<path id="Icon (Stroke)" d="M49 14.4665C49 13.1212 48.9971 12.252 48.9431 11.5908C48.8913 10.9571 48.8036 10.7218 48.7448 10.6065C48.5212 10.1679 48.1649 9.81153 47.7263 9.5879C47.6109 9.52913 47.3756 9.44145 46.7419 9.38966C46.0808 9.33564 45.2116 9.33269 43.8663 9.33269H42.9343C40.2826 9.33269 38.4331 9.33364 36.9939 9.45118C35.5818 9.56655 34.7692 9.78294 34.1547 10.096C32.8382 10.767 31.7677 11.8375 31.0967 13.154C30.7836 13.7685 30.5672 14.5811 30.4519 15.9932C30.3931 16.7129 30.3645 17.5351 30.3493 18.5088L30.3334 21.9336V42.2568C31.4997 41.3151 32.8359 40.6055 34.2709 40.1696C36.0067 39.6425 37.8817 39.666 40.6579 39.666H43.8663C45.2116 39.666 46.0808 39.6631 46.7419 39.6091C47.3756 39.5573 47.6109 39.4696 47.7263 39.4108C48.1649 39.1872 48.5212 38.8309 48.7448 38.3923C48.8036 38.2769 48.8913 38.0416 48.9431 37.4079C48.9971 36.7468 49 35.8775 49 34.5322V14.4665ZM7.00005 34.5322C7.00005 35.8775 7.003 36.7468 7.05702 37.4079C7.10881 38.0416 7.19648 38.2769 7.25526 38.3923C7.47889 38.8309 7.83522 39.1872 8.27381 39.4108C8.38917 39.4696 8.62449 39.5573 9.25819 39.6091C9.91931 39.6631 10.7885 39.666 12.1338 39.666H15.3422C18.1184 39.666 19.9934 39.6425 21.7292 40.1696C23.1642 40.6055 24.5004 41.3151 25.6667 42.2568V21.9336C25.6667 19.2819 25.6658 17.4324 25.5482 15.9932C25.4329 14.5811 25.2165 13.7685 24.9034 13.154C24.2324 11.8375 23.1619 10.767 21.8454 10.096C21.2309 9.78294 20.4183 9.56655 19.0062 9.45118C17.567 9.33364 15.7175 9.33269 13.0658 9.33269H12.1338C10.7885 9.33269 9.91931 9.33564 9.25819 9.38966C8.62449 9.44145 8.38917 9.52912 8.27381 9.5879C7.83522 9.81153 7.47889 10.1679 7.25526 10.6065C7.19648 10.7218 7.10881 10.9571 7.05702 11.5908C7.003 12.252 7.00005 13.1212 7.00005 14.4665V34.5322ZM53.6667 34.5322C53.6667 35.8005 53.6692 36.8932 53.5961 37.7884C53.5207 38.7107 53.3531 39.6287 52.9034 40.5114C52.2324 41.8279 51.1619 42.8983 49.8454 43.5693C48.9627 44.0191 48.0447 44.1867 47.1224 44.2621C46.2272 44.3352 45.1345 44.3327 43.8663 44.3327H40.6579C37.5913 44.3327 36.5429 44.3575 35.6267 44.6357C34.7467 44.9031 33.9287 45.3416 33.2181 45.9255C32.4783 46.5336 31.8753 47.3906 30.1739 49.9427L29.9415 50.2936C29.5087 50.9428 28.7802 51.3327 28.0001 51.3327C27.2199 51.3327 26.4914 50.9428 26.0586 50.2936L25.8262 49.9427C24.1248 47.3906 23.5218 46.5336 22.782 45.9255C22.0714 45.3416 21.2534 44.9031 20.3734 44.6357C19.4572 44.3575 18.4088 44.3327 15.3422 44.3327H12.1338C10.8656 44.3327 9.77289 44.3352 8.87766 44.2621C7.95539 44.1867 7.03737 44.0191 6.15467 43.5693C4.83815 42.8983 3.76774 41.8279 3.09673 40.5114C2.64698 39.6287 2.47941 38.7107 2.40402 37.7884C2.33088 36.8932 2.33338 35.8005 2.33338 34.5322V14.4665C2.33338 13.1982 2.33088 12.1055 2.40402 11.2103C2.47941 10.288 2.64698 9.37001 3.09673 8.48731C3.76774 7.17079 4.83815 6.10038 6.15467 5.42937C7.03737 4.97962 7.95539 4.81206 8.87766 4.73666C9.77289 4.66352 10.8656 4.66603 12.1338 4.66603H13.0658C15.6408 4.66603 17.7134 4.66375 19.3868 4.80047C21.0871 4.93939 22.5805 5.23364 23.9623 5.93751C25.5578 6.75047 26.9364 7.91632 28.0001 9.33497C29.0637 7.91632 30.4423 6.75047 32.0378 5.93751C33.4196 5.23364 34.913 4.93939 36.6133 4.80047C38.2867 4.66375 40.3593 4.66603 42.9343 4.66603H43.8663C45.1345 4.66603 46.2272 4.66352 47.1224 4.73666C48.0447 4.81206 48.9627 4.97962 49.8454 5.42937C51.1619 6.10038 52.2324 7.1708 52.9034 8.48731C53.3531 9.37001 53.5207 10.288 53.5961 11.2103C53.6692 12.1055 53.6667 13.1982 53.6667 14.4665V34.5322Z" fill="#ffffff" />
</svg>
