<svg width="57" height="57" viewBox="0 0 57 57" fill="none" xmlns="http://www.w3.org/2000/svg">
<path d="M49.875 47.4995C51.1865 47.4995 52.2497 48.563 52.25 49.8745C52.25 51.1861 51.1867 52.2495 49.875 52.2495H7.125C5.81332 52.2495 4.75 51.1861 4.75 49.8745C4.75028 48.563 5.8135 47.4995 7.125 47.4995H49.875ZM11.875 42.7495V23.7495C11.8753 22.438 12.9385 21.3745 14.25 21.3745C15.5615 21.3745 16.6247 22.438 16.625 23.7495V42.7495C16.625 44.0611 15.5617 45.1245 14.25 45.1245C12.9383 45.1245 11.875 44.0611 11.875 42.7495ZM21.375 42.7495V23.7495C21.3753 22.438 22.4385 21.3745 23.75 21.3745C25.0615 21.3745 26.1247 22.438 26.125 23.7495V42.7495C26.125 44.0611 25.0617 45.1245 23.75 45.1245C22.4383 45.1245 21.375 44.0611 21.375 42.7495ZM30.875 42.7495V23.7495C30.8753 22.438 31.9385 21.3745 33.25 21.3745C34.5615 21.3745 35.6247 22.438 35.625 23.7495V42.7495C35.625 44.0611 34.5617 45.1245 33.25 45.1245C31.9383 45.1245 30.875 44.0611 30.875 42.7495ZM40.375 42.7495V23.7495C40.3753 22.438 41.4385 21.3745 42.75 21.3745C44.0615 21.3745 45.1247 22.438 45.125 23.7495V42.7495C45.125 44.0611 44.0617 45.1245 42.75 45.1245C41.4383 45.1245 40.375 44.0611 40.375 42.7495ZM28.8966 2.61103L29.2886 2.67597L29.5391 2.74555C30.109 2.9273 30.5756 3.24578 30.766 3.36481L48.7594 14.6113C49.6574 15.1729 50.0743 16.2626 49.7822 17.2808C49.4897 18.2986 48.5591 18.9995 47.5 18.9995H9.5C8.44091 18.9995 7.51025 18.2986 7.21777 17.2808C6.92575 16.2626 7.34255 15.1729 8.2406 14.6113L26.234 3.36481C26.4516 3.22879 27.0302 2.83076 27.7114 2.67597L28.1034 2.61103C28.367 2.58148 28.633 2.58148 28.8966 2.61103ZM17.7847 14.2495H39.2153L28.5 7.55121L17.7847 14.2495Z" fill="white"/>
</svg>
