<svg width="56" height="56" viewBox="0 0 56 56" fill="none" xmlns="http://www.w3.org/2000/svg">
<path d="M49 14.467C49 13.1217 48.9971 12.2524 48.9431 11.5913C48.8913 10.9576 48.8036 10.7223 48.7448 10.6069C48.5212 10.1683 48.1649 9.81201 47.7263 9.58839C47.6109 9.52961 47.3756 9.44194 46.7419 9.39015C46.0808 9.33613 45.2116 9.33318 43.8663 9.33318H42.9343C40.2826 9.33318 38.4331 9.33413 36.9939 9.45167C35.5818 9.56704 34.7692 9.78343 34.1547 10.0965C32.8382 10.7675 31.7677 11.8379 31.0967 13.1545C30.7836 13.769 30.5672 14.5816 30.4519 15.9937C30.3931 16.7134 30.3645 17.5356 30.3493 18.5093L30.3334 21.9341V42.2573C31.4997 41.3156 32.8359 40.606 34.2709 40.1701C36.0067 39.643 37.8817 39.6665 40.6579 39.6665H43.8663C45.2116 39.6665 46.0808 39.6636 46.7419 39.6095C47.3756 39.5578 47.6109 39.4701 47.7263 39.4113C48.1649 39.1877 48.5212 38.8314 48.7448 38.3928C48.8036 38.2774 48.8913 38.0421 48.9431 37.4084C48.9971 36.7473 49 35.878 49 34.5327V14.467ZM7.00005 34.5327C7.00005 35.878 7.003 36.7473 7.05702 37.4084C7.10881 38.0421 7.19648 38.2774 7.25526 38.3928C7.47889 38.8313 7.83522 39.1877 8.27381 39.4113C8.38917 39.4701 8.62449 39.5578 9.25819 39.6095C9.91931 39.6636 10.7885 39.6665 12.1338 39.6665H15.3422C18.1184 39.6665 19.9934 39.643 21.7292 40.1701C23.1642 40.606 24.5004 41.3156 25.6667 42.2573V21.9341C25.6667 19.2824 25.6658 17.4329 25.5482 15.9937C25.4329 14.5816 25.2165 13.769 24.9034 13.1545C24.2324 11.8379 23.1619 10.7675 21.8454 10.0965C21.2309 9.78343 20.4183 9.56704 19.0062 9.45167C17.567 9.33413 15.7175 9.33318 13.0658 9.33318H12.1338C10.7885 9.33318 9.91931 9.33613 9.25819 9.39015C8.62449 9.44194 8.38917 9.52961 8.27381 9.58839C7.83522 9.81202 7.47889 10.1683 7.25526 10.6069C7.19648 10.7223 7.10881 10.9576 7.05702 11.5913C7.003 12.2524 7.00005 13.1217 7.00005 14.467V34.5327ZM53.6667 34.5327C53.6667 35.801 53.6692 36.8937 53.5961 37.7889C53.5207 38.7112 53.3531 39.6292 52.9034 40.5119C52.2324 41.8284 51.162 42.8988 49.8454 43.5698C48.9627 44.0196 48.0447 44.1871 47.1224 44.2625C46.2272 44.3357 45.1345 44.3332 43.8663 44.3332H40.6579C37.5913 44.3332 36.5429 44.358 35.6267 44.6362C34.7467 44.9036 33.9287 45.3421 33.2181 45.926C32.4783 46.534 31.8753 47.3911 30.1739 49.9432L29.9415 50.2941C29.5087 50.9432 28.7802 51.3332 28.0001 51.3332C27.2199 51.3332 26.4914 50.9432 26.0586 50.2941L25.8262 49.9432C24.1248 47.3911 23.5218 46.534 22.782 45.926C22.0714 45.3421 21.2534 44.9036 20.3734 44.6362C19.4572 44.358 18.4088 44.3332 15.3422 44.3332H12.1338C10.8656 44.3332 9.77289 44.3357 8.87766 44.2625C7.95539 44.1871 7.03737 44.0196 6.15467 43.5698C4.83815 42.8988 3.76774 41.8284 3.09673 40.5119C2.64698 39.6292 2.47941 38.7112 2.40402 37.7889C2.33088 36.8937 2.33338 35.801 2.33338 34.5327V14.467C2.33338 13.1987 2.33088 12.106 2.40402 11.2108C2.47941 10.2885 2.64698 9.3705 3.09673 8.4878C3.76774 7.17128 4.83815 6.10087 6.15467 5.42986C7.03737 4.98011 7.95539 4.81254 8.87766 4.73715C9.77289 4.66401 10.8656 4.66651 12.1338 4.66651H13.0658C15.6408 4.66651 17.7134 4.66424 19.3868 4.80095C21.0871 4.93988 22.5805 5.23413 23.9623 5.938C25.5578 6.75096 26.9364 7.91681 28.0001 9.33546C29.0637 7.91681 30.4423 6.75096 32.0378 5.938C33.4196 5.23413 34.913 4.93988 36.6133 4.80095C38.2867 4.66424 40.3593 4.66651 42.9343 4.66651H43.8663C45.1345 4.66651 46.2272 4.66401 47.1224 4.73715C48.0447 4.81254 48.9627 4.98011 49.8454 5.42986C51.162 6.10087 52.2324 7.17128 52.9034 8.4878C53.3531 9.3705 53.5207 10.2885 53.5961 11.2108C53.6692 12.106 53.6667 13.1987 53.6667 14.467V34.5327Z" fill="white"/>
</svg>
