<svg width="58" height="58" viewBox="0 0 58 58" fill="none" xmlns="http://www.w3.org/2000/svg">
<path d="M29.0049 2.4165C30.5068 2.41645 31.9771 2.85115 33.2364 3.66968C34.4936 4.48682 35.4868 5.65136 36.0968 7.02091L37.5199 10.1975L37.5246 10.2093C37.8176 10.8721 38.3127 11.425 38.9382 11.7905C39.5701 12.155 40.3014 12.3118 41.0269 12.2366L44.4843 11.8684L45.046 11.8306C46.3533 11.7875 47.6534 12.0745 48.8244 12.6708C50.1628 13.3525 51.2763 14.4071 52.0269 15.7082H52.0246C52.776 17.0085 53.1348 18.4989 53.0559 19.9987C52.9769 21.4983 52.4646 22.9429 51.5809 24.1571L49.5348 26.9679C49.1055 27.5582 48.8738 28.2699 48.874 28.9998V29.0116C48.8703 29.7404 49.0979 30.4518 49.523 31.0436L51.5667 33.8544H51.5691C52.4531 35.0688 52.9652 36.5151 53.0441 38.0151C53.123 39.5148 52.7665 41.0054 52.0151 42.3057L52.0128 42.3033C51.2622 43.6041 50.1531 44.6614 48.8149 45.343C47.4766 46.0246 45.9684 46.3033 44.4749 46.1454H44.4725L41.0174 45.7773V45.7749C40.2919 45.6994 39.5608 45.8566 38.9288 46.2209L38.9264 46.2186C38.3014 46.5813 37.8057 47.1332 37.5104 47.7927L37.5128 47.7951L36.0991 50.9717C35.4894 52.3442 34.4956 53.5115 33.2364 54.33C31.9771 55.1485 30.5068 55.5832 29.0049 55.5832C27.503 55.5834 26.0327 55.1484 24.7734 54.33C23.6717 53.6139 22.7722 52.6305 22.1561 51.4767L21.9083 50.9717L20.497 47.7951V47.7927C20.2012 47.1267 19.7004 46.5711 19.0692 46.2068C18.4366 45.8422 17.7043 45.6847 16.9782 45.7607L16.9806 45.7631L13.5255 46.1313H13.5208C12.0279 46.288 10.5206 46.0101 9.18303 45.3289C7.84543 44.6475 6.73385 43.5913 5.98283 42.2915C5.2316 40.9913 4.87498 39.5005 4.95386 38.001C5.03286 36.5011 5.54499 35.0569 6.42888 33.8426L8.47266 31.0318L8.62606 30.8053C8.91034 30.3412 9.08107 29.8161 9.12403 29.2736L9.13347 28.9998C9.1336 28.2699 8.90193 27.5582 8.47266 26.9679L6.42888 24.1571C5.54499 22.9428 5.03286 21.4985 4.95386 19.9987C4.87498 18.4991 5.2316 17.0084 5.98283 15.7082L6.2802 15.2338C7.01413 14.1506 8.01174 13.2675 9.18303 12.6708C10.3545 12.0742 11.656 11.7873 12.9638 11.8306L13.5231 11.8684L16.99 12.2366H16.9876C17.7146 12.3129 18.4478 12.1558 19.081 11.7905C19.7066 11.425 20.2016 10.8722 20.4946 10.2093L20.497 10.2046L21.9083 7.02799L22.1561 6.52295C22.7722 5.36922 23.6717 4.38579 24.7734 3.66968C26.0327 2.85132 27.503 2.41626 29.0049 2.4165ZM33.8335 28.9998C33.8335 26.3305 31.6695 24.1666 29.0002 24.1665C26.3308 24.1665 24.1668 26.3305 24.1668 28.9998C24.1668 31.6692 26.3308 33.8332 29.0002 33.8332C31.6695 33.8331 33.8335 31.6691 33.8335 28.9998ZM13.9408 29.6536C13.8208 31.1727 13.2842 32.6339 12.3832 33.8733V33.8756L10.3371 36.6864C10.0037 37.1445 9.80988 37.6901 9.78012 38.2559C9.75046 38.8214 9.88373 39.3845 10.1672 39.8748H10.1695C10.4533 40.3655 10.8727 40.7646 11.3779 41.0218C11.8823 41.2786 12.4504 41.3825 13.0134 41.3239L16.4684 40.9581L16.4732 40.9557C17.9966 40.7959 19.5298 41.0632 20.9053 41.718L21.4858 42.0225L22.0381 42.3717C23.2937 43.2354 24.2906 44.431 24.9126 45.8315L26.3263 49.0081L26.5245 49.3834C26.7494 49.74 27.0509 50.0439 27.4072 50.2755C27.8825 50.5844 28.438 50.7499 29.0049 50.7498C29.5717 50.7499 30.1273 50.5844 30.6026 50.2755C31.0774 49.9665 31.4536 49.5259 31.6835 49.0081L33.0948 45.8315L33.0972 45.8292C33.8072 44.2373 35.0012 42.9099 36.5098 42.0366L36.5121 42.0343C38.0286 41.1595 39.7837 40.7871 41.5248 40.9699H41.5295L44.9846 41.3381H44.9823C45.5457 41.3977 46.1152 41.293 46.6201 41.036C47.1252 40.7787 47.5452 40.3776 47.8285 39.8866C48.112 39.3961 48.2476 38.8334 48.2179 38.2677C48.1879 37.7023 47.9941 37.1583 47.6609 36.7006L45.6148 33.8874L45.61 33.8827C44.5815 32.4591 44.0319 30.7443 44.0406 28.988C44.0429 27.2409 44.599 25.5397 45.6266 24.1264V24.124L47.6727 21.3132C48.0061 20.8552 48.1999 20.3096 48.2297 19.7438C48.2519 19.3199 48.1803 18.8984 48.0243 18.5072L47.8403 18.1248C47.5571 17.634 47.1368 17.2351 46.6319 16.9779C46.127 16.7207 45.5576 16.6139 44.9941 16.6734L41.539 17.0416L41.5366 17.0439C39.7953 17.2268 38.0406 16.8521 36.5239 15.9772L36.5169 15.9749C35.009 15.0988 33.8164 13.7689 33.109 12.1752L31.6859 8.99862L31.6835 8.99154C31.4536 8.4738 31.0774 8.03313 30.6026 7.7242C30.1273 7.41527 29.5717 7.24978 29.0049 7.24984C28.438 7.24974 27.8825 7.41523 27.4072 7.7242C27.0509 7.9558 26.7494 8.2597 26.5245 8.61629L26.3263 8.99154L24.9126 12.1611L24.915 12.1634C24.2082 13.7622 23.0138 15.0967 21.5024 15.9749L21.4953 15.9772C19.9787 16.8521 18.2239 17.2268 16.4826 17.0439L16.4802 17.0416L13.0134 16.6758V16.6734C12.4504 16.6142 11.8823 16.721 11.3779 16.9779C10.8728 17.2351 10.4528 17.6339 10.1695 18.1248H10.1672C9.88373 18.6152 9.75046 19.1782 9.78012 19.7438C9.80988 20.3096 10.0037 20.8552 10.3371 21.3132L12.3832 24.124V24.1264C13.4129 25.5427 13.967 27.2488 13.9668 28.9998L13.9408 29.6536ZM38.6668 28.9998C38.6668 34.3385 34.3388 38.6664 29.0002 38.6665C23.6614 38.6665 19.3335 34.3386 19.3335 28.9998C19.3335 23.6611 23.6614 19.3332 29.0002 19.3332C34.3388 19.3333 38.6668 23.6611 38.6668 28.9998Z" fill="white"/>
</svg>
