<svg width="58" height="58" viewBox="0 0 58 58" fill="none" xmlns="http://www.w3.org/2000/svg">
<path d="M25.5096 45.9165C22.5601 45.9165 20.0978 47.985 19.4844 50.7498H38.5157C37.9023 47.985 35.44 45.9165 32.4905 45.9165H25.5096ZM16.9615 7.264C16.9515 7.26461 16.9421 7.26573 16.9332 7.26636C16.9326 7.27519 16.9315 7.2846 16.9309 7.29468C16.9181 7.50452 16.9167 7.79443 16.9167 8.32365V21.7498C16.9167 28.4233 22.3266 33.8332 29 33.8332C35.6735 33.8332 41.0834 28.4233 41.0834 21.7498V8.32365C41.0834 7.79443 41.082 7.50452 41.0692 7.29468C41.0686 7.28454 41.0651 7.27524 41.0645 7.26636C41.0563 7.26579 41.0477 7.26456 41.0385 7.264C40.8287 7.25126 40.5388 7.24984 40.0096 7.24984H17.9905C17.4613 7.24984 17.1714 7.25126 16.9615 7.264ZM50.7335 12.1327C50.7328 12.1218 50.7296 12.1117 50.7288 12.102C50.7199 12.1014 50.7105 12.1004 50.7005 12.0997C50.4648 12.0836 50.1378 12.0832 49.5417 12.0832H45.9167V21.7239C46.5391 21.7017 46.8805 21.6616 47.1675 21.5846C48.8355 21.1377 50.1379 19.8353 50.5848 18.1673C50.7288 17.6301 50.75 16.9028 50.75 14.4998V13.2915C50.75 12.6954 50.7496 12.3684 50.7335 12.1327ZM7.25004 14.4998C7.25004 16.9028 7.27131 17.6301 7.41524 18.1673C7.86217 19.8353 9.16461 21.1377 10.8326 21.5846C11.1196 21.6616 11.461 21.7017 12.0834 21.7239V12.0832H8.45837C7.86229 12.0832 7.53528 12.0836 7.2996 12.0997C7.28872 12.1004 7.2785 12.1013 7.26892 12.102C7.26816 12.1116 7.26731 12.1218 7.26656 12.1327C7.25048 12.3684 7.25004 12.6954 7.25004 13.2915V14.4998ZM55.5834 14.4998C55.5834 16.5917 55.6031 18.1114 55.253 19.4181C54.3591 22.754 51.7542 25.3589 48.4183 26.2528C47.4976 26.4995 46.4713 26.5583 45.2134 26.5737C43.3587 32.817 38.0016 37.5473 31.4167 38.4895V41.0832H32.4905C38.5708 41.0832 43.5 46.0124 43.5 52.0927C43.4999 54.0204 41.9372 55.583 40.0096 55.5832H17.9905C16.0628 55.583 14.5002 54.0204 14.5 52.0927C14.5 46.0124 19.4293 41.0832 25.5096 41.0832H26.5834V38.4895C19.9983 37.5473 14.6389 32.8173 12.7843 26.5737C11.5275 26.5582 10.5019 26.4993 9.58175 26.2528C6.24586 25.3589 3.64096 22.754 2.74711 19.4181C2.39697 18.1114 2.41671 16.5917 2.41671 14.4998V13.2915C2.41671 12.7616 2.41512 12.243 2.44503 11.8047C2.47642 11.3446 2.55059 10.7985 2.78487 10.2329C3.27541 9.04911 4.21598 8.10854 5.39978 7.618C5.96538 7.38372 6.51149 7.30955 6.97156 7.27816C7.40992 7.24825 7.92843 7.24984 8.45837 7.24984H12.0975C12.1198 6.70427 12.1831 6.1281 12.376 5.59782C12.8647 4.25528 13.9222 3.19779 15.2647 2.70915C15.9408 2.46319 16.6915 2.42156 17.358 2.4165H40.642C41.3086 2.42156 42.0593 2.46319 42.7354 2.70915C43.9101 3.13671 44.8682 3.99844 45.4164 5.10693L45.6241 5.59782L45.7326 5.94002C45.8454 6.37055 45.885 6.81997 45.9025 7.24984H49.5417C50.0717 7.24984 50.5902 7.24825 51.0285 7.27816C51.4886 7.30955 52.0347 7.38372 52.6003 7.618C53.7841 8.10854 54.7247 9.0491 55.2152 10.2329C55.4495 10.7985 55.5237 11.3446 55.5551 11.8047C55.585 12.243 55.5834 12.7616 55.5834 13.2915V14.4998Z" fill="white"/>
</svg>
