<svg width="47" height="52" viewBox="0 0 47 52" fill="none" xmlns="http://www.w3.org/2000/svg">
<path d="M19.3713 14.7638C19.5881 19.6125 18.3135 21.7322 15.7817 23.3566H15.7904C15.1321 23.6903 14.4104 23.9 13.6661 23.9738L14.5331 48.0061C14.5446 48.4604 14.46 48.9123 14.2842 49.3358C14.1084 49.7593 13.8449 50.146 13.5088 50.4737C13.1727 50.8013 12.7707 51.0635 12.326 51.2449C11.8812 51.4264 11.4025 51.5236 10.9175 51.531H10.5186C10.0868 51.5257 9.66034 51.4402 9.26408 51.2793C8.86782 51.1183 8.50965 50.8853 8.21036 50.5936C7.91107 50.3019 7.67664 49.9574 7.52068 49.5802C7.36472 49.2029 7.29034 48.8004 7.30187 48.396L8.28164 23.982C7.6872 23.9088 7.10472 23.767 6.54753 23.5596C3.64288 22.3576 2.67178 19.5394 2.61108 16.0714L3.02727 4.14051C3.07929 2.92225 2.83652 1.4847 4.03306 0.769987C4.29413 0.601084 4.59798 0.499351 4.9142 0.474963C5.23042 0.450575 5.54794 0.504387 5.83499 0.631017C6.12204 0.757646 6.36857 0.952655 6.54991 1.19654C6.73125 1.44042 6.84106 1.72463 6.86834 2.02074L6.73828 12.4085C6.70738 12.5851 6.71786 12.7659 6.769 12.9384C6.82014 13.1109 6.91071 13.2709 7.03443 13.4073C7.15815 13.5437 7.31207 13.6533 7.48551 13.7285C7.65895 13.8036 7.84776 13.8426 8.03886 13.8426C8.22996 13.8426 8.41878 13.8036 8.59222 13.7285C8.76566 13.6533 8.91957 13.5437 9.0433 13.4073C9.16702 13.2709 9.25759 13.1109 9.30873 12.9384C9.35987 12.7659 9.37035 12.5851 9.33945 12.4085C9.33945 9.509 9.46951 4.85523 9.46951 1.94764C9.50419 -0.107163 12.773 0.0796379 12.773 1.94764L12.6429 12.4085C12.6429 12.7854 12.8028 13.1469 13.0874 13.4135C13.3719 13.68 13.7579 13.8298 14.1603 13.8298C14.5627 13.8298 14.9487 13.68 15.2332 13.4135C15.5178 13.1469 15.6776 12.7854 15.6776 12.4085L15.8077 2.29688C15.9724 0.347656 19.3713 0.558822 19.3713 2.29688V14.7638Z" fill="white"/>
<path d="M31.3454 26.0693L31.3887 47.5188H31.3627C31.3627 53.066 38.4466 52.603 38.2992 47.6244L37.5448 25.988C47.7761 23.4784 46.3628 0.615673 34.4668 0.485725C24.6777 0.37202 21.5563 20.7739 31.3454 26.0693Z" fill="white"/>
</svg>
