<svg width="58" height="58" viewBox="0 0 58 58" fill="none" xmlns="http://www.w3.org/2000/svg">
<path d="M20.8367 2.59592C21.5192 2.31719 22.2987 2.36363 22.9489 2.73516L38.5676 11.6608L51.8262 2.82248C52.5676 2.32821 53.5209 2.28186 54.3066 2.70212C55.0924 3.12267 55.5834 3.94197 55.5834 4.83323V43.4999C55.5834 44.3079 55.1795 45.0624 54.5072 45.5106L40.0072 55.1773C39.2456 55.6851 38.2626 55.7188 37.4678 55.2646L21.75 46.2824L6.03225 55.2646C5.28438 55.692 4.36534 55.6898 3.6203 55.2575C2.87521 54.8251 2.41669 54.028 2.41669 53.1666V14.4999C2.41669 13.6327 2.88149 12.8321 3.63446 12.4018L20.5511 2.73516L20.8367 2.59592ZM7.25002 15.9017V49.0011L19.3334 42.0957V8.99631L7.25002 15.9017ZM24.1667 42.0957L36.25 49.0011V15.9017L24.1667 8.99631V42.0957ZM41.0834 15.7932V48.6495L50.75 42.2066V9.34795L41.0834 15.7932Z" fill="white"/>
</svg>
